<svg xmlns="http://www.w3.org/2000/svg" viewBox="0 0 386.53 356.56"><defs><style>.a{fill:#4f5368;}.b,.h{fill:#fff;}.c,.d,.e,.f,.g,.i{fill:none;}.d,.i{stroke:#4f5368;}.d{stroke-miterlimit:10;stroke-width:17px;}.e,.f,.g{stroke:#fff;}.e,.i{stroke-width:2px;}.f{stroke-width:4px;}.g{stroke-width:11px;}.h{fill-rule:evenodd;}</style></defs><polyline class="a" points="345.61 317.17 218.38 182.62 173.5 184.77 177.98 189.64 295.23 316.88"/><polyline class="a" points="360.15 333.63 233.36 199.06 188.63 201.2 193.1 206.07 309.95 333.33"/><polyline class="a" points="361.15 333.63 233.92 199.08 189.04 201.23 193.52 206.1 310.77 333.33"/><path class="a" d="M211.44,330.53A156.2,156.2,0,0,1,154,326.31c-25.11-6.69-41.95-18-51.05-24.19-9.54-6.52-24.63-17-38.84-36a152,152,0,0,1-24.85-51.93A163.65,163.65,0,0,1,35,158.52,160.86,160.86,0,0,1,47.43,109,152.07,152.07,0,0,1,72.51,70.41C79.58,62.17,92.87,47,115.34,34.46A145.37,145.37,0,0,1,156,19.14c14.32-3,26.86-3.19,35.06-3.33s14.71.2,18.43.45c7.37.48,21,1.38,34.84,5.1,21.06,5.66,35.49,15.93,45,22.86a157.7,157.7,0,0,1,33.3,32.18,148.36,148.36,0,0,1,10.43,16.21,149.9,149.9,0,0,1,18.42,84.11,145.58,145.58,0,0,1-40.84,90.11L241,194.74c.67.06,1.62.14,2.76.17a35.42,35.42,0,0,0,9.12-.69,31.15,31.15,0,0,0,9.65-4,38.7,38.7,0,0,0,6.89-5.34,30.48,30.48,0,0,0,6.37-7.92,29.73,29.73,0,0,0,2.93-9,53.9,53.9,0,0,0,.86-12.4,73.73,73.73,0,0,0-1.2-13.78,78.49,78.49,0,0,0-3.79-12.92c-6.27-15.48-19.94-26.56-22.74-28.76C236.68,88.2,221.35,85,214,83.47a85.65,85.65,0,0,0-32.39-.86,87.8,87.8,0,0,0-31.17,12.06,88.86,88.86,0,0,0-25.5,23.94,87.61,87.61,0,0,0-11.36,22c-3.58,10.29-4.28,18.58-4.83,25.66-.57,7.4-1.17,15.82.86,26.7A84,84,0,0,0,137,241.25a93.19,93.19,0,0,0,22.57,15.33,85.56,85.56,0,0,0,21.35,6.89,93.21,93.21,0,0,0,10.68,1.2,67.41,67.41,0,0,0,11,0,57.71,57.71,0,0,0,9.82-1.72v67.58"/><path class="b" d="M94.56,79.32h-.4a7.52,7.52,0,0,1,.66,3.07q0,.33,0,.66a17.16,17.16,0,1,1-12.34,5,7.59,7.59,0,0,1-2.14-3.11,20.89,20.89,0,1,0,14.25-5.61Zm0,0"/><path class="b" d="M91.11,81.49a3.87,3.87,0,1,1-4.66-2.89,3.86,3.86,0,0,1,4.66,2.89Zm0,0"/><path class="b" d="M76.31,118.62a3.88,3.88,0,1,1-5.49,0,3.88,3.88,0,0,1,5.49,0Zm0,0"/><path class="b" d="M117.37,75.36a3.88,3.88,0,1,1-5.07,2.1,3.88,3.88,0,0,1,5.07-2.1Zm0,0"/><path class="b" d="M104,102.13V98.4h-3.86a6.21,6.21,0,0,0-.31-.75l2.73-2.73L99.9,92.28,97.19,95a6.56,6.56,0,0,0-.77-.32V90.84H92.69v3.83a7.35,7.35,0,0,0-.77.32l-2.71-2.71-2.63,2.64,2.72,2.73a4.89,4.89,0,0,0-.3.75H85.13v3.73H89a5.78,5.78,0,0,0,.31.72l-2.76,2.76,2.63,2.64L92,105.47a6,6,0,0,0,.7.28v3.94h3.73v-3.94a5.38,5.38,0,0,0,.7-.28l2.78,2.78,2.64-2.64-2.77-2.76a5.78,5.78,0,0,0,.31-.72Zm0,0"/><path class="b" d="M121.67,83.65a7.43,7.43,0,0,1-3,2.23,28,28,0,0,1-38.27,38.54A7.51,7.51,0,0,1,78,127.36a31.77,31.77,0,0,0,43.63-43.71Zm0,0"/><path class="b" d="M70.46,114.57a28.05,28.05,0,0,1,38.48-38.43,7.52,7.52,0,0,1,2.23-3A31.78,31.78,0,0,0,67.54,117a7.52,7.52,0,0,1,2.92-2.38Zm0,0"/><path class="c" d="M212.43,263a57.71,57.71,0,0,1-9.82,1.72,67.41,67.41,0,0,1-11,0,93.21,93.21,0,0,1-10.68-1.2,85.56,85.56,0,0,1-21.35-6.89A93.19,93.19,0,0,1,137,241.25,84,84,0,0,1,109.59,193c-2-10.88-1.43-19.3-.86-26.7.55-7.08,1.25-15.37,4.83-25.66a87.61,87.61,0,0,1,11.36-22,88.86,88.86,0,0,1,25.5-23.94,87.8,87.8,0,0,1,31.17-12.06,85.65,85.65,0,0,1,32.39.86c7.37,1.48,22.7,4.73,37.89,16.71,2.8,2.2,16.47,13.28,22.74,28.76a78.49,78.49,0,0,1,3.79,12.92,73.73,73.73,0,0,1,1.2,13.78,53.9,53.9,0,0,1-.86,12.4,29.73,29.73,0,0,1-2.93,9,30.48,30.48,0,0,1-6.37,7.92,38.7,38.7,0,0,1-6.89,5.34,31.15,31.15,0,0,1-9.65,4,35.42,35.42,0,0,1-9.12.69c-1.14,0-2.09-.11-2.76-.17"/><line class="d" x1="195.32" y1="176.77" x2="250.66" y2="174.39"/><line class="d" x1="198.48" y1="180.79" x2="242.8" y2="141.3"/><line class="d" x1="198.48" y1="180.79" x2="219.15" y2="110.19"/><line class="d" x1="198.48" y1="180.79" x2="175.79" y2="114.57"/><line class="d" x1="198.48" y1="180.35" x2="138.57" y2="173.5"/><line class="d" x1="198.48" y1="180.79" x2="145.41" y2="138.82"/><path class="c" d="M212.43,263a57.71,57.71,0,0,1-9.82,1.72,67.41,67.41,0,0,1-11,0,93.21,93.21,0,0,1-10.68-1.2,85.56,85.56,0,0,1-21.35-6.89A93.19,93.19,0,0,1,137,241.25,84,84,0,0,1,109.59,193c-2-10.88-1.43-19.3-.86-26.7.55-7.08,1.25-15.37,4.83-25.66a87.61,87.61,0,0,1,11.36-22,88.86,88.86,0,0,1,25.5-23.94,87.8,87.8,0,0,1,31.17-12.06,85.65,85.65,0,0,1,32.39.86c7.37,1.48,22.7,4.73,37.89,16.71,2.8,2.2,16.47,13.28,22.74,28.76a78.49,78.49,0,0,1,3.79,12.92,73.73,73.73,0,0,1,1.2,13.78,53.9,53.9,0,0,1-.86,12.4,29.73,29.73,0,0,1-2.93,9,30.48,30.48,0,0,1-6.37,7.92,38.7,38.7,0,0,1-6.89,5.34,31.15,31.15,0,0,1-9.65,4,35.42,35.42,0,0,1-9.12.69c-1.14,0-2.09-.11-2.76-.17"/><circle class="a" cx="198.48" cy="180.79" r="13.4"/><circle class="b" cx="84.05" cy="230.99" r="8.27"/><circle class="a" cx="84.05" cy="230.99" r="4.02"/><circle class="b" cx="354.98" cy="330.08" r="8.27"/><circle class="a" cx="354.98" cy="330.08" r="4.02"/><circle class="b" cx="108.18" cy="264.9" r="15.4"/><circle class="a" cx="108.18" cy="264.9" r="7.48"/><circle class="b" cx="324.84" cy="164.98" r="15.4"/><circle class="a" cx="324.84" cy="164.98" r="7.48"/><circle class="b" cx="316.05" cy="312.45" r="15.4"/><rect class="b" x="221.9" y="35.83" width="37.4" height="36.03" transform="translate(36.63 -84.66) rotate(21.56)"/><rect class="a" x="228.03" y="41.33" width="25.06" height="24.4" transform="translate(36.51 -84.67) rotate(21.56)"/><rect class="e" x="221.29" y="34.76" width="38.54" height="37.53" transform="translate(36.51 -84.67) rotate(21.56)"/><line class="e" x1="218.08" y1="64.82" x2="214.78" y2="73.19"/><line class="e" x1="222.01" y1="66.37" x2="218.71" y2="74.74"/><line class="e" x1="225.94" y1="67.93" x2="222.64" y2="76.29"/><line class="e" x1="229.87" y1="69.48" x2="226.57" y2="77.85"/><line class="e" x1="233.8" y1="71.03" x2="230.5" y2="79.4"/><line class="e" x1="237.73" y1="72.59" x2="234.43" y2="80.95"/><line class="e" x1="241.66" y1="74.14" x2="238.36" y2="82.51"/><line class="e" x1="245.59" y1="75.69" x2="242.29" y2="84.06"/><line class="e" x1="249.52" y1="77.25" x2="246.22" y2="85.61"/><line class="e" x1="235.36" y1="21.12" x2="232.05" y2="29.48"/><line class="e" x1="239.29" y1="22.67" x2="235.98" y2="31.03"/><line class="e" x1="243.22" y1="24.22" x2="239.91" y2="32.59"/><line class="e" x1="247.15" y1="25.77" x2="243.84" y2="34.14"/><line class="e" x1="251.08" y1="27.33" x2="247.77" y2="35.69"/><line class="e" x1="255.01" y1="28.88" x2="251.7" y2="37.25"/><line class="e" x1="258.94" y1="30.43" x2="255.63" y2="38.8"/><line class="e" x1="262.86" y1="31.99" x2="259.56" y2="40.35"/><line class="e" x1="266.79" y1="33.54" x2="263.49" y2="41.91"/><line class="e" x1="272.44" y1="50.9" x2="264.07" y2="47.6"/><line class="e" x1="270.88" y1="54.83" x2="262.52" y2="51.53"/><line class="e" x1="269.33" y1="58.76" x2="260.97" y2="55.46"/><line class="e" x1="267.78" y1="62.69" x2="259.41" y2="59.39"/><line class="e" x1="266.23" y1="66.62" x2="257.86" y2="63.32"/><line class="e" x1="264.67" y1="70.55" x2="256.31" y2="67.25"/><line class="e" x1="263.12" y1="74.48" x2="254.75" y2="71.18"/><line class="e" x1="261.57" y1="78.41" x2="253.2" y2="75.11"/><line class="e" x1="228.37" y1="33.49" x2="220" y2="30.18"/><line class="e" x1="226.82" y1="37.42" x2="218.45" y2="34.11"/><line class="e" x1="225.26" y1="41.35" x2="216.9" y2="38.04"/><line class="e" x1="223.71" y1="45.28" x2="215.34" y2="41.97"/><line class="e" x1="222.16" y1="49.21" x2="213.79" y2="45.9"/><line class="e" x1="220.6" y1="53.14" x2="212.24" y2="49.83"/><line class="e" x1="219.05" y1="57.07" x2="210.68" y2="53.76"/><line class="e" x1="217.5" y1="61" x2="209.13" y2="57.69"/><line class="f" x1="207.03" y1="260.21" x2="207.03" y2="334.72"/><line class="f" x1="199.49" y1="260.21" x2="199.49" y2="334.72"/><line class="f" x1="191.96" y1="260.21" x2="191.96" y2="334.72"/><line class="g" x1="217.33" y1="207.51" x2="319.23" y2="315.82"/><line class="f" x1="184.42" y1="260.21" x2="184.42" y2="334.72"/><line class="f" x1="176.88" y1="258.59" x2="176.88" y2="334.72"/><path class="c" d="M211.44,330.53A156.2,156.2,0,0,1,154,326.31c-25.11-6.69-41.95-18-51.05-24.19-9.54-6.52-24.63-17-38.84-36a152,152,0,0,1-24.85-51.93A163.65,163.65,0,0,1,35,158.52,160.86,160.86,0,0,1,47.43,109,152.07,152.07,0,0,1,72.51,70.41C79.58,62.17,92.87,47,115.34,34.46A145.37,145.37,0,0,1,156,19.14c14.32-3,26.86-3.19,35.06-3.33s14.71.2,18.43.45c7.37.48,21,1.38,34.84,5.1,21.06,5.66,35.49,15.93,45,22.86a157.7,157.7,0,0,1,33.3,32.18,148.36,148.36,0,0,1,10.43,16.21,149.9,149.9,0,0,1,18.42,84.11,145.58,145.58,0,0,1-40.84,90.11"/><path class="b" d="M271.43,213.88l18.41,19a.57.57,0,0,1,.14.25l3.23,9.43-.51.17.52-.17a.55.55,0,0,1-.92.55l-31-32a.54.54,0,0,1,0-.77.55.55,0,0,1,.62-.1l9.31,3.54h0A.57.57,0,0,1,271.43,213.88Z"/><rect class="b" x="280.08" y="217.71" width="9.54" height="3.21" transform="translate(-72.35 259.88) rotate(-44.07)"/><path class="h" d="M335.91,218l-1.78-1.82a1,1,0,0,1,1.46-1.42l1.78,1.83a1,1,0,0,1,0,1.44,1,1,0,0,1-1.43,0Zm-6.44,3-.62-2.47a1,1,0,0,1,.74-1.23,1,1,0,0,1,1.23.74l.62,2.47a1,1,0,0,1-.74,1.23,1,1,0,0,1-1.23-.74Zm-7.06-.64.7-2.45a1,1,0,1,1,1.95.56l-.7,2.45a1,1,0,1,1-1.95-.56Zm15.24-21.62-1.83,1.77a1,1,0,0,1-1.41-1.46l1.83-1.77a1,1,0,1,1,1.41,1.46Zm3,6.43-2.47.62a1,1,0,0,1-1.23-.74,1,1,0,0,1,.74-1.23l2.47-.62a1,1,0,1,1,.49,2Zm-.64,7.06-2.45-.7a1,1,0,0,1,.56-1.95l2.45.7a1,1,0,0,1-.56,2ZM324.8,194l.62,2.47a1,1,0,0,1-.74,1.23,1,1,0,0,1-1.23-.73l-.62-2.47a1,1,0,1,1,2-.5Zm7.06.64-.7,2.45a1,1,0,1,1-2-.56l.7-2.45a1,1,0,0,1,1.95.56Z"/><polygon class="h" points="302.66 183.22 297.92 178.31 292.33 181.12 297.51 186.47 302.66 183.22"/><polygon class="h" points="303.44 184.02 298.29 187.27 303.79 192.95 308.39 189.13 303.44 184.02"/><polygon class="h" points="309.15 189.92 304.55 193.74 311.04 200.44 315.01 195.97 309.15 189.92"/><polygon class="h" points="315.77 196.75 311.8 201.23 317.31 206.91 320.72 201.87 320.1 201.22 315.77 196.75"/><polygon class="h" points="321.5 202.67 318.08 207.72 323.26 213.06 326.25 207.57 321.5 202.67"/><path class="h" d="M321.27,200.86l6,6.24a.55.55,0,0,1,.07.67l-4.13,7.6a8.7,8.7,0,1,0-2-14.51Z"/><polygon class="h" points="314.8 228.6 308.41 222 303.14 229.78 310.2 237.07 314.8 228.6"/><polygon class="h" points="309.04 221.08 315.35 227.6 318.86 221.15 313.05 215.15 309.04 221.08"/><polygon class="h" points="308.26 220.28 312.27 214.35 305.96 207.83 301.3 213.09 308.26 220.28"/><polygon class="h" points="307.64 221.2 300.57 213.91 294.46 220.81 302.37 228.98 307.64 221.2"/><polygon class="h" points="293.69 220.02 299.81 213.12 291.52 204.55 284.42 210.44 289.06 215.23 293.69 220.02"/><polygon class="h" points="283.66 209.66 290.76 203.77 283.69 196.47 275.75 201.48 283.66 209.66"/><polygon class="h" points="274.97 200.68 282.92 195.67 276.53 189.07 267.92 193.4 274.97 200.68"/><polygon class="h" points="277.55 188.55 283.86 195.07 289.92 191.26 284.11 185.26 277.55 188.55"/><polygon class="h" points="285.13 184.74 290.86 190.66 296.56 187.06 291.31 181.63 285.13 184.74"/><polygon class="h" points="297.34 187.86 291.64 191.46 297.85 197.88 302.94 193.65 297.34 187.86"/><polygon class="h" points="303.71 194.44 298.61 198.67 305.92 206.22 310.31 201.26 303.71 194.44"/><polygon class="h" points="311.08 202.05 306.69 207.01 312.9 213.42 316.68 207.84 311.08 202.05"/><polygon class="h" points="317.46 208.64 313.68 214.22 319.41 220.14 322.71 214.07 317.46 208.64"/><polygon class="h" points="300.54 212.3 305.2 207.04 297.77 199.37 292.36 203.85 300.54 212.3"/><polygon class="h" points="291.6 203.07 297.01 198.58 290.69 192.06 284.64 195.88 291.6 203.07"/><path class="h" d="M55.94,150.74a3.13,3.13,0,0,0-3.12,3.12V189.3a3.12,3.12,0,0,0,3.12,3.12H91.38a3.12,3.12,0,0,0,3.12-3.12V153.86a3.12,3.12,0,0,0-3.12-3.12ZM91.38,193.8H55.94a4.51,4.51,0,0,1-4.5-4.51V153.86a4.51,4.51,0,0,1,4.5-4.5H91.38a4.51,4.51,0,0,1,4.5,4.5V189.3a4.51,4.51,0,0,1-4.5,4.5Z"/><path class="h" d="M57.12,188.12H90.21V155H57.12v33.09Zm33.78,1.39H56.42a.69.69,0,0,1-.69-.7V154.34a.7.7,0,0,1,.69-.7H90.9a.69.69,0,0,1,.69.7v34.47a.69.69,0,0,1-.69.7Z"/><path class="h" d="M73.66,158.87c-3.36,0-6.21,5.82-6.21,12.71s2.85,12.71,6.21,12.71,6.21-5.82,6.21-12.71S77,158.87,73.66,158.87Zm0,26.8c-4.26,0-7.59-6.19-7.59-14.09s3.33-14.1,7.59-14.1,7.6,6.2,7.6,14.1S77.92,185.67,73.66,185.67Z"/><path class="h" d="M80.06,163.3a19.94,19.94,0,0,0-9.5,2.9c-6,3.44-9.59,8.81-7.91,11.73s8.15,2.47,14.11-1,9.59-8.81,7.91-11.73c-.75-1.29-2.44-1.92-4.61-1.92Zm-12.75,18c-2.7,0-4.84-.87-5.85-2.63C59.32,174.94,63,169,69.86,165s13.88-4.16,16-.47-1.57,9.68-8.41,13.63a21.18,21.18,0,0,1-10.15,3.1Z"/><path class="h" d="M62.65,165.22c-.78,1.36-.45,3.31.94,5.47a22.54,22.54,0,0,0,15.87,9.16c2.57.13,4.42-.56,5.21-1.92,1.68-2.91-1.94-8.28-7.91-11.73s-12.42-3.89-14.11-1Zm17.39,16H79.4a23.87,23.87,0,0,1-17-9.8c-1.69-2.62-2-5.07-1-6.91h0c2.13-3.69,9.16-3.48,16,.47s10.54,9.94,8.41,13.62c-1,1.71-3,2.63-5.83,2.63Z"/><path class="h" d="M73.66,169.61a2,2,0,1,0,2,2,2,2,0,0,0-2-2Zm0,5.32A3.36,3.36,0,1,1,77,171.58a3.35,3.35,0,0,1-3.36,3.35Z"/><path class="h" d="M59.24,150.74a.69.69,0,0,1-.69-.69v-6.41a1,1,0,0,0-1.92,0v6.41a.69.69,0,1,1-1.38,0v-6.41a2.34,2.34,0,0,1,4.68,0v6.41a.68.68,0,0,1-.69.69Z"/><path class="h" d="M67.28,150.74a.69.69,0,0,1-.7-.69v-6.41a1,1,0,0,0-1.91,0v6.41a.7.7,0,0,1-1.39,0v-6.41a2.34,2.34,0,0,1,4.68,0v6.41a.68.68,0,0,1-.68.69Z"/><path class="h" d="M75.31,150.74a.69.69,0,0,1-.69-.69v-6.41a1,1,0,0,0-1.92,0v6.41a.7.7,0,0,1-1.39,0v-6.41a2.35,2.35,0,0,1,4.69,0v6.41a.69.69,0,0,1-.69.69Z"/><path class="h" d="M83.35,150.74a.69.69,0,0,1-.7-.69v-6.41a1,1,0,0,0-1.91,0v6.41a.7.7,0,0,1-1.39,0v-6.41a2.34,2.34,0,0,1,4.68,0v6.41a.68.68,0,0,1-.68.69Z"/><path class="h" d="M91.38,150.74a.69.69,0,0,1-.69-.69v-6.41a1,1,0,0,0-1.92,0v6.41a.69.69,0,0,1-.69.69.7.7,0,0,1-.7-.69v-6.41a2.35,2.35,0,0,1,4.69,0v6.41a.69.69,0,0,1-.69.69Z"/><path class="h" d="M52.13,190h-6.4a2.35,2.35,0,1,1,0-4.69h6.4a.7.7,0,1,1,0,1.39h-6.4a1,1,0,0,0,0,1.92h6.4a.69.69,0,1,1,0,1.38Z"/><path class="h" d="M52.13,182h-6.4a2.34,2.34,0,1,1,0-4.68h6.4a.7.7,0,1,1,0,1.39h-6.4a1,1,0,1,0,0,1.91h6.4a.69.69,0,1,1,0,1.38Z"/><path class="h" d="M52.13,173.92h-6.4a2.35,2.35,0,1,1,0-4.69h6.4a.7.7,0,0,1,.7.7.69.69,0,0,1-.7.69h-6.4a1,1,0,1,0,0,1.92h6.4a.69.69,0,1,1,0,1.38Z"/><path class="h" d="M52.13,165.89h-6.4a2.35,2.35,0,1,1,0-4.69h6.4a.7.7,0,1,1,0,1.39h-6.4a1,1,0,1,0,0,1.91h6.4a.7.7,0,1,1,0,1.39Z"/><path class="h" d="M52.13,157.85h-6.4a2.34,2.34,0,1,1,0-4.68h6.4a.7.7,0,1,1,0,1.39h-6.4a1,1,0,1,0,0,1.91h6.4a.69.69,0,1,1,0,1.38Z"/><path class="h" d="M89.73,201.85a2.34,2.34,0,0,1-2.34-2.34v-6.4a.7.7,0,1,1,1.39,0v6.4a1,1,0,1,0,1.91,0v-6.4a.7.7,0,1,1,1.39,0v6.4a2.36,2.36,0,0,1-2.35,2.34Z"/><path class="h" d="M81.7,201.85a2.34,2.34,0,0,1-2.34-2.34v-6.4a.69.69,0,1,1,1.38,0v6.4a1,1,0,1,0,1.92,0v-6.4a.7.7,0,1,1,1.39,0v6.4a2.36,2.36,0,0,1-2.35,2.34Z"/><path class="h" d="M73.66,201.85a2.34,2.34,0,0,1-2.34-2.34v-6.4a.7.7,0,1,1,1.39,0v6.4a1,1,0,1,0,1.91,0v-6.4a.7.7,0,1,1,1.39,0v6.4a2.35,2.35,0,0,1-2.35,2.34Z"/><path class="h" d="M65.63,201.85a2.35,2.35,0,0,1-2.35-2.34v-6.4a.7.7,0,1,1,1.39,0v6.4a1,1,0,0,0,1.92,0v-6.4a.7.7,0,1,1,1.39,0v6.4a2.36,2.36,0,0,1-2.35,2.34Z"/><path class="h" d="M57.59,201.85a2.34,2.34,0,0,1-2.34-2.34v-6.4a.7.7,0,1,1,1.39,0v6.4a1,1,0,1,0,1.91,0v-6.4a.7.7,0,1,1,1.39,0v6.4a2.35,2.35,0,0,1-2.35,2.34Z"/><path class="h" d="M101.59,157.85h-6.4a.7.7,0,0,1,0-1.39h6.4a1,1,0,1,0,0-1.91h-6.4a.7.7,0,0,1,0-1.39h6.4a2.35,2.35,0,1,1,0,4.69Z"/><path class="h" d="M101.59,165.89h-6.4a.69.69,0,0,1-.69-.7.69.69,0,0,1,.69-.69h6.4a1,1,0,1,0,0-1.92h-6.4a.69.69,0,0,1,0-1.38h6.4a2.35,2.35,0,1,1,0,4.69Z"/><path class="h" d="M101.59,173.92h-6.4a.7.7,0,0,1,0-1.39h6.4a1,1,0,1,0,0-1.91h-6.4a.69.69,0,0,1-.69-.7.69.69,0,0,1,.69-.69h6.4a2.35,2.35,0,1,1,0,4.69Z"/><path class="h" d="M101.59,182h-6.4a.7.7,0,0,1,0-1.39h6.4a1,1,0,1,0,0-1.91h-6.4a.7.7,0,0,1,0-1.39h6.4a2.35,2.35,0,1,1,0,4.69Z"/><path class="h" d="M101.59,190h-6.4a.69.69,0,0,1-.69-.7.69.69,0,0,1,.69-.69h6.4a1,1,0,1,0,0-1.91h-6.4a.69.69,0,0,1-.69-.7.69.69,0,0,1,.69-.69h6.4a2.35,2.35,0,1,1,0,4.69Z"/><polygon class="b" points="172.05 28.2 175.92 48.47 154.74 39.43 172.05 28.2 139.82 33.06 139.18 34.58 190.19 56.35 190.84 54.84 172.05 28.2"/><path class="b" d="M153.05,41.24l-.67.27-13.67-5.83c-1.05,2.46.74,6.87,4.69,11.39l7.52,18.71a3.61,3.61,0,1,0,5.36,1.66,3.64,3.64,0,0,0-1.3-1.63l3.27-7.65,1.59,4-.19.06a3.58,3.58,0,0,0-2.14,2.08l-.24.1-.31.13-.72.28a5.21,5.21,0,0,1-3.13,9.2l-2.39,13,14.65-5.89.82,2-18.38,7.38.73,1.81.52,1.3,30.61-12.3-.52-1.3-1.2-3-3.7,1.48a4.31,4.31,0,0,1-3.27,0l-10.34-4.42L171,77.53l-7.51-7-.74-1.85a3.61,3.61,0,0,0,.48-5.81l1.15-2.7c12.26,3.59,23.57,1.43,25.33-2.71l-36.4-15.54Zm3.95,16-4.06,9.53-6.82-17A45.5,45.5,0,0,0,157,57.29Zm-2.48,9.6a2.38,2.38,0,0,1,.7,1,2.47,2.47,0,1,1-3.86-1l.46,1.16a1.32,1.32,0,0,0-.13,1.25.7.7,0,0,0,.11.21l0,0,.05,0a1.34,1.34,0,0,0,1.31.56h0a1.38,1.38,0,0,0,.27-.08,1.32,1.32,0,0,0,.74-1.73A1,1,0,0,0,154,68l.84-2Zm8.1-4.46h0ZM160.41,62h0Zm.21,0Zm-.57.08h0Zm.2,0h0Zm2.53.5h0Zm.31.21h0Zm-.16-.11h0Zm-1-.49a4.88,4.88,0,0,0-.55-.12L160,58.65c1,.39,2,.75,2.93,1.07Z"/><path class="b" d="M289.55,110.94a1,1,0,0,0-1.41-.24,1,1,0,0,0,1.17,1.65A1,1,0,0,0,289.55,110.94Z"/><path class="b" d="M281.32,99.29a1,1,0,1,0-.24,1.41A1,1,0,0,0,281.32,99.29Z"/><path class="b" d="M310.53,118.32l0,0-1.46-2,0,0,0,0-1.46-2.06,0,0,0,0-.57-.82-6.24,4.42,4.34,6.12,6.23-4.41-.64-.91Z"/><path class="b" d="M321.9,121.81a1,1,0,0,0,1.74-1,.69.69,0,0,1-.11-.13,1,1,0,0,1-.08-.14,1,1,0,0,0-1.55,1.29Z"/><path class="b" d="M281.8,87.88a2.56,2.56,0,0,1,3.85-2.73l4.77-3.37-6.66-9.41-3.39,2.4L285,81.31a.94.94,0,1,1-1.53,1.09l-4.63-6.55-1.09.78,2.89,4.08A1,1,0,0,1,279,81.87l-2.88-4.08-.44.31,4.63,6.54a1,1,0,0,1-1.64,1.16L274,79.26l-1,.7L275.93,84a1,1,0,0,1-1.64,1.16l-2.89-4.08-3.28,2.32,6.66,9.41Z"/><path class="b" d="M314.75,103.67A1.19,1.19,0,1,0,315,102l-.18.15,0,0A1.19,1.19,0,0,0,314.75,103.67Z"/><circle class="b" cx="284.3" cy="87.32" r="0.6"/><path class="b" d="M325.59,120.43a3.06,3.06,0,0,1-1.14,3.23,3,3,0,0,1-4.14-.71,2.93,2.93,0,0,1,.74-4.1,2.78,2.78,0,0,1,3.46.05l6.93-4.91-2.63-3.72-4.15,2.94a1.06,1.06,0,0,1-1.44-.17l-3.91-5.52a1,1,0,0,1,.39-1.31l4.16-2.94-6-8.42L313,98.33l1.33,1.87a3.19,3.19,0,0,1,4,1,3.13,3.13,0,0,1-.74,4.36,3.19,3.19,0,0,1-4.42-.71,3,3,0,0,1-.26-3.22l-2.11-3a1,1,0,0,1,.41-1.32l5.67-4L304.27,75.59l-3.53,2.5a1.21,1.21,0,0,1-1.55-.16l-3.9-5.52A1.12,1.12,0,0,1,295.7,71l3.54-2.5-3.33-4.7L285.3,71.29l7.22,10.21a.92.92,0,0,1-.1,1.33l-5.61,4A2.55,2.55,0,0,1,283,89.52L275.23,95a1.17,1.17,0,0,1-1.52-.17L266.48,84.6l-4.6,3.25,3.72,5.26a5.16,5.16,0,0,1,5.86,8.28l22,31.05a5.16,5.16,0,0,1,5.86,8.28l1.84,2.6,34-24.07-2.63-3.72ZM302,85.87l4.4,6.22a1,1,0,0,1-1.64,1.16L300.38,87a1,1,0,0,1,.26-1.38A1,1,0,0,1,302,85.87Zm-3.28,2.33,4.39,6.21a1,1,0,0,1-.25,1.37,1,1,0,0,1-1.39-.21l-4.39-6.21a1,1,0,0,1,1.64-1.16Zm-3.28,2.32,4.39,6.21a1,1,0,0,1-1.64,1.16l-4.39-6.21a1,1,0,0,1,1.64-1.16Zm-3.28,2.32,4.39,6.21a.94.94,0,1,1-1.53,1.09l-4.4-6.21a.94.94,0,1,1,1.54-1.09Zm-3.29,2.32,4.4,6.22a.93.93,0,0,1-.2,1.33.94.94,0,0,1-1.33-.25l-4.4-6.21a.94.94,0,1,1,1.53-1.09Zm1.44,20.6-.91-1.29a3,3,0,0,1-3.24-4.58l-5-7.07a3.09,3.09,0,0,1-3.24-1.13,3.06,3.06,0,0,1,0-3.43L277,97a.94.94,0,1,1,1.53-1.08l.92,1.29a3,3,0,0,1,3.23,4.57l5,7.08a3,3,0,0,1,3.22,4.55l.92,1.3a.94.94,0,1,1-1.53,1.09ZM312.54,126a1,1,0,0,1-1.65,1.16l-2.53-3.58-.55.39,2.54,3.58a1,1,0,0,1-1.64,1.16l-2.54-3.58-.8.56a1.1,1.1,0,0,1-1.48-.07l-.71-1L299.79,127a1,1,0,0,1-1.16-1.64L302,123l-.31-.43L298.32,125a.94.94,0,1,1-1.08-1.53l3.38-2.4-.46-.65-3.39,2.4a.94.94,0,1,1-1.08-1.54l3.39-2.39-.7-1a1.13,1.13,0,0,1,.41-1.44l.8-.56-2.53-3.57a1,1,0,0,1,1.64-1.16l2.53,3.57.55-.39-2.53-3.57a1,1,0,0,1,1.64-1.16l2.53,3.57.54-.39-2.52-3.57A.94.94,0,1,1,303,108.1l2.53,3.57,1.08-.77a.93.93,0,0,1,1.32.21l.69,1,3.55-2.51a.94.94,0,1,1,1.09,1.53l-3.55,2.51.46.66,3.55-2.51a.94.94,0,1,1,1.09,1.53l-3.55,2.51.31.44,3.55-2.51a1,1,0,0,1,1.16,1.64l-3.55,2.51.71,1a.91.91,0,0,1-.25,1.3l-1.08.77,2.53,3.58a.94.94,0,1,1-1.53,1.09l-2.54-3.59-.54.39Z"/><path class="b" d="M235.68,189.75a44.33,44.33,0,0,0,12.06-.18,30.73,30.73,0,0,0,11.37-3.44,28,28,0,0,0,8.78-7.75,29.53,29.53,0,0,0,5-11.37c1.25-5.36.88-9.4.17-17.23A63.31,63.31,0,0,0,271,136.87a56.74,56.74,0,0,0-6-13.61,61.32,61.32,0,0,0-9.13-11.54,82.29,82.29,0,0,0-13.61-11c-5.64-3.88-9.82-6.76-16-9.13a61.77,61.77,0,0,0-15-3.44,91.15,91.15,0,0,0-32,.69,83.73,83.73,0,0,0-20.32,6.89A78.19,78.19,0,0,0,129.57,121a82.08,82.08,0,0,0-12,26.7,99.44,99.44,0,0,0-3.1,20c-.46,6.26-.93,12.64.34,21a89.42,89.42,0,0,0,5.34,18.95c3,8.13,5.4,11.86,6.2,13.09a63.73,63.73,0,0,0,6.89,8.44,129.8,129.8,0,0,0,13.44,12.92,84,84,0,0,0,13.6,9.65,71.69,71.69,0,0,0,22.57,7.57,74,74,0,0,0,29.28-1.2l.35,4.82a57.71,57.71,0,0,1-9.82,1.72,67.41,67.41,0,0,1-11,0,93.21,93.21,0,0,1-10.68-1.2,85.56,85.56,0,0,1-21.35-6.89A93.19,93.19,0,0,1,137,241.25,84,84,0,0,1,109.59,193c-2-10.88-1.43-19.3-.86-26.7.55-7.08,1.25-15.37,4.83-25.66a87.61,87.61,0,0,1,11.36-22,88.86,88.86,0,0,1,25.5-23.94,87.8,87.8,0,0,1,31.17-12.06,85.65,85.65,0,0,1,32.39.86c7.37,1.48,22.7,4.73,37.89,16.71,2.8,2.2,16.47,13.28,22.74,28.76a78.49,78.49,0,0,1,3.79,12.92,73.73,73.73,0,0,1,1.2,13.78,53.9,53.9,0,0,1-.86,12.4,29.73,29.73,0,0,1-2.93,9,30.48,30.48,0,0,1-6.37,7.92,38.7,38.7,0,0,1-6.89,5.34,31.15,31.15,0,0,1-9.65,4,35.42,35.42,0,0,1-9.12.69c-1.14,0-2.09-.11-2.76-.17Z"/><circle class="a" cx="316.05" cy="312.45" r="7.48"/><circle class="b" cx="153.2" cy="270.83" r="8.27"/><circle class="a" cx="153.2" cy="270.83" r="4.02"/><circle class="b" cx="143.98" cy="289.24" r="8.27"/><circle class="a" cx="143.98" cy="289.24" r="4.02"/><circle class="b" cx="134.77" cy="307.65" r="8.27"/><circle class="a" cx="134.77" cy="307.65" r="4.02"/><polygon class="a" points="114.54 171.17 142.7 192.45 147.05 157.42 114.54 171.17"/><polygon class="a" points="127.43 125.11 141.49 157.49 162.5 129.12 127.43 125.11"/><polygon class="a" points="168.87 92.37 162.03 127 195.44 115.61 168.87 92.37"/><polygon class="a" points="227.57 93.06 199.92 115 232.75 127.97 227.57 93.06"/><polygon class="a" points="263.99 121.8 229.71 130.21 254.14 155.69 263.99 121.8"/><polygon class="a" points="266.95 179.12 242.53 153.65 232.67 187.54 266.95 179.12"/><path class="b" d="M135.16,180.2a7.61,7.61,0,0,1-3.77-.88,6.06,6.06,0,0,1-2.46-2.53,8.29,8.29,0,0,1-.86-3.88v0a8.18,8.18,0,0,1,.87-3.89,6.1,6.1,0,0,1,2.46-2.52,8.47,8.47,0,0,1,7.54,0A6,6,0,0,1,141.4,169a8.14,8.14,0,0,1,.87,3.88v0a8.17,8.17,0,0,1-.87,3.88,6,6,0,0,1-2.45,2.52A7.72,7.72,0,0,1,135.16,180.2Zm0-3.38a2.5,2.5,0,0,0,1.54-.48,3.11,3.11,0,0,0,1-1.35,5.7,5.7,0,0,0,.35-2.08v0a5.47,5.47,0,0,0-.36-2.09,3.11,3.11,0,0,0-1-1.35,2.59,2.59,0,0,0-1.53-.47,2.51,2.51,0,0,0-1.51.47,3,3,0,0,0-1,1.34,5.5,5.5,0,0,0-.35,2.1v0a5.55,5.55,0,0,0,.35,2.09,3.11,3.11,0,0,0,1,1.35A2.54,2.54,0,0,0,135.16,176.82Zm3.22,4.18-4.63-6.68h3.63L142,181Z"/><path class="b" d="M139.75,144.45V130.36h4.14v14.09Zm2.08-3.84v-3.06h3.24a2.35,2.35,0,0,0,1.6-.51,1.92,1.92,0,0,0,.58-1.52v0a1.88,1.88,0,0,0-.58-1.52,2.34,2.34,0,0,0-1.6-.5h-3.24v-3.12h4.22a6,6,0,0,1,2.86.64,4.5,4.5,0,0,1,1.86,1.78,5.4,5.4,0,0,1,.66,2.72v0a5.3,5.3,0,0,1-.66,2.7,4.45,4.45,0,0,1-1.86,1.76,6.1,6.1,0,0,1-2.86.63Z"/><path class="b" d="M169.78,119.6l4.6-14.09h3.9v3.36h-1.35l-2.8,10.73Zm2.89-2.8.86-2.92h6.89l.86,2.92Zm7.14,2.8L177,108.87v-3.36h2.56l4.6,14.09Z"/><path class="b" d="M220,118a7.55,7.55,0,0,1-3.72-.86,5.74,5.74,0,0,1-2.41-2.49,8.41,8.41,0,0,1-.85-4h0a8.51,8.51,0,0,1,.85-4,5.8,5.8,0,0,1,2.42-2.48,7.62,7.62,0,0,1,3.71-.86,7.36,7.36,0,0,1,3.44.77,5.89,5.89,0,0,1,2.29,2.1,5.58,5.58,0,0,1,.82,3v.09h-4v-.12a3,3,0,0,0-.37-1.25,2.34,2.34,0,0,0-.87-.87,2.64,2.64,0,0,0-1.33-.32,2.35,2.35,0,0,0-1.46.46,2.86,2.86,0,0,0-1,1.33,5.73,5.73,0,0,0-.34,2.11h0a5.87,5.87,0,0,0,.34,2.13,2.79,2.79,0,0,0,1,1.34,2.4,2.4,0,0,0,1.47.46,2.62,2.62,0,0,0,1.27-.3,2.37,2.37,0,0,0,.9-.85,2.85,2.85,0,0,0,.41-1.3V112h4v.11a5.41,5.41,0,0,1-.84,3,5.78,5.78,0,0,1-2.31,2.09A7.31,7.31,0,0,1,220,118Z"/><path class="b" d="M243.78,143V128.91h9.94v3.28h-5.8v2.24h5.44v3h-5.44v2.24h5.8V143Z"/><path class="b" d="M241,179.63V165.54h6.34a7.53,7.53,0,0,1,3.07.55,4.12,4.12,0,0,1,1.89,1.64,5.1,5.1,0,0,1,.64,2.63v0a4.8,4.8,0,0,1-.62,2.41,3.79,3.79,0,0,1-1.65,1.6l2.68,5.24h-4.63L246.48,175h-1.35v4.63Zm4.14-7.55h1.73a1.86,1.86,0,0,0,1.34-.48,1.63,1.63,0,0,0,.51-1.25v0a1.62,1.62,0,0,0-.52-1.25,1.88,1.88,0,0,0-1.33-.49h-1.73Z"/><polyline class="i" points="157.65 183.06 307.29 342.4 366.65 342.4 366.35 342.4 382.7 342.4 217.91 171.41"/><path class="i" d="M235.68,189.75a44.33,44.33,0,0,0,12.06-.18,30.73,30.73,0,0,0,11.37-3.44,28,28,0,0,0,8.78-7.75,29.53,29.53,0,0,0,5-11.37c1.25-5.36.88-9.4.17-17.23A63.31,63.31,0,0,0,271,136.87a56.74,56.74,0,0,0-6-13.61,61.32,61.32,0,0,0-9.13-11.54,82.29,82.29,0,0,0-13.61-11c-5.64-3.88-9.82-6.76-16-9.13a61.77,61.77,0,0,0-15-3.44,91.15,91.15,0,0,0-32,.69,83.73,83.73,0,0,0-20.32,6.89A78.19,78.19,0,0,0,129.57,121a82.08,82.08,0,0,0-12,26.7,99.44,99.44,0,0,0-3.1,20c-.46,6.26-.93,12.64.34,21a89.42,89.42,0,0,0,5.34,18.95c3,8.13,5.4,11.86,6.2,13.09a63.73,63.73,0,0,0,6.89,8.44,129.8,129.8,0,0,0,13.44,12.92,84,84,0,0,0,13.6,9.65,71.69,71.69,0,0,0,22.57,7.57,74,74,0,0,0,29.28-1.2V336a161.41,161.41,0,0,1-59.48-4.37c-26-6.92-43.41-18.6-52.82-25-9.88-6.75-25.49-17.61-40.2-37.21a157.1,157.1,0,0,1-25.72-53.74A169.7,169.7,0,0,1,29.5,158a166.55,166.55,0,0,1,12.86-51.22,157.27,157.27,0,0,1,26-40c7.32-8.52,21.07-24.24,44.33-37.21a150.35,150.35,0,0,1,42-15.84c14.81-3.09,27.79-3.31,36.28-3.45s15.21.21,19.06.46c7.64.5,21.73,1.43,36.06,5.28,21.79,5.86,36.73,16.48,46.62,23.66,20.19,14.63,31.67,29.55,34.45,33.3a151.17,151.17,0,0,1,10.8,16.76A155.2,155.2,0,0,1,357,176.83a150.53,150.53,0,0,1-42.26,93.24"/><circle class="b" cx="198.48" cy="180.79" r="21.64"/><circle class="a" cx="198.48" cy="180.79" r="13.4"/></svg>