<?xml version="1.0" encoding="utf-8"?>
<!-- Generator: Adobe Illustrator 25.2.0, SVG Export Plug-In . SVG Version: 6.00 Build 0)  -->
<svg version="1.1" xmlns="http://www.w3.org/2000/svg" xmlns:xlink="http://www.w3.org/1999/xlink" x="0px" y="0px"
	 viewBox="0 0 386.5 356.6" style="enable-background:new 0 0 386.5 356.6;" xml:space="preserve">
<style type="text/css">
	.st0{fill:#4F5368;}
	.st1{fill:none;}
	.st2{fill:#FFFFFF;}
</style>
<g id="Layer_1">
	<g id="MainLogo">
		<g>
			<polygon class="st0" points="173.4,44.6 169.6,24.4 152.3,35.6 			"/>
			<path class="st0" d="M150.5,63l4.1-9.5c-4-1.9-7.6-4.5-10.9-7.5L150.5,63z"/>
			<path class="st0" d="M159.5,58.3l1-2.4c-1-0.3-2-0.7-2.9-1.1l1.4,3.4C159.1,58.2,159.3,58.2,159.5,58.3z"/>
			<circle class="st0" cx="107.7" cy="264.9" r="7.5"/>
			<path class="st0" d="M152.4,62.2l-0.8,2c0.1,0.1,0.1,0.2,0.1,0.2c0.3,0.7,0,1.5-0.7,1.7c0,0,0,0,0,0c-0.1,0-0.2,0.1-0.3,0.1l0,0
				c-0.5,0.1-1-0.1-1.3-0.6l0,0l0,0c0-0.1-0.1-0.1-0.1-0.2c-0.2-0.4-0.1-0.9,0.1-1.2l-0.5-1.2c-1.1,0.9-1.2,2.4-0.4,3.5
				c0.9,1.1,2.4,1.2,3.5,0.4c0.8-0.7,1.1-1.8,0.7-2.9c-0.1-0.4-0.4-0.7-0.7-1L152.4,62.2z"/>
			<path class="st0" d="M304.3,93.2c0.3,0.5,0.9,0.6,1.4,0.2c0.5-0.3,0.6-0.9,0.2-1.4l-4.4-6.2c-0.3-0.5-0.9-0.6-1.4-0.2
				c-0.5,0.3-0.6,0.9-0.2,1.4L304.3,93.2z"/>
			<path class="st0" d="M290.5,113.3c0.9-1.4,0.5-3.2-0.9-4.2c-0.7-0.5-1.5-0.6-2.4-0.4l-5-7.1c0.9-1.4,0.5-3.2-0.8-4.2
				c-0.7-0.5-1.6-0.6-2.4-0.4l-0.9-1.3c-0.3-0.4-0.8-0.6-1.3-0.3c-0.4,0.3-0.6,0.8-0.3,1.3c0,0,0.1,0.1,0.1,0.1l0.9,1.3
				c-0.9,1.4-0.5,3.2,0.9,4.2c0.7,0.5,1.6,0.6,2.4,0.4l5,7.1c-0.9,1.4-0.6,3.2,0.8,4.2c0.7,0.5,1.6,0.6,2.4,0.4l0.9,1.3
				c0.3,0.4,0.9,0.6,1.3,0.3c0,0,0,0,0,0c0.4-0.3,0.5-0.9,0.2-1.3c0,0,0,0,0,0L290.5,113.3z M280.6,100.7c-0.5,0.3-1.1,0.2-1.4-0.2
				c-0.3-0.5-0.2-1.1,0.2-1.4l0,0c0.5-0.3,1.1-0.2,1.4,0.2C281.2,99.7,281.1,100.3,280.6,100.7L280.6,100.7L280.6,100.7z
				 M288.8,112.3c-0.4,0.3-1.1,0.2-1.4-0.2c0,0,0,0,0,0c-0.3-0.5-0.2-1.1,0.3-1.4c0.5-0.3,1.1-0.2,1.4,0.3
				C289.4,111.4,289.3,112,288.8,112.3z"/>
			<path class="st0" d="M302.5,108.1c-0.3-0.4-0.8-0.6-1.3-0.3c-0.4,0.3-0.6,0.8-0.3,1.3c0,0,0.1,0.1,0.1,0.1l2.5,3.6l-0.5,0.4
				l-2.5-3.6c-0.3-0.5-0.9-0.6-1.4-0.2c-0.5,0.3-0.6,0.9-0.2,1.4l2.5,3.6l-0.5,0.4l-2.5-3.6c-0.3-0.5-0.9-0.6-1.4-0.2
				c-0.5,0.3-0.6,0.9-0.2,1.4l2.5,3.6l-0.8,0.6c-0.5,0.3-0.7,0.9-0.4,1.4l0.7,1l-3.4,2.4c-0.4,0.3-0.6,0.8-0.3,1.3s0.8,0.6,1.3,0.3
				c0,0,0.1-0.1,0.1-0.1l3.4-2.4l0.5,0.7l-3.4,2.4c-0.4,0.3-0.5,0.9-0.2,1.3c0.3,0.4,0.9,0.5,1.3,0.2l0,0l3.4-2.4l0.3,0.4l-3.4,2.4
				c-0.5,0.3-0.6,0.9-0.2,1.4c0.3,0.5,0.9,0.6,1.4,0.2l3.4-2.4l0.7,1c0.4,0.4,1,0.4,1.5,0.1l0.8-0.6l2.5,3.6
				c0.3,0.5,0.9,0.6,1.4,0.2c0.5-0.3,0.6-0.9,0.2-1.4l-2.5-3.5l0.5-0.4l2.5,3.6c0.3,0.5,0.9,0.6,1.4,0.2c0.5-0.3,0.6-0.9,0.2-1.4
				l0,0l-2.5-3.6l0.5-0.4l2.5,3.6c0.3,0.4,0.9,0.5,1.3,0.2s0.5-0.9,0.2-1.3l0,0l-2.5-3.6l1.1-0.8c0.4-0.3,0.5-0.8,0.3-1.2
				c0,0,0,0,0,0l-0.7-1l3.5-2.5c0.5-0.3,0.6-0.9,0.2-1.4c-0.3-0.5-0.9-0.6-1.4-0.2l-3.5,2.5l-0.3-0.4l3.5-2.5
				c0.4-0.3,0.6-0.9,0.3-1.3c-0.3-0.4-0.9-0.6-1.3-0.3c0,0,0,0-0.1,0l-3.5,2.5l-0.5-0.7l3.5-2.5c0.4-0.3,0.6-0.8,0.3-1.3
				s-0.8-0.6-1.3-0.3c0,0-0.1,0.1-0.1,0.1l-3.5,2.5l-0.7-1c-0.3-0.4-0.9-0.5-1.3-0.2c0,0,0,0,0,0l-1.1,0.8L302.5,108.1z
				 M306.4,113.1l0.6,0.8l0,0l0,0l1.5,2l0,0v0.1l1.5,2.1l0,0l0,0l0.6,0.9l-6.2,4.4l-4.3-6.1L306.4,113.1z"/>
			<path class="st0" d="M292.8,101.3l-4.4-6.2c-0.3-0.4-0.9-0.5-1.3-0.2s-0.5,0.9-0.2,1.3l4.4,6.2c0.3,0.4,0.8,0.6,1.3,0.3
				c0.4-0.3,0.6-0.8,0.3-1.3C292.9,101.4,292.8,101.4,292.8,101.3L292.8,101.3z"/>
			<path class="st0" d="M294.6,100.1c0.3,0.4,0.9,0.5,1.3,0.2c0.4-0.3,0.5-0.9,0.2-1.3l-4.4-6.2c-0.3-0.4-0.9-0.6-1.3-0.3
				c-0.4,0.3-0.6,0.9-0.3,1.3c0,0,0,0,0,0.1L294.6,100.1z"/>
			<path class="st0" d="M297.7,97.8c0.3,0.4,0.9,0.5,1.4,0.2c0.4-0.3,0.6-0.9,0.2-1.4l-4.4-6.2c-0.3-0.5-0.9-0.6-1.4-0.2
				c-0.5,0.3-0.6,0.9-0.2,1.4l0,0L297.7,97.8z"/>
			<path class="st0" d="M301,95.5c0.3,0.4,0.9,0.5,1.4,0.2c0.4-0.3,0.6-0.9,0.3-1.4l-4.4-6.2c-0.3-0.5-0.9-0.6-1.4-0.2
				c-0.5,0.3-0.6,0.9-0.2,1.4L301,95.5z"/>
			<path class="st1" d="M212,262.9c-3.2,0.9-6.5,1.4-9.8,1.7c-3.7,0.3-7.3,0.3-11,0c-3.6-0.2-7.1-0.6-10.7-1.2
				c-7.4-1.3-14.6-3.7-21.4-6.9c-8.2-4-15.8-9.1-22.6-15.3c-14.4-12.5-24-29.5-27.5-48.2c-2-10.9-1.4-19.3-0.9-26.7
				c0.6-7.1,1.3-15.4,4.8-25.7c2.7-7.9,6.6-15.3,11.4-22.1c6.8-9.6,15.5-17.7,25.5-23.9c9.5-6,20.1-10.1,31.2-12.1
				c10.8-1.8,21.7-1.5,32.4,0.9c7.4,1.5,22.7,4.7,37.9,16.7c2.8,2.2,16.5,13.3,22.7,28.8c1.6,4.2,2.9,8.5,3.8,12.9
				c0.8,4.5,1.2,9.2,1.2,13.8c0.2,4.2-0.1,8.3-0.9,12.4c-0.5,3.1-1.5,6.2-2.9,9c-1.7,3-3.8,5.7-6.4,7.9c-2.1,2-4.4,3.8-6.9,5.3
				c-3,1.9-6.2,3.2-9.6,4c-3,0.6-6.1,0.8-9.1,0.7c-1.1,0-2.1-0.1-2.8-0.2"/>
			<path class="st1" d="M212,262.9c-3.2,0.9-6.5,1.4-9.8,1.7c-3.7,0.3-7.3,0.3-11,0c-3.6-0.2-7.1-0.6-10.7-1.2
				c-7.4-1.3-14.6-3.7-21.4-6.9c-8.2-4-15.8-9.1-22.6-15.3c-14.4-12.5-24-29.5-27.5-48.2c-2-10.9-1.4-19.3-0.9-26.7
				c0.6-7.1,1.3-15.4,4.8-25.7c2.7-7.9,6.6-15.3,11.4-22.1c6.8-9.6,15.5-17.7,25.5-23.9c9.5-6,20.1-10.1,31.2-12.1
				c10.8-1.8,21.7-1.5,32.4,0.9c7.4,1.5,22.7,4.7,37.9,16.7c2.8,2.2,16.5,13.3,22.7,28.8c1.6,4.2,2.9,8.5,3.8,12.9
				c0.8,4.5,1.2,9.2,1.2,13.8c0.2,4.2-0.1,8.3-0.9,12.4c-0.5,3.1-1.5,6.2-2.9,9c-1.7,3-3.8,5.7-6.4,7.9c-2.1,2-4.4,3.8-6.9,5.3
				c-3,1.9-6.2,3.2-9.6,4c-3,0.6-6.1,0.8-9.1,0.7c-1.1,0-2.1-0.1-2.8-0.2"/>
			<circle class="st0" cx="198" cy="180.7" r="13.4"/>
			<circle class="st0" cx="354.5" cy="330" r="4"/>
			<g>
				<path class="st0" d="M132.5,311.2c2,1,4.4,0.2,5.4-1.8c1-2,0.2-4.4-1.8-5.4c-2-1-4.4-0.2-5.3,1.8
					C129.7,307.8,130.5,310.2,132.5,311.2C132.5,311.2,132.5,311.2,132.5,311.2z"/>
				<circle class="st0" cx="324.4" cy="164.9" r="7.5"/>
				<path class="st0" d="M141.7,292.8c2,1,4.4,0.2,5.4-1.8c1-2,0.2-4.4-1.8-5.4c-2-1-4.3-0.2-5.3,1.8
					C138.9,289.4,139.7,291.8,141.7,292.8C141.7,292.8,141.7,292.8,141.7,292.8z"/>
				<path class="st0" d="M154,274.6c2.1-0.7,3.2-3,2.5-5.1c-0.7-2.1-3-3.2-5.1-2.5c-2.1,0.7-3.2,3-2.5,5
					C149.6,274.2,151.9,275.3,154,274.6C154,274.6,154,274.6,154,274.6z"/>
				<path class="st0" d="M185.9,264.2v67.1c1.2,0.1,2.4,0.1,3.5,0.1v-66.9C188.5,264.5,187.3,264.4,185.9,264.2z"/>
				<path class="st0" d="M193.5,264.8v66.7c1.2,0,2.4,0,3.5,0v-66.6C195.8,264.9,194.6,264.8,193.5,264.8z"/>
				<path class="st0" d="M202.1,264.6l-1.1,0.1v66.6c1.2-0.1,2.4-0.1,3.5-0.2v-66.7C203.8,264.5,203,264.6,202.1,264.6z"/>
				<path class="st0" d="M84.5,227c-2.1-0.5-4.3,0.8-4.8,2.9s0.8,4.3,2.9,4.8c2.1,0.5,4.3-0.8,4.8-2.9C88,229.8,86.7,227.6,84.5,227
					C84.6,227.1,84.6,227.1,84.5,227z"/>
				<path class="st0" d="M44.3,187.6c0,0.6,0.4,1,1,1H51v-1.9h-5.8C44.7,186.7,44.3,187.1,44.3,187.6z"/>
				<path class="st0" d="M44.3,179.6c0,0.6,0.4,1,1,1H51v-1.9h-5.8C44.7,178.7,44.3,179.1,44.3,179.6z"/>
				<path class="st0" d="M44.3,163.5c0,0.6,0.4,1,1,1H51v-1.9h-5.8C44.7,162.6,44.3,163,44.3,163.5z"/>
				<path class="st0" d="M44.3,171.5c0,0.6,0.4,1,1,1H51v-1.9h-5.8C44.7,170.6,44.3,171,44.3,171.5z"/>
				<path class="st0" d="M102.1,187.6c0-0.5-0.4-1-0.9-1h-5.7v1.9h5.7C101.6,188.5,102,188.1,102.1,187.6z"/>
				<path class="st0" d="M102.1,163.5c0-0.5-0.4-0.9-0.9-0.9h-5.7v1.9h5.7C101.6,164.4,102,164,102.1,163.5z"/>
				<path class="st0" d="M102.1,179.6c0-0.5-0.4-1-0.9-1h-5.7v1.9h5.7C101.6,180.5,102,180.1,102.1,179.6z"/>
				<path class="st0" d="M44.3,155.5c0,0.6,0.4,1,1,1H51v-1.9h-5.8C44.7,154.6,44.3,155,44.3,155.5z"/>
				<path class="st0" d="M102.1,155.5c0-0.5-0.4-1-0.9-1h-5.7v1.9h5.7C101.6,156.4,102,156,102.1,155.5z"/>
				<path class="st0" d="M102.1,171.5c0-0.5-0.4-1-0.9-1h-5.7v1.9h5.7C101.6,172.4,102,172,102.1,171.5z"/>
				<path class="st0" d="M58.1,143.6c0.2-0.5-0.1-1.1-0.7-1.3c-0.5-0.2-1.1,0.1-1.3,0.7c-0.1,0.2-0.1,0.4,0,0.6v5.7h1.9V143.6z"/>
				<path class="st0" d="M64.2,199.5c-0.2,0.5,0.1,1.1,0.7,1.3s1.1-0.1,1.3-0.7c0.1-0.2,0.1-0.4,0-0.6v-5.7h-1.9V199.5z"/>
				<path class="st0" d="M72.2,199.5c0.2,0.5,0.7,0.8,1.2,0.7c0.3-0.1,0.6-0.4,0.7-0.7v-5.7h-1.9V199.5z"/>
				<path class="st0" d="M56.2,199.5c-0.2,0.5,0.1,1.1,0.7,1.3c0.5,0.2,1.1-0.1,1.3-0.7c0.1-0.2,0.1-0.4,0-0.6v-5.7h-1.9V199.5z"/>
				<path class="st0" d="M69.1,181c1.1,2,2.5,3.2,4.1,3.2s3-1.2,4.1-3.2c-1.4-0.2-2.8-0.6-4.1-1.1C71.9,180.4,70.5,180.8,69.1,181z"
					/>
				<path class="st0" d="M77,165c0.6,0.4,1.2,0.7,1.8,1.1c-0.2-0.9-0.5-1.8-0.9-2.7c-0.9,0.1-1.9,0.3-2.8,0.6
					C75.7,164.3,76.3,164.6,77,165z"/>
				<path class="st0" d="M83.4,170.3c1.2-1.9,1.5-3.8,0.8-5.1s-2.4-1.9-4.6-1.9h-0.2c0.5,1.3,0.9,2.7,1.1,4.1
					C81.5,168.2,82.5,169.2,83.4,170.3z"/>
				<path class="st0" d="M82.6,171.5c-0.6-0.8-1.2-1.5-1.9-2.1c0,0.7,0.1,1.4,0.1,2.1s0,1.4-0.1,2.1C81.4,173,82,172.3,82.6,171.5z"
					/>
				<path class="st0" d="M80.4,175.7c-0.2,1.4-0.6,2.8-1.1,4.1c2.4,0,4.1-0.6,4.8-1.9s0.4-3.2-0.8-5.1
					C82.5,173.9,81.5,174.8,80.4,175.7z"/>
				<path class="st0" d="M71.3,164c-0.9-0.3-1.8-0.5-2.8-0.6c-0.4,0.9-0.6,1.8-0.9,2.7c0.6-0.4,1.2-0.8,1.8-1.1S70.6,164.3,71.3,164
					z"/>
				<path class="st0" d="M77.3,162c-1.1-2-2.5-3.2-4.1-3.2s-3,1.2-4.1,3.2c1.4,0.2,2.8,0.6,4.1,1.1C74.5,162.6,75.9,162.3,77.3,162z
					"/>
				<circle class="st0" cx="73.2" cy="171.5" r="2"/>
				<path class="st0" d="M67.2,175c0.9,0.7,1.9,1.4,2.8,1.9c1,0.6,2,1.1,3.1,1.5c1.1-0.4,2.1-0.9,3.1-1.5c1-0.6,1.9-1.2,2.9-1.9
					c0.3-2.3,0.3-4.6,0-6.9c-0.9-0.7-1.9-1.4-2.9-1.9c-1-0.6-2-1.1-3.1-1.5c-1.1,0.4-2.1,0.9-3.1,1.5c-1,0.6-2,1.2-2.9,1.9
					c-0.2,1.1-0.2,2.3-0.2,3.4C67,172.7,67.1,173.9,67.2,175z M73.2,168.2c1.9,0,3.4,1.5,3.4,3.3c0,1.9-1.5,3.4-3.3,3.4
					s-3.4-1.5-3.4-3.4c0,0,0,0,0,0C69.9,169.7,71.3,168.2,73.2,168.2L73.2,168.2z"/>
				<path class="st0" d="M65.9,167.3c0.2-1.4,0.6-2.8,1.1-4.1c-2.3,0-4,0.6-4.8,1.9s-0.5,3.1,0.8,5.1
					C63.8,169.2,64.8,168.2,65.9,167.3z"/>
				<path class="st0" d="M75.1,179.1c0.9,0.3,1.9,0.5,2.8,0.6c0.4-0.9,0.7-1.8,0.9-2.7c-0.6,0.4-1.2,0.8-1.8,1.1
					S75.7,178.8,75.1,179.1z"/>
				<path class="st0" d="M62.9,172.7c-1.2,1.9-1.5,3.8-0.8,5.1s2.6,2,4.8,1.9c-0.5-1.3-0.9-2.7-1.1-4.1
					C64.8,174.8,63.8,173.8,62.9,172.7z"/>
				<path class="st0" d="M63.8,171.5c0.6,0.8,1.2,1.5,1.9,2.1c-0.1-0.7-0.1-1.4-0.1-2.1s0-1.4,0.1-2.1
					C65,170.1,64.3,170.8,63.8,171.5z"/>
				<path class="st0" d="M69.4,178.1c-0.6-0.4-1.2-0.7-1.8-1.1c0.2,0.9,0.5,1.8,0.9,2.7c0.9-0.1,1.9-0.3,2.8-0.6
					C70.6,178.8,70,178.5,69.4,178.1z"/>
				<path class="st0" d="M56.6,188.1h33.1V155H56.6V188.1z M61,164.5c1.1-1.9,3.6-2.8,6.6-2.6c1.4-2.7,3.3-4.4,5.6-4.4
					s4.2,1.7,5.6,4.4c3.1-0.2,5.5,0.7,6.6,2.6s0.6,4.5-1.1,7c1.7,2.6,2.2,5.1,1.1,7.1c-1,1.7-3,2.6-5.8,2.6h-0.8
					c-1.4,2.7-3.3,4.4-5.6,4.4s-4.2-1.7-5.6-4.4c-0.3,0-0.5,0-0.8,0c-2.7,0-4.8-0.9-5.8-2.6c-1.1-1.9-0.6-4.5,1.1-7.1l-0.1-0.1
					C60.3,168.8,59.9,166.3,61,164.5z"/>
				<path class="st0" d="M79.6,192.4h11.3c1.7,0,3.1-1.4,3.1-3.1l0,0V186l0,0v-4.7l0,0V178l0,0v-4.8l0,0v-3.3l0,0v-4.7l0,0v-3.3l0,0
					v-4.7l0,0v-3.3l0,0c0-1.7-1.4-3.1-3.1-3.1H55.5c-1.7,0-3.1,1.4-3.1,3.1l0,0v3.3l0,0v4.7l0,0v3.3l0,0v4.7l0,0v3.3l0,0v4.7l0,0
					v3.3l0,0v4.8l0,0v3.3l0,0c0,1.7,1.4,3.1,3.1,3.1L79.6,192.4L79.6,192.4z M56,189.5c-0.4,0-0.7-0.3-0.7-0.7c0,0,0,0,0,0v-34.5
					c0-0.4,0.3-0.7,0.7-0.7c0,0,0,0,0,0h34.4c0.4,0,0.7,0.3,0.7,0.7l0,0v34.5c0,0.4-0.3,0.7-0.7,0.7c0,0,0,0,0,0H56z"/>
				
					<rect x="227.9" y="40.9" transform="matrix(0.3675 -0.93 0.93 0.3675 102.12 257.1013)" class="st0" width="24.4" height="25.1"/>
				
					<rect x="246.6" y="18.7" transform="matrix(0.3675 -0.93 0.93 0.3675 121.5847 252.7197)" class="st0" width="0" height="36.5"/>
				<path class="st0" d="M351,176.7c2.2-29.2-4.2-58.5-18.4-84.1c-3.1-5.6-6.6-11-10.4-16.2c-9.5-12.3-20.7-23.2-33.3-32.2
					c-9.6-6.9-24-17.2-45.1-22.9c-13.8-3.7-27.4-4.6-34.8-5.1c-3.7-0.2-10.3-0.6-18.4-0.4s-20.8,0.3-35.1,3.3
					c-14.2,3-27.9,8.2-40.6,15.3C92.4,47,79.1,62.1,72,70.4C61.8,81.9,53.3,94.9,47,109c-6.8,15.7-10.9,32.4-12.4,49.5
					c-1.8,18.7-0.4,37.5,4.2,55.7c4.9,18.7,13.3,36.4,24.8,51.9c14.2,18.9,29.3,29.4,38.8,36c9.1,6.2,25.9,17.5,51,24.2
					c6.9,1.8,13.9,3.2,20.9,4v-68.2c-5.3-1.4-10.4-3.2-15.3-5.6c-8.2-4-15.8-9.1-22.6-15.3c-14.3-12.5-23.9-29.5-27.3-48.2
					c-2-10.9-1.4-19.3-0.9-26.7c0.6-7.1,1.3-15.4,4.8-25.7c2.7-7.9,6.6-15.3,11.4-22.1c6.8-9.6,15.5-17.7,25.5-23.9
					c9.5-6,20.1-10.1,31.2-12.1c10.8-1.8,21.7-1.5,32.4,0.9c7.4,1.5,22.7,4.7,37.9,16.7c2.8,2.2,16.5,13.3,22.7,28.8
					c1.6,4.2,2.9,8.5,3.8,12.9c0.8,4.5,1.2,9.2,1.2,13.8c0.2,4.2-0.1,8.3-0.9,12.4c-0.5,3.1-1.5,6.2-2.9,9c-1.7,3-3.8,5.7-6.4,7.9
					c-2.1,2-4.4,3.8-6.9,5.3c-3,1.9-6.2,3.2-9.6,4c-3,0.6-6.1,0.8-9.1,0.7c-1.1,0-2.1-0.1-2.8-0.2l69.6,72.1
					C333.9,242.5,348.3,210.6,351,176.7z M111.6,78.1c0.7-1.8,2.8-2.7,4.6-1.9c1.8,0.7,2.7,2.8,1.9,4.6c-0.7,1.8-2.8,2.7-4.6,1.9
					c0,0,0,0,0,0C111.7,81.9,110.8,79.9,111.6,78.1z M76.4,98.8c0-5.3,2.2-10.3,6.1-13.9c0.4,1.1,1.1,2.1,2,2.8
					c-6.1,6.1-6.2,16-0.1,22.1c6.1,6.1,16,6.2,22.1,0.1c6.1-6.1,6.2-16,0.1-22.1c-2.9-2.9-6.8-4.6-10.9-4.6c0-0.2,0-0.4,0-0.6
					c0-1-0.2-1.9-0.6-2.8h0.4c10.5,0,19,8.5,19,19s-8.5,19-19,19S76.4,109.3,76.4,98.8L76.4,98.8L76.4,98.8z M78.8,120.6
					c-1.4,1.4-3.6,1.4-5,0c-1.4-1.4-1.4-3.6,0-5c1.4-1.4,3.6-1.4,5,0c0,0,0,0,0,0c1.4,1.3,1.6,3.5,0.3,4.9
					C79,120.6,78.9,120.6,78.8,120.6z M97.8,94.1l2.5-2.5l2.4,2.4l-2.5,2.5c0.1,0.2,0.2,0.4,0.3,0.7h3.6v3.4h-3.6
					c-0.1,0.2-0.2,0.4-0.3,0.7l2.5,2.5l-2.4,2.4l-2.5-2.5c-0.2,0.1-0.4,0.2-0.6,0.3v3.6h-3.4v-3.6c-0.2-0.1-0.4-0.2-0.6-0.3
					l-2.5,2.5l-2.4-2.4l2.5-2.5c-0.1-0.2-0.2-0.4-0.3-0.7h-3.5v-3.4h3.5c0.1-0.2,0.2-0.5,0.3-0.7L88.1,94l2.4-2.4l2.5,2.5
					c0.2-0.1,0.5-0.2,0.7-0.3v-3.5h3.4v3.5C97.4,93.9,97.6,94,97.8,94.1L97.8,94.1z M89.6,86c-1.9,0.5-3.8-0.7-4.3-2.6
					c-0.5-1.9,0.7-3.8,2.6-4.3c1.9-0.5,3.8,0.7,4.3,2.6C92.7,83.6,91.6,85.5,89.6,86C89.7,86,89.6,86,89.6,86z M74.9,78.3
					c9.5-9.5,24.2-11.2,35.6-4.2c-0.9,0.7-1.6,1.7-2,2.7c-12.1-7.2-27.8-3.2-35.1,8.9c-4.8,8-4.8,18.1,0,26.1
					c-1.1,0.5-2,1.2-2.7,2.2C63.7,102.6,65.5,87.8,74.9,78.3L74.9,78.3z M73.2,201.8c-1.3,0-2.3-1-2.3-2.3v-5.7h-3.3v5.7
					c-0.1,1.3-1.2,2.3-2.5,2.2c-1.2-0.1-2.1-1-2.2-2.2v-5.7h-3.4v5.7c-0.1,1.3-1.2,2.3-2.5,2.2c-1.2-0.1-2.1-1-2.2-2.2v-5.8
					c-1.9-0.3-3.4-1.8-3.8-3.7h-5.8c-1.3-0.1-2.3-1.2-2.2-2.5c0.1-1.2,1-2.1,2.2-2.2H51V182h-5.8c-1.3,0-2.3-1.1-2.3-2.3
					c0-1.3,1-2.3,2.3-2.3H51v-3.4h-5.8c-1.3,0-2.3-1-2.3-2.3c0-1.3,1-2.3,2.3-2.3c0,0,0,0,0,0H51v-3.4h-5.8
					c-1.3-0.1-2.3-1.2-2.2-2.5c0.1-1.2,1-2.1,2.2-2.2H51v-3.4h-5.8c-1.3,0-2.3-1-2.3-2.3c0-1.3,1-2.3,2.3-2.3c0,0,0,0,0,0H51
					c0.3-1.9,1.8-3.4,3.7-3.7v-5.8c0-1.3,1-2.3,2.3-2.3s2.3,1,2.3,2.3v5.7h3.4v-5.7c-0.1-1.3,0.9-2.4,2.2-2.5
					c1.3-0.1,2.4,0.9,2.5,2.2c0,0.1,0,0.2,0,0.3v5.7h3.3v-5.7c0-1.3,1-2.3,2.3-2.3c1.3,0,2.3,1,2.3,2.3v5.7h3.3v-5.7
					c-0.1-1.3,0.9-2.4,2.2-2.5c1.3-0.1,2.4,0.9,2.5,2.2c0,0.1,0,0.2,0,0.3v5.7h3.3v-5.7c0-1.3,1-2.3,2.3-2.3c1.3,0,2.3,1,2.3,2.3
					v5.8c1.9,0.3,3.4,1.8,3.8,3.7h5.8c1.3,0.1,2.3,1.2,2.2,2.5c-0.1,1.2-1,2.1-2.2,2.2h-5.7v3.4h5.7c1.3,0.1,2.3,1.2,2.2,2.5
					c-0.1,1.2-1,2.1-2.2,2.2h-5.7v3.3h5.7c1.3,0.1,2.3,1.2,2.2,2.5c-0.1,1.2-1,2.1-2.2,2.2h-5.7v3.3h5.7c1.3,0.1,2.3,1.2,2.2,2.5
					c-0.1,1.2-1,2.1-2.2,2.2h-5.7v3.4h5.7c1.3,0.1,2.3,1.2,2.2,2.5c-0.1,1.2-1,2.1-2.2,2.2h-5.8c-0.3,1.9-1.8,3.4-3.7,3.7v5.8
					c-0.1,1.3-1.2,2.3-2.5,2.2c-1.2-0.1-2.1-1-2.2-2.2v-5.7h-3.3v5.7c-0.1,1.3-1.2,2.3-2.5,2.2c-1.2-0.1-2.1-1-2.2-2.2v-5.7h-3.3
					v5.7C75.5,200.8,74.5,201.8,73.2,201.8z M83.6,239.2c-4.6,0-8.3-3.7-8.3-8.3c0-4.6,3.7-8.3,8.3-8.3c4.6,0,8.3,3.7,8.3,8.3
					c0,0,0,0,0,0C91.8,235.5,88.1,239.2,83.6,239.2z M145.3,267.1c2-4.1,7-5.7,11.1-3.7c4.1,2,5.7,7,3.7,11.1c-2,4.1-7,5.7-11.1,3.7
					C144.9,276.1,143.3,271.2,145.3,267.1z M136.1,285.5c2-4.1,7-5.7,11.1-3.7c4.1,2,5.7,7,3.7,11.1c-2,4.1-7,5.7-11.1,3.7
					C135.7,294.6,134.1,289.6,136.1,285.5C136.1,285.5,136.1,285.5,136.1,285.5z M126.9,303.9c2-4.1,7-5.7,11.1-3.7
					c4.1,2,5.7,7,3.7,11.1c-2,4.1-7,5.7-11.1,3.7C126.5,313,124.9,308,126.9,303.9C126.9,303.9,126.9,303.9,126.9,303.9z
					 M123.1,264.9c0,8.5-6.9,15.4-15.4,15.4s-15.4-6.9-15.4-15.4c0-8.5,6.9-15.4,15.4-15.4c0,0,0,0,0,0
					C116.2,249.5,123.1,256.4,123.1,264.9C123.1,264.9,123.1,264.9,123.1,264.9L123.1,264.9z M115.9,119.3
					c-9.5,9.4-24.1,11.2-35.5,4.3c0.9-0.7,1.7-1.6,2.2-2.7c12.2,7.1,27.9,3,35-9.2c4.7-8,4.7-18-0.1-26c1.1-0.4,2-1.1,2.8-2
					C127.1,95.2,125.3,109.9,115.9,119.3L115.9,119.3z M161.9,56.3l-1.1,2.7c1.5,1.3,1.7,3.6,0.4,5.1c-0.2,0.3-0.5,0.5-0.8,0.7
					l0.7,1.8l7.5,7l-10.4-3.4l10.3,4.4c1,0.4,2.2,0.4,3.3,0l3.7-1.5l1.2,3l0.5,1.3l-30.6,12.3l-0.5-1.3l-0.7-1.8l18.4-7.4l-0.8-2
					l-14.6,5.9l2.4-13c2.9-0.1,5.1-2.5,5-5.4c-0.1-1.5-0.7-2.9-1.9-3.8l0.7-0.3l0.3-0.1l0.2-0.1c0.4-1,1.2-1.7,2.1-2.1l0.2-0.1
					l-1.6-4l-3.3,7.7c0.6,0.4,1,1,1.3,1.6c0.7,1.9-0.1,4-2,4.7c-1.9,0.7-4-0.1-4.7-2c-0.6-1.6-0.1-3.4,1.4-4.4l-7.5-18.7
					c-3.9-4.5-5.7-8.9-4.7-11.4l13.7,5.8l0.7-0.3l0.3,0.7l36.4,15.5C185.5,57.7,174.2,59.9,161.9,56.3L161.9,56.3z M187.7,52.5
					l-51-21.8l0.6-1.5l32.2-4.9L188.4,51L187.7,52.5z M336.9,218c-0.4,0.4-1,0.4-1.4,0c0,0,0,0,0,0l-1.8-1.8c-0.4-0.4-0.4-1,0-1.4
					c0.4-0.4,1-0.4,1.4,0l1.8,1.8C337.3,217,337.3,217.6,336.9,218C336.9,218,336.9,218,336.9,218z M340.8,211.5
					c-0.1,0.5-0.7,0.8-1.2,0.7c0,0,0,0,0,0l-2.5-0.7c-0.5-0.2-0.8-0.7-0.7-1.3c0.2-0.5,0.7-0.8,1.3-0.7l0,0l2.5,0.7
					C340.6,210.4,340.9,210.9,340.8,211.5C340.8,211.5,340.8,211.5,340.8,211.5L340.8,211.5z M335.3,200.5c-0.4,0.4-1,0.4-1.4,0
					c-0.4-0.4-0.4-1,0-1.4l1.8-1.8c0.4-0.4,1-0.4,1.4,0c0.4,0.4,0.4,1,0,1.4l0,0L335.3,200.5z M340.9,203.9c0.1,0.5-0.2,1.1-0.7,1.2
					c0,0,0,0,0,0l-2.5,0.6c-0.6,0.1-1.1-0.2-1.2-0.8s0.2-1.1,0.8-1.2l2.5-0.6C340.2,203,340.7,203.3,340.9,203.9
					C340.9,203.9,340.9,203.9,340.9,203.9L340.9,203.9z M339.8,165c0,8.5-6.9,15.4-15.4,15.4c-8.5,0-15.4-6.9-15.4-15.4
					c0-8.5,6.9-15.4,15.4-15.4c0,0,0,0,0,0C332.9,149.6,339.7,156.5,339.8,165L339.8,165z M331.4,194.6l-0.7,2.4
					c-0.1,0.5-0.7,0.9-1.2,0.7c0,0,0,0,0,0c-0.5-0.1-0.9-0.7-0.7-1.2c0,0,0,0,0,0l0.7-2.4c0.2-0.5,0.7-0.8,1.3-0.7
					S331.5,194.1,331.4,194.6z M324.2,197.7c-0.5,0.1-1.1-0.2-1.2-0.7c0,0,0,0,0,0l-0.6-2.5c-0.1-0.6,0.2-1.1,0.8-1.2
					s1.1,0.2,1.2,0.8l0.6,2.5C325.1,197,324.7,197.5,324.2,197.7C324.2,197.6,324.2,197.6,324.2,197.7L324.2,197.7z M316.8,206.9
					l-5.5-5.7l4-4.5l4.3,4.5l0.6,0.6L316.8,206.9z M321,202.7l4.8,4.9l-3,5.5l-5.2-5.4L321,202.7z M275.3,201.5l8-5l7.1,7.3
					l-7.1,5.9L275.3,201.5z M286.7,214.8l2.2,2.3l-6.9,6.6l-2.2-2.3L286.7,214.8z M284.2,195.8l6-3.8l6.3,6.5l-5.4,4.5L284.2,195.8z
					 M303.2,194.4l6.6,6.8l-4.4,5l-7.3-7.6L303.2,194.4z M297.4,197.8l-6.2-6.4l5.7-3.6l5.6,5.8L297.4,197.8z M304.1,193.7l4.6-3.8
					l5.9,6.1l-4,4.5L304.1,193.7z M303.3,192.9l-5.5-5.7l5.2-3.2l5,5.1L303.3,192.9z M297,186.4l-5.2-5.4l5.6-2.8l4.8,4.9L297,186.4
					z M296.1,187l-5.7,3.6l-5.7-5.9l6.2-3.1L296.1,187z M297.3,199.3l7.4,7.7l-4.7,5.3l-8.2-8.4L297.3,199.3z M305.5,207.8l6.3,6.5
					l-4,5.9l-7-7.2L305.5,207.8z M306.2,207l4.4-5l5.6,5.8l-3.8,5.6L306.2,207z M273.5,79.2l4.6,6.5c0.3,0.5,0.9,0.6,1.4,0.2
					c0.5-0.3,0.6-0.9,0.2-1.4l-4.6-6.5l0.4-0.3l2.9,4.1c0.3,0.5,0.9,0.6,1.4,0.2c0.5-0.3,0.6-0.9,0.2-1.4l-2.9-4.1l1.1-0.8l4.6,6.6
					c0.3,0.4,0.9,0.6,1.3,0.3c0.4-0.3,0.6-0.9,0.3-1.3c0,0,0,0,0-0.1l-4.6-6.5l3.4-2.4l6.6,9.4l-4.8,3.4c-0.9-0.5-2-0.5-2.8,0.1
					c-0.8,0.6-1.2,1.6-1,2.7l-7,5l-6.7-9.4l3.3-2.3l2.9,4.1c0.4,0.4,1,0.4,1.4,0c0.3-0.3,0.4-0.8,0.2-1.2l-2.9-4.1L273.5,79.2z
					 M284.2,87.8c-0.3,0.2-0.6,0.1-0.8-0.1c0,0,0,0,0,0c-0.2-0.3-0.1-0.6,0.1-0.8c0.3-0.2,0.7-0.1,0.9,0.1S284.4,87.6,284.2,87.8
					L284.2,87.8z M252.9,76.2l-1.2,3.1l-2.1-0.8l-2.9,7.4l-1.9-0.7l2.9-7.4l-2.1-0.8l-2.9,7.4l-1.9-0.7l2.9-7.4l-2.1-0.8l-2.9,7.4
					l-1.8-0.8l2.9-7.4l-2.1-0.8l-2.9,7.4l-1.9-0.7l3-7.4l-2.1-0.8l-2.9,7.4l-1.9-0.7l2.9-7.4l-2-0.8l-3,7.4l-1.9-0.7l3-7.4l-2.1-0.8
					l-2.9,7.4l-1.9-0.7l2.9-7.4l-2.1-0.8l-2.9,7.4l-1.9-0.7l2.9-7.4l-2.1-0.8l-2.9,7.4l-1.9-0.7l2.9-7.4l-2.3-0.9l1.2-3.1l-6.9-2.7
					l0.7-1.9l6.9,2.7l0.8-2.1l-6.9-2.7l0.7-1.9l6.9,2.7l0.8-2.1l-6.9-2.7l0.7-1.9l6.8,2.7l0.8-2.1l-6.8-2.7l0.7-1.9l6.9,2.7l0.8-2.1
					l-6.9-2.7l0.7-1.9l6.9,2.7l0.8-2.1l-6.9-2.7l0.7-1.9l6.9,2.7l0.8-2.1l-7-2.7l0.7-1.9l6.9,2.7l0.8-2.1l-6.9-2.7l0.7-1.9l6.9,2.8
					l1.7-4.3l2.3,0.9l3.2-7.9l1.9,0.7l-3.1,7.9l2.1,0.8l3.1-7.9l1.9,0.7l-3.1,7.9l2.1,0.8l3.1-7.9l1.9,0.7l-3.1,7.9l2.1,0.8l3.1-7.9
					l1.9,0.7l-3.2,7.9l2.1,0.8l3.1-7.9l1.9,0.7l-3.1,7.9l2.1,0.8l3.1-7.9l1.9,0.7l-3.1,7.9l2.1,0.8l3.1-7.9l1.9,0.7l-3.1,7.9
					l2.1,0.8l3.1-7.9l1.9,0.7l-3.1,7.9l2.1,0.8l3.1-7.9l1.9,0.7l-3.1,7.9l2.1,0.8l-1.7,4.3l7.8,3.1l-0.7,1.9l-7.8-3.1l-0.8,2.1
					l7.8,3.1l-0.8,1.9l-7.8-3.1l-0.8,2.1l7.8,3.1l-0.7,1.9l-7.8-3.1l-0.8,2.1l7.8,3.1l-0.7,1.9l-7.8-3.1l-0.8,2.1l7.8,3.1l-0.7,1.9
					l-7.8-3.1l-0.8,2.1l7.8,3.1l-0.7,1.9l-7.8-3.1l-0.8,2.1l7.8,3.1l-0.7,1.9l-7.8-3.1l-0.8,2.1l7.8,3.1l-0.7,1.9L252.9,76.2z
					 M271,101.3c2-2.1,1.9-5.3-0.1-7.3c-1.5-1.5-3.8-1.9-5.7-1l-3.7-5.3l4.6-3.2l7.2,10.2c0.4,0.4,1,0.5,1.5,0.2l7.7-5.5
					c1.2,0.8,2.8,0.4,3.5-0.8c0.4-0.6,0.5-1.3,0.3-1.9l5.6-4c0.4-0.3,0.5-0.9,0.1-1.3c0,0,0,0,0,0l-7.2-10.2l10.6-7.5l3.3,4.7
					l-3.5,2.5c-0.5,0.3-0.7,0.9-0.4,1.4l3.9,5.5c0.4,0.4,1.1,0.5,1.5,0.2l3.5-2.5l12.5,17.7l-5.7,4c-0.5,0.3-0.6,0.8-0.4,1.3l2.1,3
					c-0.5,1-0.4,2.3,0.3,3.2c1,1.4,3,1.7,4.4,0.7c1.4-1,1.7-2.9,0.7-4.3c0,0,0,0,0,0c-0.9-1.3-2.6-1.7-4-1l-1.3-1.9l4.9-3.5l6,8.4
					l-4.1,2.9c-0.5,0.3-0.6,0.8-0.4,1.3l3.9,5.5c0.4,0.4,1,0.5,1.4,0.2l4.1-2.9l2.7,3.8l-6.9,4.9c-1-0.8-2.4-0.8-3.5,0
					c-1.3,0.9-1.7,2.7-0.8,4.1c0,0,0,0,0,0c1,1.3,2.8,1.6,4.1,0.7c1-0.7,1.5-2,1.1-3.2l6.9-4.9l2.6,3.7l-34,24.1l-1.9-2.6
					c2.1-1.9,2.2-5.2,0.2-7.3c-1.6-1.7-4.1-2.1-6.1-1.1L271,101.3z M314.4,102.2L314.4,102.2c0.1-0.1,0.1-0.1,0.2-0.2
					c0.5-0.4,1.3-0.2,1.6,0.3s0.2,1.3-0.3,1.6s-1.3,0.2-1.6-0.3C314,103.2,314,102.6,314.4,102.2L314.4,102.2z M322.8,122
					c-0.5,0.3-1.1,0.2-1.4-0.3c-0.3-0.5-0.2-1.1,0.3-1.4c0.4-0.3,0.9-0.2,1.3,0.1c0,0,0,0.1,0.1,0.1c0,0,0.1,0.1,0.1,0.1
					C323.4,121.2,323.2,121.7,322.8,122z M283.6,185.2l5.8,6l-6,3.8l-6.3-6.5L283.6,185.2z M276,189l6.4,6.6l-8,5l-7-7.3L276,189z
					 M292.4,243.2c-0.2,0.1-0.4,0-0.6-0.1l-31-32c-0.2-0.2-0.2-0.6,0-0.8c0.2-0.2,0.4-0.2,0.6-0.1l9.3,3.5l0,0
					c0.1,0,0.2,0.1,0.2,0.1l18.4,19c0.1,0.1,0.1,0.1,0.1,0.2l3.2,9.4l-0.5,0.2l0.5-0.2C292.9,242.8,292.7,243.1,292.4,243.2
					C292.4,243.2,292.4,243.2,292.4,243.2L292.4,243.2z M288.6,215.2l-4.6-4.8l7.1-5.9l8.3,8.6l-6.1,6.9L288.6,215.2z M294,220.8
					l6.1-6.9l7.1,7.3l-5.3,7.8L294,220.8z M309.7,237l-7-7.3l5.3-7.8l6.4,6.6L309.7,237z M314.9,227.5l-6.3-6.5l4-5.9l5.8,6
					L314.9,227.5z M313.2,214.2l3.8-5.6l5.2,5.4l-3.3,6.1L313.2,214.2z M324.6,218.4l-0.7,2.4c-0.2,0.6-0.7,0.9-1.3,0.7
					s-0.9-0.7-0.7-1.3l0.7-2.4c0.1-0.5,0.7-0.8,1.2-0.7c0,0,0,0,0,0C324.4,217.3,324.7,217.8,324.6,218.4
					C324.6,218.4,324.6,218.4,324.6,218.4L324.6,218.4z M330.2,221.6c-0.5,0.1-1.1-0.2-1.2-0.7c0,0,0,0,0,0l-0.6-2.5
					c-0.1-0.6,0.2-1.1,0.8-1.2c0.6-0.1,1.1,0.2,1.2,0.8l0.6,2.5C331.2,221,330.8,221.5,330.2,221.6
					C330.3,221.7,330.3,221.7,330.2,221.6L330.2,221.6z M327.6,216c-1.7,0.2-3.3,0-4.9-0.7l4.1-7.6c0.1-0.2,0.1-0.5-0.1-0.7l-6-6.2
					c3.5-3,8.7-2.7,11.9,0.6c3.3,3.5,3.3,9-0.2,12.3C331.2,214.9,329.5,215.8,327.6,216L327.6,216z"/>
				<path class="st0" d="M90.2,143.6c0.2-0.5-0.1-1.1-0.7-1.3s-1.1,0.1-1.3,0.7c-0.1,0.2-0.1,0.4,0,0.6v5.7h1.9V143.6z"/>
				<path class="st0" d="M66.1,143.6c0.2-0.5-0.1-1.1-0.7-1.3s-1.1,0.1-1.3,0.7c-0.1,0.2-0.1,0.4,0,0.6v5.7h1.9V143.6z"/>
				<path class="st0" d="M80.3,199.5c-0.2,0.5,0.1,1.1,0.7,1.3s1.1-0.1,1.3-0.7c0.1-0.2,0.1-0.4,0-0.6v-5.7h-1.9V199.5z"/>
				<path class="st0" d="M88.3,199.5c-0.2,0.5,0.1,1.1,0.7,1.3s1.1-0.1,1.3-0.7c0.1-0.2,0.1-0.4,0-0.6v-5.7h-1.9V199.5z"/>
				<path class="st0" d="M82.2,143.6c0.2-0.5-0.1-1.1-0.7-1.3s-1.1,0.1-1.3,0.7c-0.1,0.2-0.1,0.4,0,0.6v5.7h1.9V143.6z"/>
				<path class="st0" d="M74.1,143.6c-0.2-0.5-0.7-0.8-1.2-0.7c-0.3,0.1-0.6,0.4-0.7,0.7v5.7h1.9V143.6z"/>
				<path class="st0" d="M180.4,263.4c-0.5-0.1-1.2-0.2-2-0.4v67.7c1.2,0.1,2.4,0.2,3.5,0.3v-67.4L180.4,263.4z"/>
				<path class="st0" d="M354.3,131.3c-4.7-21.3-13.8-41.4-26.8-59c-9.9-12.8-21.5-24.1-34.7-33.5c-9.2-6.7-24.5-17.8-47-23.8
					c-14.4-3.9-28.6-4.8-36.2-5.3c-6.3-0.4-12.7-0.6-19.1-0.5c-8.6,0.1-21.6,0.4-36.5,3.5c-14.8,3.2-29.1,8.6-42.3,16
					C87.8,42,73.8,58.3,67.1,66.1c-10.7,12-19.5,25.5-26.1,40.2c-7,16.4-11.4,33.8-13,51.5c-1.9,19.4-0.4,39.1,4.4,58
					c5.1,19.5,13.9,37.9,25.9,54.1c15.1,20.1,31.6,31.4,40.4,37.4c8.6,5.9,26.5,18.1,53.1,25.2c13.5,3.6,27.5,5.4,41.5,5.4
					c6.1,0,12.3-0.3,18.4-1l0.9-0.1v-80l-1.2,0.3c-9.5,2.3-19.3,2.7-28.9,1.2c-7.8-1.2-15.3-3.8-22.2-7.5c-4.8-2.7-9.3-5.9-13.5-9.5
					c-4.7-4-9.2-8.2-13.3-12.8c-2.5-2.6-4.8-5.3-6.8-8.3c-2.5-4.1-4.5-8.4-6.1-12.9c-2.1-5.7-4.1-11.1-5.3-18.8
					c-1.3-8.3-0.8-14.6-0.3-20.8c0.3-6.7,1.4-13.4,3.1-19.9c2.4-9.4,6.4-18.4,11.9-26.4c7.4-10.6,17.3-19.2,28.9-25
					c6.4-3.1,13.1-5.4,20.1-6.8c10.4-2.1,21.2-2.3,31.7-0.7c5,0.5,10,1.7,14.8,3.4c6.1,2.3,10.2,5.1,15.8,9
					c4.9,3.1,9.4,6.8,13.5,10.9c3.4,3.4,6.5,7.2,9,11.4c2.5,4.2,4.5,8.7,5.9,13.4c1.1,4.2,1.8,8.4,2,12.7c0.7,7.8,1.1,11.7-0.1,16.9
					c-0.8,4-2.4,7.7-4.8,11c-2.3,3.1-5.1,5.6-8.5,7.5c-3.4,1.8-7.2,2.9-11,3.3c-3.9,0.6-7.9,0.6-11.8,0.2l-0.2,2
					c4.1,0.5,8.2,0.4,12.3-0.2c4.1-0.4,8.1-1.6,11.7-3.6c3.6-2,6.7-4.7,9.1-8c2.5-3.5,4.3-7.5,5.2-11.7c1.3-5.5,0.9-9.8,0.2-17.5
					c-0.2-4.4-1-8.8-2.1-13.1c-1.4-4.9-3.5-9.5-6.1-13.8c-2.6-4.3-5.7-8.2-9.3-11.7c-4.2-4.2-8.8-7.9-13.8-11.2
					c-5.8-4-9.9-6.8-16.2-9.2c-4.9-1.8-10-3-15.2-3.5c-10.8-1.7-21.7-1.4-32.4,0.7c-7.1,1.5-14,3.8-20.6,7
					c-11.9,5.9-22.1,14.7-29.6,25.6c-5.7,8.2-9.8,17.3-12.2,27c-1.7,6.6-2.8,13.4-3.1,20.2c-0.5,6.3-0.9,12.7,0.3,21.2
					c1.1,6.6,2.9,13,5.4,19.1c1.6,4.6,3.7,9.1,6.3,13.3c2.1,3,4.4,5.9,7,8.6c4.2,4.7,8.7,9,13.6,13c4.3,3.7,8.9,7,13.8,9.7
					c7.1,3.8,14.9,6.4,22.9,7.7c9.5,1.5,19.1,1.2,28.4-0.9v3.9c-0.6,0.1-1.3,0.3-2,0.5v67l2-0.2v4.5c-19.5,2.1-39.3,0.6-58.2-4.4
					c-26.3-7-44-19.1-52.5-24.9c-9.4-6.4-25-17.1-40-37c-11.9-16-20.5-34.1-25.6-53.4c-4.7-18.7-6.2-38.1-4.4-57.2
					c1.5-17.5,5.8-34.7,12.8-50.9C49.3,92.7,58,79.3,68.6,67.4c6.7-7.7,20.5-23.8,44.1-37c13-7.3,27.1-12.6,41.7-15.7
					c14.7-3.1,27.6-3.3,36.1-3.4c6.4-0.1,12.8,0.1,19,0.5c7.6,0.5,21.6,1.4,35.9,5.2c22.1,5.9,37.2,16.9,46.3,23.5
					c13,9.3,24.5,20.4,34.2,33.1c3.9,5.3,7.5,10.9,10.7,16.7c14.6,26.4,21.2,56.4,18.9,86.5c-2.8,34.8-17.6,67.6-42,92.6l1.4,1.4
					c24.7-25.4,39.7-58.6,42.5-93.9C358.7,161.6,357.6,146.3,354.3,131.3z"/>
			</g>
			<g>
				<path class="st0" d="M349.9,323.2L232.9,199l-6-6.6l-2.7-3l-4.6-5.5l14-0.8l-1.3,4.4l34.3-8.4l-24.4-25.5l-3.7,12.6v-0.4
					l-11.6,0.6l20.1-17.9l6.8,7.1l9.9-33.9l-34.3,8.4l5.9,6.1l-20.7,18.4l8.9-30.3l8.9,3.5L227.1,93l-27.6,22l8,3.2l-10.1,34.5
					l-11.6-33.9l9.2-3.2l-26.5-23.3l-6.8,34.7l8.1-2.8l10.9,31.9l-24.4-19.2l5.8-7.8l-35.1-4l14.1,32.3l5.1-6.9l22.6,17.9l-23.2-2.6
					l1-8.4L114,171.1l28.2,21.3l1.2-9.8l33.7,3.9c-3.2-11.5,3.6-23.4,15.1-26.6c11.5-3.2,23.4,3.6,26.6,15.1s-3.6,23.4-15.1,26.6
					c-6.8,1.9-14,0.3-19.4-4.1l0.7,0.7l9.5,9.9l115,125.2l37.5,0.2C345.3,329.8,346.5,325.4,349.9,323.2L349.9,323.2z M240.5,165.5
					h6.4c1,0,2.1,0.2,3.1,0.6c0.8,0.3,1.4,0.9,1.9,1.6c0.5,0.8,0.7,1.7,0.6,2.6l0,0c0,0.8-0.2,1.7-0.6,2.4c-0.4,0.7-0.9,1.2-1.6,1.6
					l2.7,5.2h-4.6L246,175h-1.4v4.6h-4.1L240.5,165.5z M243.3,128.9h9.9v3.3h-5.8v2.2h5.4v3.1h-5.4v2.2h5.8v3.3h-9.9L243.3,128.9z
					 M151,135.5c0,0.9-0.2,1.9-0.7,2.7c-0.4,0.8-1.1,1.4-1.9,1.8c-0.9,0.4-1.9,0.6-2.9,0.6h-2.1v3.8h-4.1v-14.1h6.3
					c1,0,2,0.2,2.9,0.6c0.8,0.4,1.4,1,1.9,1.8C150.8,133.6,151,134.5,151,135.5L151,135.5z M141.8,172.9c0,1.3-0.3,2.7-0.9,3.9
					c-0.3,0.6-0.7,1.1-1.2,1.6l1.8,2.6h-3.7l-0.8-1.1c-0.8,0.2-1.6,0.3-2.4,0.3c-1.3,0-2.6-0.3-3.8-0.9c-1.1-0.6-1.9-1.5-2.5-2.5
					c-0.6-1.2-0.9-2.5-0.9-3.9l0,0c0-1.3,0.3-2.7,0.9-3.9c0.6-1.1,1.4-1.9,2.5-2.5c2.4-1.2,5.2-1.2,7.5,0c1.1,0.6,1.9,1.5,2.5,2.5
					C141.5,170.2,141.8,171.5,141.8,172.9L141.8,172.9z M179.4,119.6l-0.7-2.8h-4.2l-0.7,2.8h-4.4l4.6-14.1h5.2l4.6,14.1H179.4z
					 M213.4,114.6c-0.6-1.2-0.9-2.6-0.9-4l0,0c0-1.4,0.2-2.8,0.9-4c0.5-1.1,1.4-1.9,2.4-2.5c1.1-0.6,2.4-0.9,3.7-0.9
					c1.2,0,2.4,0.2,3.4,0.8c0.9,0.5,1.7,1.2,2.3,2.1c0.6,0.9,0.8,1.9,0.8,3v0.1h-4v-0.1c0-0.4-0.2-0.9-0.4-1.2
					c-0.2-0.4-0.5-0.7-0.9-0.9c-0.4-0.2-0.9-0.3-1.3-0.3c-0.5,0-1,0.2-1.5,0.5c-0.5,0.3-0.8,0.8-1,1.3c-0.2,0.7-0.4,1.4-0.3,2.1l0,0
					c0,0.7,0.1,1.4,0.3,2.1c0.2,0.5,0.5,1,1,1.3c0.4,0.3,1,0.5,1.5,0.4c0.4,0,0.9-0.1,1.3-0.3c0.4-0.2,0.7-0.5,0.9-0.8
					c0.2-0.4,0.4-0.8,0.4-1.3v0h4v0.1c0,1.1-0.3,2.1-0.8,3c-0.6,0.9-1.4,1.6-2.3,2.1c-1.1,0.5-2.2,0.8-3.4,0.8
					c-1.3,0-2.6-0.3-3.7-0.9C214.7,116.5,213.9,115.6,213.4,114.6L213.4,114.6z M315.6,327.8c-8.5,0-15.4-6.8-15.4-15.3
					c0-2.3,0.5-4.7,1.6-6.8l-88.9-94.5l8-7.5l88.9,94.5c7.9-3.2,16.9,0.5,20.1,8.4c3.2,7.9-0.5,16.9-8.4,20.1
					C319.6,327.4,317.6,327.8,315.6,327.8L315.6,327.8z"/>
				<path class="st0" d="M178,189L178,189L178,189z"/>
				<polygon class="st0" points="181.9,195.2 181.9,195.2 181.9,195.2 				"/>
				<circle class="st0" cx="198" cy="180.7" r="13.4"/>
				<circle class="st0" cx="315.6" cy="312.4" r="7.5"/>
				<path class="st0" d="M136.2,169.4c-0.4-0.3-1-0.5-1.5-0.5c-0.5,0-1.1,0.2-1.5,0.5c-0.5,0.3-0.8,0.8-1,1.3
					c-0.2,0.7-0.4,1.4-0.4,2.1l0,0c0,0.7,0.1,1.4,0.4,2.1c0.2,0.5,0.5,1,1,1.4c0.4,0.3,1,0.5,1.5,0.5h0.3l-1.7-2.5h3.6l0.4,0.5
					c0.2-0.6,0.3-1.3,0.3-1.9l0,0c0-0.7-0.1-1.4-0.4-2.1C137,170.2,136.7,169.8,136.2,169.4z"/>
				<path class="st0" d="M144.6,133.4h-1.2v4.1h1.2c0.6,0,1.1-0.1,1.6-0.5c0.4-0.4,0.6-1,0.6-1.5l0,0c0-0.6-0.2-1.1-0.6-1.5
					C145.7,133.6,145.2,133.4,144.6,133.4z"/>
				<polygon class="st0" points="176.5,108.8 175.1,113.8 177.8,113.8 176.5,108.8 				"/>
				<path class="st0" d="M247.7,171.6c0.3-0.3,0.5-0.8,0.5-1.2l0,0c0-0.5-0.2-0.9-0.5-1.2c-0.4-0.3-0.8-0.5-1.3-0.5h-1.7v3.4h1.7
					C246.9,172,247.4,171.9,247.7,171.6z"/>
			</g>
			<polygon class="st0" points="220.9,173.5 220.9,173.9 218.5,173.9 379.9,341.4 307.2,341.4 157.9,182.3 156.4,183.7 306.1,343 
				306.4,343.4 384.6,343.4 			"/>
		</g>
	</g>
	<g id="Active">
		<circle class="st2" cx="198" cy="180.8" r="21.6"/>
		<circle class="st0" cx="198" cy="180.8" r="13.4"/>
	</g>
</g>
<g id="Layer_2">
	<g id="MainLogo_1_">
		<g>
			<polygon class="st0" points="173.4,44.6 169.6,24.4 152.3,35.6 			"/>
			<path class="st0" d="M150.5,63l4.1-9.5c-4-1.9-7.6-4.5-10.9-7.5L150.5,63z"/>
			<path class="st0" d="M159.5,58.3l1-2.4c-1-0.3-2-0.7-2.9-1.1l1.4,3.4C159.1,58.2,159.3,58.2,159.5,58.3z"/>
			<circle class="st0" cx="107.7" cy="264.9" r="7.5"/>
			<path class="st0" d="M152.4,62.2l-0.8,2c0.1,0.1,0.1,0.2,0.1,0.2c0.3,0.7,0,1.5-0.7,1.7c0,0,0,0,0,0c-0.1,0-0.2,0.1-0.3,0.1l0,0
				c-0.5,0.1-1-0.1-1.3-0.6l0,0l0,0c0-0.1-0.1-0.1-0.1-0.2c-0.2-0.4-0.1-0.9,0.1-1.2l-0.5-1.2c-1.1,0.9-1.2,2.4-0.4,3.5
				c0.9,1.1,2.4,1.2,3.5,0.4c0.8-0.7,1.1-1.8,0.7-2.9c-0.1-0.4-0.4-0.7-0.7-1L152.4,62.2z"/>
			<path class="st0" d="M304.3,93.2c0.3,0.5,0.9,0.6,1.4,0.2c0.5-0.3,0.6-0.9,0.2-1.4l-4.4-6.2c-0.3-0.5-0.9-0.6-1.4-0.2
				c-0.5,0.3-0.6,0.9-0.2,1.4L304.3,93.2z"/>
			<path class="st0" d="M290.5,113.3c0.9-1.4,0.5-3.2-0.9-4.2c-0.7-0.5-1.5-0.6-2.4-0.4l-5-7.1c0.9-1.4,0.5-3.2-0.8-4.2
				c-0.7-0.5-1.6-0.6-2.4-0.4l-0.9-1.3c-0.3-0.4-0.8-0.6-1.3-0.3c-0.4,0.3-0.6,0.8-0.3,1.3c0,0,0.1,0.1,0.1,0.1l0.9,1.3
				c-0.9,1.4-0.5,3.2,0.9,4.2c0.7,0.5,1.6,0.6,2.4,0.4l5,7.1c-0.9,1.4-0.6,3.2,0.8,4.2c0.7,0.5,1.6,0.6,2.4,0.4l0.9,1.3
				c0.3,0.4,0.9,0.6,1.3,0.3c0,0,0,0,0,0c0.4-0.3,0.5-0.9,0.2-1.3c0,0,0,0,0,0L290.5,113.3z M280.6,100.7c-0.5,0.3-1.1,0.2-1.4-0.2
				c-0.3-0.5-0.2-1.1,0.2-1.4l0,0c0.5-0.3,1.1-0.2,1.4,0.2C281.2,99.7,281.1,100.3,280.6,100.7L280.6,100.7L280.6,100.7z
				 M288.8,112.3c-0.4,0.3-1.1,0.2-1.4-0.2c0,0,0,0,0,0c-0.3-0.5-0.2-1.1,0.3-1.4c0.5-0.3,1.1-0.2,1.4,0.3
				C289.4,111.4,289.3,112,288.8,112.3z"/>
			<path class="st0" d="M302.5,108.1c-0.3-0.4-0.8-0.6-1.3-0.3c-0.4,0.3-0.6,0.8-0.3,1.3c0,0,0.1,0.1,0.1,0.1l2.5,3.6l-0.5,0.4
				l-2.5-3.6c-0.3-0.5-0.9-0.6-1.4-0.2c-0.5,0.3-0.6,0.9-0.2,1.4l2.5,3.6l-0.5,0.4l-2.5-3.6c-0.3-0.5-0.9-0.6-1.4-0.2
				c-0.5,0.3-0.6,0.9-0.2,1.4l2.5,3.6l-0.8,0.6c-0.5,0.3-0.7,0.9-0.4,1.4l0.7,1l-3.4,2.4c-0.4,0.3-0.6,0.8-0.3,1.3s0.8,0.6,1.3,0.3
				c0,0,0.1-0.1,0.1-0.1l3.4-2.4l0.5,0.7l-3.4,2.4c-0.4,0.3-0.5,0.9-0.2,1.3c0.3,0.4,0.9,0.5,1.3,0.2l0,0l3.4-2.4l0.3,0.4l-3.4,2.4
				c-0.5,0.3-0.6,0.9-0.2,1.4c0.3,0.5,0.9,0.6,1.4,0.2l3.4-2.4l0.7,1c0.4,0.4,1,0.4,1.5,0.1l0.8-0.6l2.5,3.6
				c0.3,0.5,0.9,0.6,1.4,0.2c0.5-0.3,0.6-0.9,0.2-1.4l-2.5-3.5l0.5-0.4l2.5,3.6c0.3,0.5,0.9,0.6,1.4,0.2c0.5-0.3,0.6-0.9,0.2-1.4
				l0,0l-2.5-3.6l0.5-0.4l2.5,3.6c0.3,0.4,0.9,0.5,1.3,0.2s0.5-0.9,0.2-1.3l0,0l-2.5-3.6l1.1-0.8c0.4-0.3,0.5-0.8,0.3-1.2
				c0,0,0,0,0,0l-0.7-1l3.5-2.5c0.5-0.3,0.6-0.9,0.2-1.4c-0.3-0.5-0.9-0.6-1.4-0.2l-3.5,2.5l-0.3-0.4l3.5-2.5
				c0.4-0.3,0.6-0.9,0.3-1.3c-0.3-0.4-0.9-0.6-1.3-0.3c0,0,0,0-0.1,0l-3.5,2.5l-0.5-0.7l3.5-2.5c0.4-0.3,0.6-0.8,0.3-1.3
				s-0.8-0.6-1.3-0.3c0,0-0.1,0.1-0.1,0.1l-3.5,2.5l-0.7-1c-0.3-0.4-0.9-0.5-1.3-0.2c0,0,0,0,0,0l-1.1,0.8L302.5,108.1z
				 M306.4,113.1l0.6,0.8l0,0l0,0l1.5,2l0,0v0.1l1.5,2.1l0,0l0,0l0.6,0.9l-6.2,4.4l-4.3-6.1L306.4,113.1z"/>
			<path class="st0" d="M292.8,101.3l-4.4-6.2c-0.3-0.4-0.9-0.5-1.3-0.2s-0.5,0.9-0.2,1.3l4.4,6.2c0.3,0.4,0.8,0.6,1.3,0.3
				c0.4-0.3,0.6-0.8,0.3-1.3C292.9,101.4,292.8,101.4,292.8,101.3L292.8,101.3z"/>
			<path class="st0" d="M294.6,100.1c0.3,0.4,0.9,0.5,1.3,0.2c0.4-0.3,0.5-0.9,0.2-1.3l-4.4-6.2c-0.3-0.4-0.9-0.6-1.3-0.3
				c-0.4,0.3-0.6,0.9-0.3,1.3c0,0,0,0,0,0.1L294.6,100.1z"/>
			<path class="st0" d="M297.7,97.8c0.3,0.4,0.9,0.5,1.4,0.2c0.4-0.3,0.6-0.9,0.2-1.4l-4.4-6.2c-0.3-0.5-0.9-0.6-1.4-0.2
				c-0.5,0.3-0.6,0.9-0.2,1.4l0,0L297.7,97.8z"/>
			<path class="st0" d="M301,95.5c0.3,0.4,0.9,0.5,1.4,0.2c0.4-0.3,0.6-0.9,0.3-1.4l-4.4-6.2c-0.3-0.5-0.9-0.6-1.4-0.2
				c-0.5,0.3-0.6,0.9-0.2,1.4L301,95.5z"/>
			<path class="st1" d="M212,262.9c-3.2,0.9-6.5,1.4-9.8,1.7c-3.7,0.3-7.3,0.3-11,0c-3.6-0.2-7.1-0.6-10.7-1.2
				c-7.4-1.3-14.6-3.7-21.4-6.9c-8.2-4-15.8-9.1-22.6-15.3c-14.4-12.5-24-29.5-27.5-48.2c-2-10.9-1.4-19.3-0.9-26.7
				c0.6-7.1,1.3-15.4,4.8-25.7c2.7-7.9,6.6-15.3,11.4-22.1c6.8-9.6,15.5-17.7,25.5-23.9c9.5-6,20.1-10.1,31.2-12.1
				c10.8-1.8,21.7-1.5,32.4,0.9c7.4,1.5,22.7,4.7,37.9,16.7c2.8,2.2,16.5,13.3,22.7,28.8c1.6,4.2,2.9,8.5,3.8,12.9
				c0.8,4.5,1.2,9.2,1.2,13.8c0.2,4.2-0.1,8.3-0.9,12.4c-0.5,3.1-1.5,6.2-2.9,9c-1.7,3-3.8,5.7-6.4,7.9c-2.1,2-4.4,3.8-6.9,5.3
				c-3,1.9-6.2,3.2-9.6,4c-3,0.6-6.1,0.8-9.1,0.7c-1.1,0-2.1-0.1-2.8-0.2"/>
			<path class="st1" d="M212,262.9c-3.2,0.9-6.5,1.4-9.8,1.7c-3.7,0.3-7.3,0.3-11,0c-3.6-0.2-7.1-0.6-10.7-1.2
				c-7.4-1.3-14.6-3.7-21.4-6.9c-8.2-4-15.8-9.1-22.6-15.3c-14.4-12.5-24-29.5-27.5-48.2c-2-10.9-1.4-19.3-0.9-26.7
				c0.6-7.1,1.3-15.4,4.8-25.7c2.7-7.9,6.6-15.3,11.4-22.1c6.8-9.6,15.5-17.7,25.5-23.9c9.5-6,20.1-10.1,31.2-12.1
				c10.8-1.8,21.7-1.5,32.4,0.9c7.4,1.5,22.7,4.7,37.9,16.7c2.8,2.2,16.5,13.3,22.7,28.8c1.6,4.2,2.9,8.5,3.8,12.9
				c0.8,4.5,1.2,9.2,1.2,13.8c0.2,4.2-0.1,8.3-0.9,12.4c-0.5,3.1-1.5,6.2-2.9,9c-1.7,3-3.8,5.7-6.4,7.9c-2.1,2-4.4,3.8-6.9,5.3
				c-3,1.9-6.2,3.2-9.6,4c-3,0.6-6.1,0.8-9.1,0.7c-1.1,0-2.1-0.1-2.8-0.2"/>
			<circle class="st0" cx="198" cy="180.7" r="13.4"/>
			<circle class="st0" cx="354.5" cy="330" r="4"/>
			<g>
				<path class="st0" d="M132.5,311.2c2,1,4.4,0.2,5.4-1.8c1-2,0.2-4.4-1.8-5.4c-2-1-4.4-0.2-5.3,1.8
					C129.7,307.8,130.5,310.2,132.5,311.2C132.5,311.2,132.5,311.2,132.5,311.2z"/>
				<circle class="st0" cx="324.4" cy="164.9" r="7.5"/>
				<path class="st0" d="M141.7,292.8c2,1,4.4,0.2,5.4-1.8c1-2,0.2-4.4-1.8-5.4c-2-1-4.3-0.2-5.3,1.8
					C138.9,289.4,139.7,291.8,141.7,292.8C141.7,292.8,141.7,292.8,141.7,292.8z"/>
				<path class="st0" d="M154,274.6c2.1-0.7,3.2-3,2.5-5.1c-0.7-2.1-3-3.2-5.1-2.5c-2.1,0.7-3.2,3-2.5,5
					C149.6,274.2,151.9,275.3,154,274.6C154,274.6,154,274.6,154,274.6z"/>
				<path class="st0" d="M185.9,264.2v67.1c1.2,0.1,2.4,0.1,3.5,0.1v-66.9C188.5,264.5,187.3,264.4,185.9,264.2z"/>
				<path class="st0" d="M193.5,264.8v66.7c1.2,0,2.4,0,3.5,0v-66.6C195.8,264.9,194.6,264.8,193.5,264.8z"/>
				<path class="st0" d="M202.1,264.6l-1.1,0.1v66.6c1.2-0.1,2.4-0.1,3.5-0.2v-66.7C203.8,264.5,203,264.6,202.1,264.6z"/>
				<path class="st0" d="M84.5,227c-2.1-0.5-4.3,0.8-4.8,2.9s0.8,4.3,2.9,4.8c2.1,0.5,4.3-0.8,4.8-2.9C88,229.8,86.7,227.6,84.5,227
					C84.6,227.1,84.6,227.1,84.5,227z"/>
				<path class="st0" d="M44.3,187.6c0,0.6,0.4,1,1,1H51v-1.9h-5.8C44.7,186.7,44.3,187.1,44.3,187.6z"/>
				<path class="st0" d="M44.3,179.6c0,0.6,0.4,1,1,1H51v-1.9h-5.8C44.7,178.7,44.3,179.1,44.3,179.6z"/>
				<path class="st0" d="M44.3,163.5c0,0.6,0.4,1,1,1H51v-1.9h-5.8C44.7,162.6,44.3,163,44.3,163.5z"/>
				<path class="st0" d="M44.3,171.5c0,0.6,0.4,1,1,1H51v-1.9h-5.8C44.7,170.6,44.3,171,44.3,171.5z"/>
				<path class="st0" d="M102.1,187.6c0-0.5-0.4-1-0.9-1h-5.7v1.9h5.7C101.6,188.5,102,188.1,102.1,187.6z"/>
				<path class="st0" d="M102.1,163.5c0-0.5-0.4-0.9-0.9-0.9h-5.7v1.9h5.7C101.6,164.4,102,164,102.1,163.5z"/>
				<path class="st0" d="M102.1,179.6c0-0.5-0.4-1-0.9-1h-5.7v1.9h5.7C101.6,180.5,102,180.1,102.1,179.6z"/>
				<path class="st0" d="M44.3,155.5c0,0.6,0.4,1,1,1H51v-1.9h-5.8C44.7,154.6,44.3,155,44.3,155.5z"/>
				<path class="st0" d="M102.1,155.5c0-0.5-0.4-1-0.9-1h-5.7v1.9h5.7C101.6,156.4,102,156,102.1,155.5z"/>
				<path class="st0" d="M102.1,171.5c0-0.5-0.4-1-0.9-1h-5.7v1.9h5.7C101.6,172.4,102,172,102.1,171.5z"/>
				<path class="st0" d="M58.1,143.6c0.2-0.5-0.1-1.1-0.7-1.3c-0.5-0.2-1.1,0.1-1.3,0.7c-0.1,0.2-0.1,0.4,0,0.6v5.7h1.9V143.6z"/>
				<path class="st0" d="M64.2,199.5c-0.2,0.5,0.1,1.1,0.7,1.3s1.1-0.1,1.3-0.7c0.1-0.2,0.1-0.4,0-0.6v-5.7h-1.9V199.5z"/>
				<path class="st0" d="M72.2,199.5c0.2,0.5,0.7,0.8,1.2,0.7c0.3-0.1,0.6-0.4,0.7-0.7v-5.7h-1.9V199.5z"/>
				<path class="st0" d="M56.2,199.5c-0.2,0.5,0.1,1.1,0.7,1.3c0.5,0.2,1.1-0.1,1.3-0.7c0.1-0.2,0.1-0.4,0-0.6v-5.7h-1.9V199.5z"/>
				<path class="st0" d="M69.1,181c1.1,2,2.5,3.2,4.1,3.2s3-1.2,4.1-3.2c-1.4-0.2-2.8-0.6-4.1-1.1C71.9,180.4,70.5,180.8,69.1,181z"
					/>
				<path class="st0" d="M77,165c0.6,0.4,1.2,0.7,1.8,1.1c-0.2-0.9-0.5-1.8-0.9-2.7c-0.9,0.1-1.9,0.3-2.8,0.6
					C75.7,164.3,76.3,164.6,77,165z"/>
				<path class="st0" d="M83.4,170.3c1.2-1.9,1.5-3.8,0.8-5.1s-2.4-1.9-4.6-1.9h-0.2c0.5,1.3,0.9,2.7,1.1,4.1
					C81.5,168.2,82.5,169.2,83.4,170.3z"/>
				<path class="st0" d="M82.6,171.5c-0.6-0.8-1.2-1.5-1.9-2.1c0,0.7,0.1,1.4,0.1,2.1s0,1.4-0.1,2.1C81.4,173,82,172.3,82.6,171.5z"
					/>
				<path class="st0" d="M80.4,175.7c-0.2,1.4-0.6,2.8-1.1,4.1c2.4,0,4.1-0.6,4.8-1.9s0.4-3.2-0.8-5.1
					C82.5,173.9,81.5,174.8,80.4,175.7z"/>
				<path class="st0" d="M71.3,164c-0.9-0.3-1.8-0.5-2.8-0.6c-0.4,0.9-0.6,1.8-0.9,2.7c0.6-0.4,1.2-0.8,1.8-1.1S70.6,164.3,71.3,164
					z"/>
				<path class="st0" d="M77.3,162c-1.1-2-2.5-3.2-4.1-3.2s-3,1.2-4.1,3.2c1.4,0.2,2.8,0.6,4.1,1.1C74.5,162.6,75.9,162.3,77.3,162z
					"/>
				<circle class="st0" cx="73.2" cy="171.5" r="2"/>
				<path class="st0" d="M67.2,175c0.9,0.7,1.9,1.4,2.8,1.9c1,0.6,2,1.1,3.1,1.5c1.1-0.4,2.1-0.9,3.1-1.5c1-0.6,1.9-1.2,2.9-1.9
					c0.3-2.3,0.3-4.6,0-6.9c-0.9-0.7-1.9-1.4-2.9-1.9c-1-0.6-2-1.1-3.1-1.5c-1.1,0.4-2.1,0.9-3.1,1.5c-1,0.6-2,1.2-2.9,1.9
					c-0.2,1.1-0.2,2.3-0.2,3.4C67,172.7,67.1,173.9,67.2,175z M73.2,168.2c1.9,0,3.4,1.5,3.4,3.3c0,1.9-1.5,3.4-3.3,3.4
					s-3.4-1.5-3.4-3.4c0,0,0,0,0,0C69.9,169.7,71.3,168.2,73.2,168.2L73.2,168.2z"/>
				<path class="st0" d="M65.9,167.3c0.2-1.4,0.6-2.8,1.1-4.1c-2.3,0-4,0.6-4.8,1.9s-0.5,3.1,0.8,5.1
					C63.8,169.2,64.8,168.2,65.9,167.3z"/>
				<path class="st0" d="M75.1,179.1c0.9,0.3,1.9,0.5,2.8,0.6c0.4-0.9,0.7-1.8,0.9-2.7c-0.6,0.4-1.2,0.8-1.8,1.1
					S75.7,178.8,75.1,179.1z"/>
				<path class="st0" d="M62.9,172.7c-1.2,1.9-1.5,3.8-0.8,5.1s2.6,2,4.8,1.9c-0.5-1.3-0.9-2.7-1.1-4.1
					C64.8,174.8,63.8,173.8,62.9,172.7z"/>
				<path class="st0" d="M63.8,171.5c0.6,0.8,1.2,1.5,1.9,2.1c-0.1-0.7-0.1-1.4-0.1-2.1s0-1.4,0.1-2.1
					C65,170.1,64.3,170.8,63.8,171.5z"/>
				<path class="st0" d="M69.4,178.1c-0.6-0.4-1.2-0.7-1.8-1.1c0.2,0.9,0.5,1.8,0.9,2.7c0.9-0.1,1.9-0.3,2.8-0.6
					C70.6,178.8,70,178.5,69.4,178.1z"/>
				<path class="st0" d="M56.6,188.1h33.1V155H56.6V188.1z M61,164.5c1.1-1.9,3.6-2.8,6.6-2.6c1.4-2.7,3.3-4.4,5.6-4.4
					s4.2,1.7,5.6,4.4c3.1-0.2,5.5,0.7,6.6,2.6s0.6,4.5-1.1,7c1.7,2.6,2.2,5.1,1.1,7.1c-1,1.7-3,2.6-5.8,2.6h-0.8
					c-1.4,2.7-3.3,4.4-5.6,4.4s-4.2-1.7-5.6-4.4c-0.3,0-0.5,0-0.8,0c-2.7,0-4.8-0.9-5.8-2.6c-1.1-1.9-0.6-4.5,1.1-7.1l-0.1-0.1
					C60.3,168.8,59.9,166.3,61,164.5z"/>
				<path class="st0" d="M79.6,192.4h11.3c1.7,0,3.1-1.4,3.1-3.1l0,0V186l0,0v-4.7l0,0V178l0,0v-4.8l0,0v-3.3l0,0v-4.7l0,0v-3.3l0,0
					v-4.7l0,0v-3.3l0,0c0-1.7-1.4-3.1-3.1-3.1H55.5c-1.7,0-3.1,1.4-3.1,3.1l0,0v3.3l0,0v4.7l0,0v3.3l0,0v4.7l0,0v3.3l0,0v4.7l0,0
					v3.3l0,0v4.8l0,0v3.3l0,0c0,1.7,1.4,3.1,3.1,3.1L79.6,192.4L79.6,192.4z M56,189.5c-0.4,0-0.7-0.3-0.7-0.7c0,0,0,0,0,0v-34.5
					c0-0.4,0.3-0.7,0.7-0.7c0,0,0,0,0,0h34.4c0.4,0,0.7,0.3,0.7,0.7l0,0v34.5c0,0.4-0.3,0.7-0.7,0.7c0,0,0,0,0,0H56z"/>
				
					<rect x="227.9" y="40.9" transform="matrix(0.3675 -0.93 0.93 0.3675 102.12 257.1013)" class="st0" width="24.4" height="25.1"/>
				
					<rect x="246.6" y="18.7" transform="matrix(0.3675 -0.93 0.93 0.3675 121.5847 252.7197)" class="st0" width="0" height="36.5"/>
				<path class="st0" d="M351,176.7c2.2-29.2-4.2-58.5-18.4-84.1c-3.1-5.6-6.6-11-10.4-16.2c-9.5-12.3-20.7-23.2-33.3-32.2
					c-9.6-6.9-24-17.2-45.1-22.9c-13.8-3.7-27.4-4.6-34.8-5.1c-3.7-0.2-10.3-0.6-18.4-0.4s-20.8,0.3-35.1,3.3
					c-14.2,3-27.9,8.2-40.6,15.3C92.4,47,79.1,62.1,72,70.4C61.8,81.9,53.3,94.9,47,109c-6.8,15.7-10.9,32.4-12.4,49.5
					c-1.8,18.7-0.4,37.5,4.2,55.7c4.9,18.7,13.3,36.4,24.8,51.9c14.2,18.9,29.3,29.4,38.8,36c9.1,6.2,25.9,17.5,51,24.2
					c6.9,1.8,13.9,3.2,20.9,4v-68.2c-5.3-1.4-10.4-3.2-15.3-5.6c-8.2-4-15.8-9.1-22.6-15.3c-14.3-12.5-23.9-29.5-27.3-48.2
					c-2-10.9-1.4-19.3-0.9-26.7c0.6-7.1,1.3-15.4,4.8-25.7c2.7-7.9,6.6-15.3,11.4-22.1c6.8-9.6,15.5-17.7,25.5-23.9
					c9.5-6,20.1-10.1,31.2-12.1c10.8-1.8,21.7-1.5,32.4,0.9c7.4,1.5,22.7,4.7,37.9,16.7c2.8,2.2,16.5,13.3,22.7,28.8
					c1.6,4.2,2.9,8.5,3.8,12.9c0.8,4.5,1.2,9.2,1.2,13.8c0.2,4.2-0.1,8.3-0.9,12.4c-0.5,3.1-1.5,6.2-2.9,9c-1.7,3-3.8,5.7-6.4,7.9
					c-2.1,2-4.4,3.8-6.9,5.3c-3,1.9-6.2,3.2-9.6,4c-3,0.6-6.1,0.8-9.1,0.7c-1.1,0-2.1-0.1-2.8-0.2l69.6,72.1
					C333.9,242.5,348.3,210.6,351,176.7z M111.6,78.1c0.7-1.8,2.8-2.7,4.6-1.9c1.8,0.7,2.7,2.8,1.9,4.6c-0.7,1.8-2.8,2.7-4.6,1.9
					c0,0,0,0,0,0C111.7,81.9,110.8,79.9,111.6,78.1z M76.4,98.8c0-5.3,2.2-10.3,6.1-13.9c0.4,1.1,1.1,2.1,2,2.8
					c-6.1,6.1-6.2,16-0.1,22.1c6.1,6.1,16,6.2,22.1,0.1c6.1-6.1,6.2-16,0.1-22.1c-2.9-2.9-6.8-4.6-10.9-4.6c0-0.2,0-0.4,0-0.6
					c0-1-0.2-1.9-0.6-2.8h0.4c10.5,0,19,8.5,19,19s-8.5,19-19,19S76.4,109.3,76.4,98.8L76.4,98.8L76.4,98.8z M78.8,120.6
					c-1.4,1.4-3.6,1.4-5,0c-1.4-1.4-1.4-3.6,0-5c1.4-1.4,3.6-1.4,5,0c0,0,0,0,0,0c1.4,1.3,1.6,3.5,0.3,4.9
					C79,120.6,78.9,120.6,78.8,120.6z M97.8,94.1l2.5-2.5l2.4,2.4l-2.5,2.5c0.1,0.2,0.2,0.4,0.3,0.7h3.6v3.4h-3.6
					c-0.1,0.2-0.2,0.4-0.3,0.7l2.5,2.5l-2.4,2.4l-2.5-2.5c-0.2,0.1-0.4,0.2-0.6,0.3v3.6h-3.4v-3.6c-0.2-0.1-0.4-0.2-0.6-0.3
					l-2.5,2.5l-2.4-2.4l2.5-2.5c-0.1-0.2-0.2-0.4-0.3-0.7h-3.5v-3.4h3.5c0.1-0.2,0.2-0.5,0.3-0.7L88.1,94l2.4-2.4l2.5,2.5
					c0.2-0.1,0.5-0.2,0.7-0.3v-3.5h3.4v3.5C97.4,93.9,97.6,94,97.8,94.1L97.8,94.1z M89.6,86c-1.9,0.5-3.8-0.7-4.3-2.6
					c-0.5-1.9,0.7-3.8,2.6-4.3c1.9-0.5,3.8,0.7,4.3,2.6C92.7,83.6,91.6,85.5,89.6,86C89.7,86,89.6,86,89.6,86z M74.9,78.3
					c9.5-9.5,24.2-11.2,35.6-4.2c-0.9,0.7-1.6,1.7-2,2.7c-12.1-7.2-27.8-3.2-35.1,8.9c-4.8,8-4.8,18.1,0,26.1
					c-1.1,0.5-2,1.2-2.7,2.2C63.7,102.6,65.5,87.8,74.9,78.3L74.9,78.3z M73.2,201.8c-1.3,0-2.3-1-2.3-2.3v-5.7h-3.3v5.7
					c-0.1,1.3-1.2,2.3-2.5,2.2c-1.2-0.1-2.1-1-2.2-2.2v-5.7h-3.4v5.7c-0.1,1.3-1.2,2.3-2.5,2.2c-1.2-0.1-2.1-1-2.2-2.2v-5.8
					c-1.9-0.3-3.4-1.8-3.8-3.7h-5.8c-1.3-0.1-2.3-1.2-2.2-2.5c0.1-1.2,1-2.1,2.2-2.2H51V182h-5.8c-1.3,0-2.3-1.1-2.3-2.3
					c0-1.3,1-2.3,2.3-2.3H51v-3.4h-5.8c-1.3,0-2.3-1-2.3-2.3c0-1.3,1-2.3,2.3-2.3c0,0,0,0,0,0H51v-3.4h-5.8
					c-1.3-0.1-2.3-1.2-2.2-2.5c0.1-1.2,1-2.1,2.2-2.2H51v-3.4h-5.8c-1.3,0-2.3-1-2.3-2.3c0-1.3,1-2.3,2.3-2.3c0,0,0,0,0,0H51
					c0.3-1.9,1.8-3.4,3.7-3.7v-5.8c0-1.3,1-2.3,2.3-2.3s2.3,1,2.3,2.3v5.7h3.4v-5.7c-0.1-1.3,0.9-2.4,2.2-2.5
					c1.3-0.1,2.4,0.9,2.5,2.2c0,0.1,0,0.2,0,0.3v5.7h3.3v-5.7c0-1.3,1-2.3,2.3-2.3c1.3,0,2.3,1,2.3,2.3v5.7h3.3v-5.7
					c-0.1-1.3,0.9-2.4,2.2-2.5c1.3-0.1,2.4,0.9,2.5,2.2c0,0.1,0,0.2,0,0.3v5.7h3.3v-5.7c0-1.3,1-2.3,2.3-2.3c1.3,0,2.3,1,2.3,2.3
					v5.8c1.9,0.3,3.4,1.8,3.8,3.7h5.8c1.3,0.1,2.3,1.2,2.2,2.5c-0.1,1.2-1,2.1-2.2,2.2h-5.7v3.4h5.7c1.3,0.1,2.3,1.2,2.2,2.5
					c-0.1,1.2-1,2.1-2.2,2.2h-5.7v3.3h5.7c1.3,0.1,2.3,1.2,2.2,2.5c-0.1,1.2-1,2.1-2.2,2.2h-5.7v3.3h5.7c1.3,0.1,2.3,1.2,2.2,2.5
					c-0.1,1.2-1,2.1-2.2,2.2h-5.7v3.4h5.7c1.3,0.1,2.3,1.2,2.2,2.5c-0.1,1.2-1,2.1-2.2,2.2h-5.8c-0.3,1.9-1.8,3.4-3.7,3.7v5.8
					c-0.1,1.3-1.2,2.3-2.5,2.2c-1.2-0.1-2.1-1-2.2-2.2v-5.7h-3.3v5.7c-0.1,1.3-1.2,2.3-2.5,2.2c-1.2-0.1-2.1-1-2.2-2.2v-5.7h-3.3
					v5.7C75.5,200.8,74.5,201.8,73.2,201.8z M83.6,239.2c-4.6,0-8.3-3.7-8.3-8.3c0-4.6,3.7-8.3,8.3-8.3c4.6,0,8.3,3.7,8.3,8.3
					c0,0,0,0,0,0C91.8,235.5,88.1,239.2,83.6,239.2z M145.3,267.1c2-4.1,7-5.7,11.1-3.7c4.1,2,5.7,7,3.7,11.1c-2,4.1-7,5.7-11.1,3.7
					C144.9,276.1,143.3,271.2,145.3,267.1z M136.1,285.5c2-4.1,7-5.7,11.1-3.7c4.1,2,5.7,7,3.7,11.1c-2,4.1-7,5.7-11.1,3.7
					C135.7,294.6,134.1,289.6,136.1,285.5C136.1,285.5,136.1,285.5,136.1,285.5z M126.9,303.9c2-4.1,7-5.7,11.1-3.7
					c4.1,2,5.7,7,3.7,11.1c-2,4.1-7,5.7-11.1,3.7C126.5,313,124.9,308,126.9,303.9C126.9,303.9,126.9,303.9,126.9,303.9z
					 M123.1,264.9c0,8.5-6.9,15.4-15.4,15.4s-15.4-6.9-15.4-15.4c0-8.5,6.9-15.4,15.4-15.4c0,0,0,0,0,0
					C116.2,249.5,123.1,256.4,123.1,264.9C123.1,264.9,123.1,264.9,123.1,264.9L123.1,264.9z M115.9,119.3
					c-9.5,9.4-24.1,11.2-35.5,4.3c0.9-0.7,1.7-1.6,2.2-2.7c12.2,7.1,27.9,3,35-9.2c4.7-8,4.7-18-0.1-26c1.1-0.4,2-1.1,2.8-2
					C127.1,95.2,125.3,109.9,115.9,119.3L115.9,119.3z M161.9,56.3l-1.1,2.7c1.5,1.3,1.7,3.6,0.4,5.1c-0.2,0.3-0.5,0.5-0.8,0.7
					l0.7,1.8l7.5,7l-10.4-3.4l10.3,4.4c1,0.4,2.2,0.4,3.3,0l3.7-1.5l1.2,3l0.5,1.3l-30.6,12.3l-0.5-1.3l-0.7-1.8l18.4-7.4l-0.8-2
					l-14.6,5.9l2.4-13c2.9-0.1,5.1-2.5,5-5.4c-0.1-1.5-0.7-2.9-1.9-3.8l0.7-0.3l0.3-0.1l0.2-0.1c0.4-1,1.2-1.7,2.1-2.1l0.2-0.1
					l-1.6-4l-3.3,7.7c0.6,0.4,1,1,1.3,1.6c0.7,1.9-0.1,4-2,4.7c-1.9,0.7-4-0.1-4.7-2c-0.6-1.6-0.1-3.4,1.4-4.4l-7.5-18.7
					c-3.9-4.5-5.7-8.9-4.7-11.4l13.7,5.8l0.7-0.3l0.3,0.7l36.4,15.5C185.5,57.7,174.2,59.9,161.9,56.3L161.9,56.3z M187.7,52.5
					l-51-21.8l0.6-1.5l32.2-4.9L188.4,51L187.7,52.5z M336.9,218c-0.4,0.4-1,0.4-1.4,0c0,0,0,0,0,0l-1.8-1.8c-0.4-0.4-0.4-1,0-1.4
					c0.4-0.4,1-0.4,1.4,0l1.8,1.8C337.3,217,337.3,217.6,336.9,218C336.9,218,336.9,218,336.9,218z M340.8,211.5
					c-0.1,0.5-0.7,0.8-1.2,0.7c0,0,0,0,0,0l-2.5-0.7c-0.5-0.2-0.8-0.7-0.7-1.3c0.2-0.5,0.7-0.8,1.3-0.7l0,0l2.5,0.7
					C340.6,210.4,340.9,210.9,340.8,211.5C340.8,211.5,340.8,211.5,340.8,211.5L340.8,211.5z M335.3,200.5c-0.4,0.4-1,0.4-1.4,0
					c-0.4-0.4-0.4-1,0-1.4l1.8-1.8c0.4-0.4,1-0.4,1.4,0c0.4,0.4,0.4,1,0,1.4l0,0L335.3,200.5z M340.9,203.9c0.1,0.5-0.2,1.1-0.7,1.2
					c0,0,0,0,0,0l-2.5,0.6c-0.6,0.1-1.1-0.2-1.2-0.8s0.2-1.1,0.8-1.2l2.5-0.6C340.2,203,340.7,203.3,340.9,203.9
					C340.9,203.9,340.9,203.9,340.9,203.9L340.9,203.9z M339.8,165c0,8.5-6.9,15.4-15.4,15.4c-8.5,0-15.4-6.9-15.4-15.4
					c0-8.5,6.9-15.4,15.4-15.4c0,0,0,0,0,0C332.9,149.6,339.7,156.5,339.8,165L339.8,165z M331.4,194.6l-0.7,2.4
					c-0.1,0.5-0.7,0.9-1.2,0.7c0,0,0,0,0,0c-0.5-0.1-0.9-0.7-0.7-1.2c0,0,0,0,0,0l0.7-2.4c0.2-0.5,0.7-0.8,1.3-0.7
					S331.5,194.1,331.4,194.6z M324.2,197.7c-0.5,0.1-1.1-0.2-1.2-0.7c0,0,0,0,0,0l-0.6-2.5c-0.1-0.6,0.2-1.1,0.8-1.2
					s1.1,0.2,1.2,0.8l0.6,2.5C325.1,197,324.7,197.5,324.2,197.7C324.2,197.6,324.2,197.6,324.2,197.7L324.2,197.7z M316.8,206.9
					l-5.5-5.7l4-4.5l4.3,4.5l0.6,0.6L316.8,206.9z M321,202.7l4.8,4.9l-3,5.5l-5.2-5.4L321,202.7z M275.3,201.5l8-5l7.1,7.3
					l-7.1,5.9L275.3,201.5z M286.7,214.8l2.2,2.3l-6.9,6.6l-2.2-2.3L286.7,214.8z M284.2,195.8l6-3.8l6.3,6.5l-5.4,4.5L284.2,195.8z
					 M303.2,194.4l6.6,6.8l-4.4,5l-7.3-7.6L303.2,194.4z M297.4,197.8l-6.2-6.4l5.7-3.6l5.6,5.8L297.4,197.8z M304.1,193.7l4.6-3.8
					l5.9,6.1l-4,4.5L304.1,193.7z M303.3,192.9l-5.5-5.7l5.2-3.2l5,5.1L303.3,192.9z M297,186.4l-5.2-5.4l5.6-2.8l4.8,4.9L297,186.4
					z M296.1,187l-5.7,3.6l-5.7-5.9l6.2-3.1L296.1,187z M297.3,199.3l7.4,7.7l-4.7,5.3l-8.2-8.4L297.3,199.3z M305.5,207.8l6.3,6.5
					l-4,5.9l-7-7.2L305.5,207.8z M306.2,207l4.4-5l5.6,5.8l-3.8,5.6L306.2,207z M273.5,79.2l4.6,6.5c0.3,0.5,0.9,0.6,1.4,0.2
					c0.5-0.3,0.6-0.9,0.2-1.4l-4.6-6.5l0.4-0.3l2.9,4.1c0.3,0.5,0.9,0.6,1.4,0.2c0.5-0.3,0.6-0.9,0.2-1.4l-2.9-4.1l1.1-0.8l4.6,6.6
					c0.3,0.4,0.9,0.6,1.3,0.3c0.4-0.3,0.6-0.9,0.3-1.3c0,0,0,0,0-0.1l-4.6-6.5l3.4-2.4l6.6,9.4l-4.8,3.4c-0.9-0.5-2-0.5-2.8,0.1
					c-0.8,0.6-1.2,1.6-1,2.7l-7,5l-6.7-9.4l3.3-2.3l2.9,4.1c0.4,0.4,1,0.4,1.4,0c0.3-0.3,0.4-0.8,0.2-1.2l-2.9-4.1L273.5,79.2z
					 M284.2,87.8c-0.3,0.2-0.6,0.1-0.8-0.1c0,0,0,0,0,0c-0.2-0.3-0.1-0.6,0.1-0.8c0.3-0.2,0.7-0.1,0.9,0.1S284.4,87.6,284.2,87.8
					L284.2,87.8z M252.9,76.2l-1.2,3.1l-2.1-0.8l-2.9,7.4l-1.9-0.7l2.9-7.4l-2.1-0.8l-2.9,7.4l-1.9-0.7l2.9-7.4l-2.1-0.8l-2.9,7.4
					l-1.8-0.8l2.9-7.4l-2.1-0.8l-2.9,7.4l-1.9-0.7l3-7.4l-2.1-0.8l-2.9,7.4l-1.9-0.7l2.9-7.4l-2-0.8l-3,7.4l-1.9-0.7l3-7.4l-2.1-0.8
					l-2.9,7.4l-1.9-0.7l2.9-7.4l-2.1-0.8l-2.9,7.4l-1.9-0.7l2.9-7.4l-2.1-0.8l-2.9,7.4l-1.9-0.7l2.9-7.4l-2.3-0.9l1.2-3.1l-6.9-2.7
					l0.7-1.9l6.9,2.7l0.8-2.1l-6.9-2.7l0.7-1.9l6.9,2.7l0.8-2.1l-6.9-2.7l0.7-1.9l6.8,2.7l0.8-2.1l-6.8-2.7l0.7-1.9l6.9,2.7l0.8-2.1
					l-6.9-2.7l0.7-1.9l6.9,2.7l0.8-2.1l-6.9-2.7l0.7-1.9l6.9,2.7l0.8-2.1l-7-2.7l0.7-1.9l6.9,2.7l0.8-2.1l-6.9-2.7l0.7-1.9l6.9,2.8
					l1.7-4.3l2.3,0.9l3.2-7.9l1.9,0.7l-3.1,7.9l2.1,0.8l3.1-7.9l1.9,0.7l-3.1,7.9l2.1,0.8l3.1-7.9l1.9,0.7l-3.1,7.9l2.1,0.8l3.1-7.9
					l1.9,0.7l-3.2,7.9l2.1,0.8l3.1-7.9l1.9,0.7l-3.1,7.9l2.1,0.8l3.1-7.9l1.9,0.7l-3.1,7.9l2.1,0.8l3.1-7.9l1.9,0.7l-3.1,7.9
					l2.1,0.8l3.1-7.9l1.9,0.7l-3.1,7.9l2.1,0.8l3.1-7.9l1.9,0.7l-3.1,7.9l2.1,0.8l-1.7,4.3l7.8,3.1l-0.7,1.9l-7.8-3.1l-0.8,2.1
					l7.8,3.1l-0.8,1.9l-7.8-3.1l-0.8,2.1l7.8,3.1l-0.7,1.9l-7.8-3.1l-0.8,2.1l7.8,3.1l-0.7,1.9l-7.8-3.1l-0.8,2.1l7.8,3.1l-0.7,1.9
					l-7.8-3.1l-0.8,2.1l7.8,3.1l-0.7,1.9l-7.8-3.1l-0.8,2.1l7.8,3.1l-0.7,1.9l-7.8-3.1l-0.8,2.1l7.8,3.1l-0.7,1.9L252.9,76.2z
					 M271,101.3c2-2.1,1.9-5.3-0.1-7.3c-1.5-1.5-3.8-1.9-5.7-1l-3.7-5.3l4.6-3.2l7.2,10.2c0.4,0.4,1,0.5,1.5,0.2l7.7-5.5
					c1.2,0.8,2.8,0.4,3.5-0.8c0.4-0.6,0.5-1.3,0.3-1.9l5.6-4c0.4-0.3,0.5-0.9,0.1-1.3c0,0,0,0,0,0l-7.2-10.2l10.6-7.5l3.3,4.7
					l-3.5,2.5c-0.5,0.3-0.7,0.9-0.4,1.4l3.9,5.5c0.4,0.4,1.1,0.5,1.5,0.2l3.5-2.5l12.5,17.7l-5.7,4c-0.5,0.3-0.6,0.8-0.4,1.3l2.1,3
					c-0.5,1-0.4,2.3,0.3,3.2c1,1.4,3,1.7,4.4,0.7c1.4-1,1.7-2.9,0.7-4.3c0,0,0,0,0,0c-0.9-1.3-2.6-1.7-4-1l-1.3-1.9l4.9-3.5l6,8.4
					l-4.1,2.9c-0.5,0.3-0.6,0.8-0.4,1.3l3.9,5.5c0.4,0.4,1,0.5,1.4,0.2l4.1-2.9l2.7,3.8l-6.9,4.9c-1-0.8-2.4-0.8-3.5,0
					c-1.3,0.9-1.7,2.7-0.8,4.1c0,0,0,0,0,0c1,1.3,2.8,1.6,4.1,0.7c1-0.7,1.5-2,1.1-3.2l6.9-4.9l2.6,3.7l-34,24.1l-1.9-2.6
					c2.1-1.9,2.2-5.2,0.2-7.3c-1.6-1.7-4.1-2.1-6.1-1.1L271,101.3z M314.4,102.2L314.4,102.2c0.1-0.1,0.1-0.1,0.2-0.2
					c0.5-0.4,1.3-0.2,1.6,0.3s0.2,1.3-0.3,1.6s-1.3,0.2-1.6-0.3C314,103.2,314,102.6,314.4,102.2L314.4,102.2z M322.8,122
					c-0.5,0.3-1.1,0.2-1.4-0.3c-0.3-0.5-0.2-1.1,0.3-1.4c0.4-0.3,0.9-0.2,1.3,0.1c0,0,0,0.1,0.1,0.1c0,0,0.1,0.1,0.1,0.1
					C323.4,121.2,323.2,121.7,322.8,122z M283.6,185.2l5.8,6l-6,3.8l-6.3-6.5L283.6,185.2z M276,189l6.4,6.6l-8,5l-7-7.3L276,189z
					 M292.4,243.2c-0.2,0.1-0.4,0-0.6-0.1l-31-32c-0.2-0.2-0.2-0.6,0-0.8c0.2-0.2,0.4-0.2,0.6-0.1l9.3,3.5l0,0
					c0.1,0,0.2,0.1,0.2,0.1l18.4,19c0.1,0.1,0.1,0.1,0.1,0.2l3.2,9.4l-0.5,0.2l0.5-0.2C292.9,242.8,292.7,243.1,292.4,243.2
					C292.4,243.2,292.4,243.2,292.4,243.2L292.4,243.2z M288.6,215.2l-4.6-4.8l7.1-5.9l8.3,8.6l-6.1,6.9L288.6,215.2z M294,220.8
					l6.1-6.9l7.1,7.3l-5.3,7.8L294,220.8z M309.7,237l-7-7.3l5.3-7.8l6.4,6.6L309.7,237z M314.9,227.5l-6.3-6.5l4-5.9l5.8,6
					L314.9,227.5z M313.2,214.2l3.8-5.6l5.2,5.4l-3.3,6.1L313.2,214.2z M324.6,218.4l-0.7,2.4c-0.2,0.6-0.7,0.9-1.3,0.7
					s-0.9-0.7-0.7-1.3l0.7-2.4c0.1-0.5,0.7-0.8,1.2-0.7c0,0,0,0,0,0C324.4,217.3,324.7,217.8,324.6,218.4
					C324.6,218.4,324.6,218.4,324.6,218.4L324.6,218.4z M330.2,221.6c-0.5,0.1-1.1-0.2-1.2-0.7c0,0,0,0,0,0l-0.6-2.5
					c-0.1-0.6,0.2-1.1,0.8-1.2c0.6-0.1,1.1,0.2,1.2,0.8l0.6,2.5C331.2,221,330.8,221.5,330.2,221.6
					C330.3,221.7,330.3,221.7,330.2,221.6L330.2,221.6z M327.6,216c-1.7,0.2-3.3,0-4.9-0.7l4.1-7.6c0.1-0.2,0.1-0.5-0.1-0.7l-6-6.2
					c3.5-3,8.7-2.7,11.9,0.6c3.3,3.5,3.3,9-0.2,12.3C331.2,214.9,329.5,215.8,327.6,216L327.6,216z"/>
				<path class="st0" d="M90.2,143.6c0.2-0.5-0.1-1.1-0.7-1.3s-1.1,0.1-1.3,0.7c-0.1,0.2-0.1,0.4,0,0.6v5.7h1.9V143.6z"/>
				<path class="st0" d="M66.1,143.6c0.2-0.5-0.1-1.1-0.7-1.3s-1.1,0.1-1.3,0.7c-0.1,0.2-0.1,0.4,0,0.6v5.7h1.9V143.6z"/>
				<path class="st0" d="M80.3,199.5c-0.2,0.5,0.1,1.1,0.7,1.3s1.1-0.1,1.3-0.7c0.1-0.2,0.1-0.4,0-0.6v-5.7h-1.9V199.5z"/>
				<path class="st0" d="M88.3,199.5c-0.2,0.5,0.1,1.1,0.7,1.3s1.1-0.1,1.3-0.7c0.1-0.2,0.1-0.4,0-0.6v-5.7h-1.9V199.5z"/>
				<path class="st0" d="M82.2,143.6c0.2-0.5-0.1-1.1-0.7-1.3s-1.1,0.1-1.3,0.7c-0.1,0.2-0.1,0.4,0,0.6v5.7h1.9V143.6z"/>
				<path class="st0" d="M74.1,143.6c-0.2-0.5-0.7-0.8-1.2-0.7c-0.3,0.1-0.6,0.4-0.7,0.7v5.7h1.9V143.6z"/>
				<path class="st0" d="M180.4,263.4c-0.5-0.1-1.2-0.2-2-0.4v67.7c1.2,0.1,2.4,0.2,3.5,0.3v-67.4L180.4,263.4z"/>
				<path class="st0" d="M354.3,131.3c-4.7-21.3-13.8-41.4-26.8-59c-9.9-12.8-21.5-24.1-34.7-33.5c-9.2-6.7-24.5-17.8-47-23.8
					c-14.4-3.9-28.6-4.8-36.2-5.3c-6.3-0.4-12.7-0.6-19.1-0.5c-8.6,0.1-21.6,0.4-36.5,3.5c-14.8,3.2-29.1,8.6-42.3,16
					C87.8,42,73.8,58.3,67.1,66.1c-10.7,12-19.5,25.5-26.1,40.2c-7,16.4-11.4,33.8-13,51.5c-1.9,19.4-0.4,39.1,4.4,58
					c5.1,19.5,13.9,37.9,25.9,54.1c15.1,20.1,31.6,31.4,40.4,37.4c8.6,5.9,26.5,18.1,53.1,25.2c13.5,3.6,27.5,5.4,41.5,5.4
					c6.1,0,12.3-0.3,18.4-1l0.9-0.1v-80l-1.2,0.3c-9.5,2.3-19.3,2.7-28.9,1.2c-7.8-1.2-15.3-3.8-22.2-7.5c-4.8-2.7-9.3-5.9-13.5-9.5
					c-4.7-4-9.2-8.2-13.3-12.8c-2.5-2.6-4.8-5.3-6.8-8.3c-2.5-4.1-4.5-8.4-6.1-12.9c-2.1-5.7-4.1-11.1-5.3-18.8
					c-1.3-8.3-0.8-14.6-0.3-20.8c0.3-6.7,1.4-13.4,3.1-19.9c2.4-9.4,6.4-18.4,11.9-26.4c7.4-10.6,17.3-19.2,28.9-25
					c6.4-3.1,13.1-5.4,20.1-6.8c10.4-2.1,21.2-2.3,31.7-0.7c5,0.5,10,1.7,14.8,3.4c6.1,2.3,10.2,5.1,15.8,9
					c4.9,3.1,9.4,6.8,13.5,10.9c3.4,3.4,6.5,7.2,9,11.4c2.5,4.2,4.5,8.7,5.9,13.4c1.1,4.2,1.8,8.4,2,12.7c0.7,7.8,1.1,11.7-0.1,16.9
					c-0.8,4-2.4,7.7-4.8,11c-2.3,3.1-5.1,5.6-8.5,7.5c-3.4,1.8-7.2,2.9-11,3.3c-3.9,0.6-7.9,0.6-11.8,0.2l-0.2,2
					c4.1,0.5,8.2,0.4,12.3-0.2c4.1-0.4,8.1-1.6,11.7-3.6c3.6-2,6.7-4.7,9.1-8c2.5-3.5,4.3-7.5,5.2-11.7c1.3-5.5,0.9-9.8,0.2-17.5
					c-0.2-4.4-1-8.8-2.1-13.1c-1.4-4.9-3.5-9.5-6.1-13.8c-2.6-4.3-5.7-8.2-9.3-11.7c-4.2-4.2-8.8-7.9-13.8-11.2
					c-5.8-4-9.9-6.8-16.2-9.2c-4.9-1.8-10-3-15.2-3.5c-10.8-1.7-21.7-1.4-32.4,0.7c-7.1,1.5-14,3.8-20.6,7
					c-11.9,5.9-22.1,14.7-29.6,25.6c-5.7,8.2-9.8,17.3-12.2,27c-1.7,6.6-2.8,13.4-3.1,20.2c-0.5,6.3-0.9,12.7,0.3,21.2
					c1.1,6.6,2.9,13,5.4,19.1c1.6,4.6,3.7,9.1,6.3,13.3c2.1,3,4.4,5.9,7,8.6c4.2,4.7,8.7,9,13.6,13c4.3,3.7,8.9,7,13.8,9.7
					c7.1,3.8,14.9,6.4,22.9,7.7c9.5,1.5,19.1,1.2,28.4-0.9v3.9c-0.6,0.1-1.3,0.3-2,0.5v67l2-0.2v4.5c-19.5,2.1-39.3,0.6-58.2-4.4
					c-26.3-7-44-19.1-52.5-24.9c-9.4-6.4-25-17.1-40-37c-11.9-16-20.5-34.1-25.6-53.4c-4.7-18.7-6.2-38.1-4.4-57.2
					c1.5-17.5,5.8-34.7,12.8-50.9C49.3,92.7,58,79.3,68.6,67.4c6.7-7.7,20.5-23.8,44.1-37c13-7.3,27.1-12.6,41.7-15.7
					c14.7-3.1,27.6-3.3,36.1-3.4c6.4-0.1,12.8,0.1,19,0.5c7.6,0.5,21.6,1.4,35.9,5.2c22.1,5.9,37.2,16.9,46.3,23.5
					c13,9.3,24.5,20.4,34.2,33.1c3.9,5.3,7.5,10.9,10.7,16.7c14.6,26.4,21.2,56.4,18.9,86.5c-2.8,34.8-17.6,67.6-42,92.6l1.4,1.4
					c24.7-25.4,39.7-58.6,42.5-93.9C358.7,161.6,357.6,146.3,354.3,131.3z"/>
			</g>
			<g>
				<path class="st0" d="M349.9,323.2L232.9,199l-6-6.6l-2.7-3l-4.6-5.5l14-0.8l-1.3,4.4l34.3-8.4l-24.4-25.5l-3.7,12.6v-0.4
					l-11.6,0.6l20.1-17.9l6.8,7.1l9.9-33.9l-34.3,8.4l5.9,6.1l-20.7,18.4l8.9-30.3l8.9,3.5L227.1,93l-27.6,22l8,3.2l-10.1,34.5
					l-11.6-33.9l9.2-3.2l-26.5-23.3l-6.8,34.7l8.1-2.8l10.9,31.9l-24.4-19.2l5.8-7.8l-35.1-4l14.1,32.3l5.1-6.9l22.6,17.9l-23.2-2.6
					l1-8.4L114,171.1l28.2,21.3l1.2-9.8l33.7,3.9c-3.2-11.5,3.6-23.4,15.1-26.6c11.5-3.2,23.4,3.6,26.6,15.1s-3.6,23.4-15.1,26.6
					c-6.8,1.9-14,0.3-19.4-4.1l0.7,0.7l9.5,9.9l115,125.2l37.5,0.2C345.3,329.8,346.5,325.4,349.9,323.2L349.9,323.2z M240.5,165.5
					h6.4c1,0,2.1,0.2,3.1,0.6c0.8,0.3,1.4,0.9,1.9,1.6c0.5,0.8,0.7,1.7,0.6,2.6l0,0c0,0.8-0.2,1.7-0.6,2.4c-0.4,0.7-0.9,1.2-1.6,1.6
					l2.7,5.2h-4.6L246,175h-1.4v4.6h-4.1L240.5,165.5z M243.3,128.9h9.9v3.3h-5.8v2.2h5.4v3.1h-5.4v2.2h5.8v3.3h-9.9L243.3,128.9z
					 M151,135.5c0,0.9-0.2,1.9-0.7,2.7c-0.4,0.8-1.1,1.4-1.9,1.8c-0.9,0.4-1.9,0.6-2.9,0.6h-2.1v3.8h-4.1v-14.1h6.3
					c1,0,2,0.2,2.9,0.6c0.8,0.4,1.4,1,1.9,1.8C150.8,133.6,151,134.5,151,135.5L151,135.5z M141.8,172.9c0,1.3-0.3,2.7-0.9,3.9
					c-0.3,0.6-0.7,1.1-1.2,1.6l1.8,2.6h-3.7l-0.8-1.1c-0.8,0.2-1.6,0.3-2.4,0.3c-1.3,0-2.6-0.3-3.8-0.9c-1.1-0.6-1.9-1.5-2.5-2.5
					c-0.6-1.2-0.9-2.5-0.9-3.9l0,0c0-1.3,0.3-2.7,0.9-3.9c0.6-1.1,1.4-1.9,2.5-2.5c2.4-1.2,5.2-1.2,7.5,0c1.1,0.6,1.9,1.5,2.5,2.5
					C141.5,170.2,141.8,171.5,141.8,172.9L141.8,172.9z M179.4,119.6l-0.7-2.8h-4.2l-0.7,2.8h-4.4l4.6-14.1h5.2l4.6,14.1H179.4z
					 M213.4,114.6c-0.6-1.2-0.9-2.6-0.9-4l0,0c0-1.4,0.2-2.8,0.9-4c0.5-1.1,1.4-1.9,2.4-2.5c1.1-0.6,2.4-0.9,3.7-0.9
					c1.2,0,2.4,0.2,3.4,0.8c0.9,0.5,1.7,1.2,2.3,2.1c0.6,0.9,0.8,1.9,0.8,3v0.1h-4v-0.1c0-0.4-0.2-0.9-0.4-1.2
					c-0.2-0.4-0.5-0.7-0.9-0.9c-0.4-0.2-0.9-0.3-1.3-0.3c-0.5,0-1,0.2-1.5,0.5c-0.5,0.3-0.8,0.8-1,1.3c-0.2,0.7-0.4,1.4-0.3,2.1l0,0
					c0,0.7,0.1,1.4,0.3,2.1c0.2,0.5,0.5,1,1,1.3c0.4,0.3,1,0.5,1.5,0.4c0.4,0,0.9-0.1,1.3-0.3c0.4-0.2,0.7-0.5,0.9-0.8
					c0.2-0.4,0.4-0.8,0.4-1.3v0h4v0.1c0,1.1-0.3,2.1-0.8,3c-0.6,0.9-1.4,1.6-2.3,2.1c-1.1,0.5-2.2,0.8-3.4,0.8
					c-1.3,0-2.6-0.3-3.7-0.9C214.7,116.5,213.9,115.6,213.4,114.6L213.4,114.6z M315.6,327.8c-8.5,0-15.4-6.8-15.4-15.3
					c0-2.3,0.5-4.7,1.6-6.8l-88.9-94.5l8-7.5l88.9,94.5c7.9-3.2,16.9,0.5,20.1,8.4c3.2,7.9-0.5,16.9-8.4,20.1
					C319.6,327.4,317.6,327.8,315.6,327.8L315.6,327.8z"/>
				<path class="st0" d="M178,189L178,189L178,189z"/>
				<polygon class="st0" points="181.9,195.2 181.9,195.2 181.9,195.2 				"/>
				<circle class="st0" cx="198" cy="180.7" r="13.4"/>
				<circle class="st0" cx="315.6" cy="312.4" r="7.5"/>
				<path class="st0" d="M136.2,169.4c-0.4-0.3-1-0.5-1.5-0.5c-0.5,0-1.1,0.2-1.5,0.5c-0.5,0.3-0.8,0.8-1,1.3
					c-0.2,0.7-0.4,1.4-0.4,2.1l0,0c0,0.7,0.1,1.4,0.4,2.1c0.2,0.5,0.5,1,1,1.4c0.4,0.3,1,0.5,1.5,0.5h0.3l-1.7-2.5h3.6l0.4,0.5
					c0.2-0.6,0.3-1.3,0.3-1.9l0,0c0-0.7-0.1-1.4-0.4-2.1C137,170.2,136.7,169.8,136.2,169.4z"/>
				<path class="st0" d="M144.6,133.4h-1.2v4.1h1.2c0.6,0,1.1-0.1,1.6-0.5c0.4-0.4,0.6-1,0.6-1.5l0,0c0-0.6-0.2-1.1-0.6-1.5
					C145.7,133.6,145.2,133.4,144.6,133.4z"/>
				<polygon class="st0" points="176.5,108.8 175.1,113.8 177.8,113.8 176.5,108.8 				"/>
				<path class="st0" d="M247.7,171.6c0.3-0.3,0.5-0.8,0.5-1.2l0,0c0-0.5-0.2-0.9-0.5-1.2c-0.4-0.3-0.8-0.5-1.3-0.5h-1.7v3.4h1.7
					C246.9,172,247.4,171.9,247.7,171.6z"/>
			</g>
			<polygon class="st0" points="220.9,173.5 220.9,173.9 218.5,173.9 379.9,341.4 307.2,341.4 157.9,182.3 156.4,183.7 306.1,343 
				306.4,343.4 384.6,343.4 			"/>
		</g>
	</g>
</g>
</svg>
