<svg xmlns="http://www.w3.org/2000/svg" width="386.53" height="356.56" viewBox="0 0 386.53 356.56">
  <defs>
    <style>
      .cls-1 {
        fill: #4f5368;
      }

      .cls-2 {
        fill: none;
      }

      .cls-3 {
        fill: #fff;
      }
    </style>
  </defs>
  <g id="MainLogo">
    <g>
      <polygon class="cls-1" points="173.44 44.63 169.57 24.36 152.26 35.59 173.44 44.63"/>
      <path class="cls-1" d="M150.46,63l4.06-9.53A45.53,45.53,0,0,1,143.64,46Z"/>
      <path class="cls-1" d="M159.46,58.3l1-2.42c-1-.32-2-.68-2.93-1.07l1.35,3.37A2.57,2.57,0,0,1,159.46,58.3Z"/>
      <circle class="cls-1" cx="107.7" cy="264.86" r="7.48" transform="translate(-155.74 153.73) rotate(-45)"/>
      <path class="cls-1" d="M152.39,62.21l-.84,2a1.19,1.19,0,0,1,.13.25,1.33,1.33,0,0,1-.74,1.74,1.34,1.34,0,0,1-.27.07h0a1.34,1.34,0,0,1-1.31-.56l0,0,0,0a1.06,1.06,0,0,1-.11-.21,1.32,1.32,0,0,1,.13-1.25L148.88,63a2.48,2.48,0,1,0,3.86,1,2.38,2.38,0,0,0-.7-1Z"/>
      <path class="cls-1" d="M304.3,93.21a1,1,0,0,0,1.64-1.16l-4.4-6.21A1,1,0,0,0,299.9,87Z"/>
      <path class="cls-1" d="M290.46,113.34a3,3,0,0,0-3.22-4.56l-5-7.08A3,3,0,0,0,279,97.13l-.92-1.29a.94.94,0,1,0-1.53,1.08l.92,1.3a3,3,0,0,0,3.23,4.56l5,7.07a3,3,0,0,0,3.24,4.58l.91,1.29a.94.94,0,0,0,1.33.25.93.93,0,0,0,.2-1.33Zm-9.85-12.68A1,1,0,0,1,279.44,99a1,1,0,1,1,1.17,1.65Zm8.22,11.65a1,1,0,0,1-1.41-.24,1,1,0,1,1,1.41.24Z"/>
      <path class="cls-1" d="M302.49,108.06a.94.94,0,1,0-1.53,1.08l2.53,3.57-.55.39-2.53-3.57a1,1,0,0,0-1.64,1.16l2.53,3.57-.55.39-2.53-3.57a1,1,0,0,0-1.64,1.16l2.53,3.57-.8.57a1.12,1.12,0,0,0-.41,1.43l.7,1-3.39,2.4a.94.94,0,1,0,1.08,1.53l3.39-2.4.47.66-3.39,2.39a.94.94,0,1,0,1.08,1.54l3.39-2.4.31.44-3.39,2.39a1,1,0,0,0,1.16,1.65l3.39-2.4.71,1a1.11,1.11,0,0,0,1.48.08l.8-.57,2.54,3.58a1,1,0,0,0,1.64-1.16L307.33,124l.55-.39,2.54,3.59a1,1,0,0,0,1.64-1.16l-2.54-3.59.55-.39,2.53,3.59a.94.94,0,1,0,1.54-1.09l-2.54-3.58,1.08-.77a.9.9,0,0,0,.25-1.29l-.71-1,3.55-2.51a1,1,0,0,0-1.16-1.64l-3.55,2.51-.31-.44,3.55-2.51a.94.94,0,1,0-1.09-1.53l-3.54,2.51-.47-.66,3.55-2.51a.94.94,0,1,0-1.08-1.53l-3.55,2.51-.7-1a.93.93,0,0,0-1.32-.21l-1.08.77Zm3.91,5,.58.82,0,0,0,0,1.46,2,0,0,0,.05,1.45,2.06,0,0,0,0,.64.91-6.23,4.41-4.34-6.12Z"/>
      <path class="cls-1" d="M292.81,101.34l-4.39-6.21a.94.94,0,1,0-1.54,1.08l4.4,6.21a.94.94,0,1,0,1.53-1.08Z"/>
      <path class="cls-1" d="M294.56,100.1A.94.94,0,1,0,296.09,99L291.7,92.8a.94.94,0,1,0-1.53,1.09Z"/>
      <path class="cls-1" d="M297.73,97.85a1,1,0,0,0,1.39.22,1,1,0,0,0,.25-1.38L295,90.48a1,1,0,0,0-1.64,1.16Z"/>
      <path class="cls-1" d="M301,95.53a1,1,0,0,0,1.38.22,1,1,0,0,0,.26-1.38l-4.4-6.21a1,1,0,0,0-1.64,1.16Z"/>
      <path class="cls-2" d="M212,262.91a58.57,58.57,0,0,1-9.82,1.73,69.6,69.6,0,0,1-11,0,96.4,96.4,0,0,1-10.68-1.21,85.14,85.14,0,0,1-21.36-6.89,93.19,93.19,0,0,1-22.57-15.33A83.92,83.92,0,0,1,109.12,193c-2-10.88-1.44-19.3-.87-26.7.56-7.08,1.26-15.37,4.83-25.66a87.71,87.71,0,0,1,11.37-22.05,88.86,88.86,0,0,1,25.49-23.94,87.76,87.76,0,0,1,31.18-12.06,85.81,85.81,0,0,1,32.38.86c7.37,1.48,22.71,4.73,37.89,16.71,2.8,2.2,16.47,13.29,22.74,28.76a78.49,78.49,0,0,1,3.79,12.92,74.75,74.75,0,0,1,1.21,13.78,53.37,53.37,0,0,1-.87,12.4,29.69,29.69,0,0,1-2.92,9,30.94,30.94,0,0,1-6.38,7.93,39,39,0,0,1-6.89,5.33,31.39,31.39,0,0,1-9.64,4,36.42,36.42,0,0,1-9.13.69c-1.14,0-2.09-.11-2.76-.18"/>
      <path class="cls-2" d="M212,262.91a58.57,58.57,0,0,1-9.82,1.73,69.6,69.6,0,0,1-11,0,96.4,96.4,0,0,1-10.68-1.21,85.14,85.14,0,0,1-21.36-6.89,93.19,93.19,0,0,1-22.57-15.33A83.92,83.92,0,0,1,109.12,193c-2-10.88-1.44-19.3-.87-26.7.56-7.08,1.26-15.37,4.83-25.66a87.71,87.71,0,0,1,11.37-22.05,88.86,88.86,0,0,1,25.49-23.94,87.76,87.76,0,0,1,31.18-12.06,85.81,85.81,0,0,1,32.38.86c7.37,1.48,22.71,4.73,37.89,16.71,2.8,2.2,16.47,13.29,22.74,28.76a78.49,78.49,0,0,1,3.79,12.92,74.75,74.75,0,0,1,1.21,13.78,53.37,53.37,0,0,1-.87,12.4,29.69,29.69,0,0,1-2.92,9,30.94,30.94,0,0,1-6.38,7.93,39,39,0,0,1-6.89,5.33,31.39,31.39,0,0,1-9.64,4,36.42,36.42,0,0,1-9.13.69c-1.14,0-2.09-.11-2.76-.18"/>
      <circle class="cls-1" cx="198" cy="180.75" r="13.4"/>
      <circle class="cls-1" cx="354.5" cy="330.04" r="4.02"/>
      <g>
        <path class="cls-1" d="M132.49,311.2a4,4,0,1,0-1.8-5.39A4,4,0,0,0,132.49,311.2Z"/>
        <circle class="cls-1" cx="324.37" cy="164.94" r="7.48"/>
        <path class="cls-1" d="M141.7,292.8a4,4,0,1,0-1.79-5.4A4,4,0,0,0,141.7,292.8Z"/>
        <path class="cls-1" d="M154,274.61a4,4,0,1,0-5.09-2.54A4,4,0,0,0,154,274.61Z"/>
        <path class="cls-1" d="M185.94,264.21v67.08c1.2.06,2.38.1,3.54.13V264.53C188.52,264.46,187.31,264.36,185.94,264.21Z"/>
        <path class="cls-1" d="M193.48,264.77v66.69c1.2,0,2.38,0,3.53,0V264.86C195.79,264.86,194.62,264.82,193.48,264.77Z"/>
        <path class="cls-1" d="M202.13,264.64l-1.12.08v66.56q1.81-.09,3.54-.21v-66.7C203.77,264.47,203,264.56,202.13,264.64Z"/>
        <path class="cls-1" d="M84.54,227.05a4,4,0,1,0,2.93,4.87A4,4,0,0,0,84.54,227.05Z"/>
        <path class="cls-1" d="M44.29,187.61a1,1,0,0,0,1,1H51v-1.92H45.25A1,1,0,0,0,44.29,187.61Z"/>
        <path class="cls-1" d="M44.29,179.57a1,1,0,0,0,1,1H51v-1.91H45.25A1,1,0,0,0,44.29,179.57Z"/>
        <path class="cls-1" d="M44.29,163.51a1,1,0,0,0,1,1H51v-1.91H45.25A1,1,0,0,0,44.29,163.51Z"/>
        <path class="cls-1" d="M44.29,171.54a1,1,0,0,0,1,1H51v-1.91H45.25A1,1,0,0,0,44.29,171.54Z"/>
        <path class="cls-1" d="M102.07,187.61a1,1,0,0,0-.95-1H95.41v1.91h5.71A1,1,0,0,0,102.07,187.61Z"/>
        <path class="cls-1" d="M102.07,163.5a1,1,0,0,0-.95-.95H95.41v1.91h5.71A1,1,0,0,0,102.07,163.5Z"/>
        <path class="cls-1" d="M102.07,179.57a1,1,0,0,0-.95-1H95.41v1.92h5.71A1,1,0,0,0,102.07,179.57Z"/>
        <path class="cls-1" d="M44.29,155.47a1,1,0,0,0,1,1H51v-1.91H45.25A1,1,0,0,0,44.29,155.47Z"/>
        <path class="cls-1" d="M102.07,155.47a1,1,0,0,0-.95-1H95.41v1.92h5.71A1,1,0,0,0,102.07,155.47Z"/>
        <path class="cls-1" d="M102.07,171.54a1,1,0,0,0-.95-1H95.41v1.91h5.71A1,1,0,0,0,102.07,171.54Z"/>
        <path class="cls-1" d="M58.07,143.61a1,1,0,1,0-1.91,0v5.71h1.91Z"/>
        <path class="cls-1" d="M64.2,199.47a1,1,0,1,0,1.91,0v-5.71H64.2Z"/>
        <path class="cls-1" d="M72.23,199.47a1,1,0,0,0,1.92,0v-5.71H72.23Z"/>
        <path class="cls-1" d="M56.16,199.47a1,1,0,1,0,1.91,0v-5.71H56.16Z"/>
        <path class="cls-1" d="M69.12,181c1.1,2,2.52,3.21,4.06,3.21s3-1.24,4.08-3.23a20.25,20.25,0,0,1-4.07-1.1A20.77,20.77,0,0,1,69.12,181Z"/>
        <path class="cls-1" d="M77,165c.62.36,1.21.74,1.78,1.13a18.32,18.32,0,0,0-.86-2.71,18.3,18.3,0,0,0-2.8.6C75.72,164.28,76.35,164.6,77,165Z"/>
        <path class="cls-1" d="M83.43,170.32c1.18-1.95,1.53-3.8.76-5.14s-2.44-1.92-4.61-1.92h-.22a19.75,19.75,0,0,1,1.09,4.08A20.41,20.41,0,0,1,83.43,170.32Z"/>
        <path class="cls-1" d="M82.6,171.54a17.45,17.45,0,0,0-1.91-2.1c0,.68.09,1.38.09,2.1s0,1.42-.09,2.1A17.45,17.45,0,0,0,82.6,171.54Z"/>
        <path class="cls-1" d="M80.45,175.74a20.58,20.58,0,0,1-1.09,4.08c2.37,0,4.08-.63,4.83-1.93s.42-3.18-.75-5.13A21.06,21.06,0,0,1,80.45,175.74Z"/>
        <path class="cls-1" d="M71.26,164a16.91,16.91,0,0,0-2.79-.61,18.89,18.89,0,0,0-.87,2.72c.57-.4,1.16-.78,1.79-1.14S70.64,164.28,71.26,164Z"/>
        <path class="cls-1" d="M77.26,162.05c-1.1-2-2.53-3.22-4.08-3.22s-3,1.23-4.07,3.22a21.26,21.26,0,0,1,4.08,1.1A21,21,0,0,1,77.26,162.05Z"/>
        <circle class="cls-1" cx="73.18" cy="171.54" r="1.97"/>
        <path class="cls-1" d="M67.23,175a23.69,23.69,0,0,0,2.85,1.93,25.12,25.12,0,0,0,3.09,1.51,26.19,26.19,0,0,0,3.12-1.51A26.49,26.49,0,0,0,79.15,175a24.77,24.77,0,0,0,0-6.88,25.11,25.11,0,0,0-2.86-1.94,23.9,23.9,0,0,0-3.11-1.5,24.42,24.42,0,0,0-3.1,1.5,25.06,25.06,0,0,0-2.86,1.93,25.71,25.71,0,0,0-.24,3.45A24,24,0,0,0,67.23,175Zm6-6.8a3.36,3.36,0,1,1-3.35,3.35A3.36,3.36,0,0,1,73.18,168.19Z"/>
        <path class="cls-1" d="M65.92,167.35A20.4,20.4,0,0,1,67,163.27c-2.27,0-4,.58-4.82,1.91s-.47,3.12.75,5.15A20.05,20.05,0,0,1,65.92,167.35Z"/>
        <path class="cls-1" d="M75.09,179.1a16.8,16.8,0,0,0,2.8.61,16.69,16.69,0,0,0,.87-2.72c-.57.39-1.15.77-1.78,1.13S75.72,178.8,75.09,179.1Z"/>
        <path class="cls-1" d="M62.94,172.75c-1.18,1.95-1.54,3.8-.76,5.14s2.55,2,4.82,1.92a20.77,20.77,0,0,1-1.08-4.08A20.46,20.46,0,0,1,62.94,172.75Z"/>
        <path class="cls-1" d="M63.75,171.55a17.14,17.14,0,0,0,1.93,2.12c-.06-.7-.09-1.4-.09-2.13s0-1.42.09-2.11A17,17,0,0,0,63.75,171.55Z"/>
        <path class="cls-1" d="M69.39,178.12c-.62-.36-1.21-.74-1.78-1.13a18,18,0,0,0,.86,2.71,17.89,17.89,0,0,0,2.78-.61C70.63,178.8,70,178.48,69.39,178.12Z"/>
        <path class="cls-1" d="M56.64,188.08H89.73V155H56.64ZM61,164.49c1.11-1.93,3.57-2.78,6.63-2.6,1.38-2.74,3.35-4.44,5.57-4.44s4.2,1.7,5.58,4.44c3.06-.18,5.52.68,6.63,2.6s.63,4.49-1.06,7c1.68,2.57,2.17,5.12,1.06,7.05-1,1.7-3,2.62-5.83,2.62h-.8c-1.38,2.74-3.35,4.44-5.58,4.44s-4.19-1.7-5.57-4.44q-.39,0-.78,0c-2.7,0-4.83-.87-5.85-2.63-1.12-1.93-.63-4.49,1.06-7.05L62,171.4C60.27,168.78,59.92,166.33,61,164.49Z"/>
        <path class="cls-1" d="M79.57,192.38H90.91A3.13,3.13,0,0,0,94,189.27h0V186h0v-4.71h0v-3.28h0V173.2h0V169.9h0v-4.74h0v-3.28h0v-4.71h0v-3.28h0a3.13,3.13,0,0,0-3.12-3.11H55.46a3.12,3.12,0,0,0-3.11,3.11h0v3.29h0v4.74h0v3.28h0v4.71h0v3.28h0v4.72h0v3.29h0V186h0v3.28h0a3.12,3.12,0,0,0,3.11,3.11H79.57ZM56,189.47a.69.69,0,0,1-.7-.69V154.3a.69.69,0,0,1,.7-.69H90.42a.69.69,0,0,1,.69.69v34.48a.69.69,0,0,1-.69.69Z"/>
        <rect class="cls-1" x="227.89" y="40.96" width="24.4" height="25.06" transform="translate(102.1 257.11) rotate(-68.44)"/>
        <rect class="cls-1" x="246.59" y="18.71" width="0.04" height="36.54" transform="translate(121.57 252.74) rotate(-68.44)"/>
        <path class="cls-1" d="M351,176.68a149.9,149.9,0,0,0-18.42-84.11,145.38,145.38,0,0,0-10.43-16.2,157.5,157.5,0,0,0-33.29-32.19c-9.57-6.93-24-17.2-45.06-22.86C230,17.6,216.35,16.71,209,16.22c-3.72-.25-10.26-.58-18.42-.44s-20.75.34-35.07,3.32a145.57,145.57,0,0,0-40.61,15.32C92.39,47,79.11,62.14,72,70.37A152.35,152.35,0,0,0,47,109a160.86,160.86,0,0,0-12.43,49.49,163.89,163.89,0,0,0,4.22,55.71A151.68,151.68,0,0,0,63.6,266.12c14.21,18.94,29.29,29.44,38.84,36,9.09,6.21,25.93,17.5,51,24.19a153.54,153.54,0,0,0,20.93,4v-68.2a88,88,0,0,1-15.34-5.57,93.19,93.19,0,0,1-22.57-15.33A83.92,83.92,0,0,1,109.12,193c-2-10.88-1.44-19.3-.87-26.7.56-7.08,1.26-15.37,4.83-25.66a87.71,87.71,0,0,1,11.37-22.05,88.86,88.86,0,0,1,25.49-23.94,87.76,87.76,0,0,1,31.18-12.06,85.81,85.81,0,0,1,32.38.86c7.37,1.48,22.71,4.73,37.89,16.71,2.8,2.2,16.47,13.29,22.74,28.76a78.49,78.49,0,0,1,3.79,12.92,74.75,74.75,0,0,1,1.21,13.78,53.37,53.37,0,0,1-.87,12.4,29.69,29.69,0,0,1-2.92,9,30.94,30.94,0,0,1-6.38,7.93,39,39,0,0,1-6.89,5.33,31.39,31.39,0,0,1-9.64,4,36.42,36.42,0,0,1-9.13.69c-1.14,0-2.09-.11-2.76-.18l69.63,72.09A145.58,145.58,0,0,0,351,176.68ZM111.58,78.08a3.54,3.54,0,1,1,1.92,4.62A3.55,3.55,0,0,1,111.58,78.08ZM76.36,98.83a19,19,0,0,1,6.06-13.94,6.87,6.87,0,0,0,2,2.84,15.65,15.65,0,1,0,11.25-4.55q0-.3,0-.6a6.86,6.86,0,0,0-.6-2.8h.36a19,19,0,1,1-19,19Zm2.41,21.77a3.54,3.54,0,1,1,0-5A3.52,3.52,0,0,1,78.77,120.6Zm19-26.53,2.47-2.47,2.4,2.4-2.48,2.49c.1.22.2.45.28.68H104v3.4h-3.56a5.44,5.44,0,0,1-.28.66l2.52,2.51-2.4,2.41-2.54-2.54a6,6,0,0,1-.63.27v3.58h-3.4v-3.58a6.14,6.14,0,0,1-.64-.27l-2.54,2.54-2.4-2.41,2.52-2.51a5.44,5.44,0,0,1-.28-.66H86.82v-3.4h3.52a5.72,5.72,0,0,1,.28-.68L88.13,94l2.4-2.4L93,94.07a4.45,4.45,0,0,1,.71-.3V90.28h3.4v3.49A4.76,4.76,0,0,1,97.81,94.07ZM89.64,86a3.54,3.54,0,1,1,2.63-4.26A3.53,3.53,0,0,1,89.64,86ZM74.93,78.35a29,29,0,0,1,35.62-4.21,6.84,6.84,0,0,0-2,2.74,25.57,25.57,0,0,0-35.08,35,6.87,6.87,0,0,0-2.66,2.17,29,29,0,0,1,4.15-35.73ZM73.18,201.81a2.34,2.34,0,0,1-2.34-2.34v-5.71H67.5v5.71a2.35,2.35,0,0,1-4.69,0v-5.71H59.46v5.71a2.35,2.35,0,0,1-4.69,0v-5.78A4.49,4.49,0,0,1,51,190H45.25a2.35,2.35,0,0,1,0-4.69H51v-3.35H45.25a2.34,2.34,0,0,1,0-4.68H51v-3.35H45.25a2.34,2.34,0,1,1,0-4.68H51v-3.35H45.25a2.35,2.35,0,0,1,0-4.69H51v-3.35H45.25a2.34,2.34,0,1,1,0-4.68H51a4.48,4.48,0,0,1,3.74-3.74v-5.78a2.34,2.34,0,1,1,4.68,0v5.71H62.8v-5.71a2.35,2.35,0,1,1,4.69,0v5.71h3.35v-5.71a2.34,2.34,0,1,1,4.68,0v5.71h3.35v-5.71a2.35,2.35,0,1,1,4.69,0v5.71h3.35v-5.71a2.34,2.34,0,1,1,4.68,0v5.78a4.5,4.5,0,0,1,3.75,3.73h5.78a2.35,2.35,0,0,1,0,4.69H95.41v3.35h5.71a2.35,2.35,0,0,1,0,4.69H95.41v3.34h5.71a2.35,2.35,0,0,1,0,4.69H95.41v3.34h5.71a2.35,2.35,0,0,1,0,4.69H95.41v3.35h5.71a2.35,2.35,0,0,1,0,4.69H95.34a4.49,4.49,0,0,1-3.74,3.74v5.78a2.35,2.35,0,0,1-4.69,0v-5.71H83.57v5.71a2.35,2.35,0,0,1-4.69,0v-5.71H75.53v5.71A2.35,2.35,0,0,1,73.18,201.81Zm10.39,37.41A8.27,8.27,0,1,1,91.84,231,8.27,8.27,0,0,1,83.57,239.22Zm61.75,27.87a8.27,8.27,0,1,1,3.7,11.1A8.28,8.28,0,0,1,145.32,267.09Zm-9.21,18.41a8.27,8.27,0,1,1,3.69,11.1A8.26,8.26,0,0,1,136.11,285.5Zm-9.21,18.41A8.26,8.26,0,1,1,130.59,315,8.25,8.25,0,0,1,126.9,303.91Zm-3.8-39.05a15.4,15.4,0,1,1-15.4-15.39A15.39,15.39,0,0,1,123.1,264.86Zm-7.21-145.55a29,29,0,0,1-35.54,4.26,6.92,6.92,0,0,0,2.15-2.67,25.57,25.57,0,0,0,34.88-35.14,6.94,6.94,0,0,0,2.75-2,29,29,0,0,1-4.24,35.58Zm46-63L160.76,59a3.61,3.61,0,0,1-.48,5.81l.74,1.85,7.51,7-10.37-3.45,10.34,4.41a4.26,4.26,0,0,0,3.27,0l3.7-1.49,1.2,3,.52,1.31-30.61,12.3-.52-1.31-.73-1.8,18.38-7.38-.82-2-14.65,5.89,2.39-13a5.2,5.2,0,0,0,3.13-9.19l.72-.29.31-.12.24-.1a3.58,3.58,0,0,1,2.14-2.08l.19-.07-1.59-4L152.5,62a3.67,3.67,0,0,1,1.3,1.62,3.62,3.62,0,1,1-5.36-1.66l-7.52-18.71c-3.95-4.51-5.74-8.93-4.69-11.38l13.67,5.83.67-.27.27.67,36.4,15.54C185.48,57.74,174.17,59.9,161.91,56.32Zm25.8-3.81-51-21.77.64-1.52,32.23-4.86L188.36,51ZM336.86,218a1,1,0,0,1-1.43,0l-1.77-1.83a1,1,0,0,1,1.46-1.42l1.77,1.83A1,1,0,0,1,336.86,218Zm3.91-6.51a1,1,0,0,1-1.26.69l-2.45-.7a1,1,0,0,1,.56-1.95l2.45.7A1,1,0,0,1,340.77,211.48Zm-5.42-11a1,1,0,0,1-1.42-1.46l1.83-1.77a1,1,0,0,1,1.42,1.46Zm5.54,3.43a1,1,0,0,1-.74,1.23l-2.47.62a1,1,0,0,1-.49-2l2.47-.62A1,1,0,0,1,340.89,203.88Zm-1.13-38.94a15.4,15.4,0,1,1-15.39-15.39A15.39,15.39,0,0,1,339.76,164.94Zm-8.38,29.65-.7,2.45a1,1,0,0,1-1.25.7,1,1,0,0,1-.7-1.26l.7-2.45a1,1,0,0,1,1.95.56Zm-7.18,3.06a1,1,0,0,1-1.23-.73l-.62-2.47a1,1,0,0,1,2-.5l.62,2.47A1,1,0,0,1,324.2,197.65Zm-7.37,9.23-5.5-5.69,4-4.48,4.33,4.47.63.65Zm4.19-4.25,4.75,4.91-3,5.49-5.18-5.35Zm-45.75-1.18,8-5,7.06,7.3-7.1,5.89Zm11.41,13.35,2.23,2.31-6.85,6.63-2.24-2.3Zm-2.52-19,6-3.82,6.32,6.52L291.12,203Zm19.07-1.44,6.61,6.83-4.39,5-7.31-7.55Zm-5.86,3.44-6.21-6.42,5.7-3.59,5.61,5.78Zm6.7-4.14,4.61-3.82,5.85,6.05-4,4.47Zm-.76-.79-5.5-5.68L303,184l5,5.11ZM297,186.43l-5.18-5.35,5.59-2.81,4.75,4.91Zm-.94.59-5.71,3.6-5.73-5.92,6.18-3.11Zm1.2,12.31,7.43,7.67-4.66,5.26-8.18-8.45Zm8.19,8.46,6.32,6.52-4,5.93-7-7.19Zm.73-.82,4.39-5,5.6,5.79-3.78,5.59ZM273.55,79.22l4.63,6.54a1,1,0,0,0,1.64-1.16l-4.63-6.54.44-.31,2.89,4.08a1,1,0,0,0,1.64-1.16l-2.89-4.08,1.09-.78L283,82.36a.94.94,0,1,0,1.53-1.09l-4.63-6.54,3.4-2.4,6.65,9.41-4.76,3.37a2.79,2.79,0,0,0-2.84.08,2.76,2.76,0,0,0-1,2.65l-7,5-6.66-9.41,3.28-2.32,2.89,4.08A1,1,0,0,0,275.45,84l-2.89-4.08Zm10.62,8.55a.6.6,0,0,1-.84-.14.61.61,0,0,1,.14-.84.6.6,0,0,1,.7,1ZM252.9,76.22l-1.22,3.1-2.07-.82-2.94,7.44-1.86-.73,2.94-7.44L245.68,77l-2.94,7.44-1.86-.74,2.94-7.43-2.07-.82-2.94,7.43L237,82.1l2.94-7.44-2.07-.81-2.94,7.43L233,80.55,236,73.11l-2.07-.82L231,79.73,229.09,79,232,71.56,230,70.74,227,78.18l-1.86-.74L228.1,70,226,69.19l-2.94,7.43-1.86-.73,2.94-7.44-2.07-.82-2.94,7.44-1.86-.74,2.94-7.43-2.07-.82-2.94,7.44-1.86-.74,2.94-7.43L214,64.42l1.23-3.1-6.91-2.74.73-1.86,6.91,2.73.82-2.06-6.91-2.74.73-1.86,6.91,2.73.82-2.06-6.91-2.74.74-1.86L219,51.59l.82-2.06L213,46.79l.73-1.86,6.91,2.74.82-2.07-6.91-2.74.73-1.86,6.91,2.74.82-2.07-6.91-2.73.74-1.87,6.91,2.74.81-2.07L217.6,35l.74-1.87,6.91,2.74.82-2.07-6.91-2.73.73-1.87L226.8,32l1.7-4.29,2.34.92L234,20.71l1.86.73-3.11,7.88,2.07.82,3.11-7.88,1.86.74-3.11,7.87,2.07.82,3.11-7.87,1.86.73-3.11,7.87,2.07.82,3.11-7.87,1.86.73L244.49,34l2.07.81,3.11-7.87,1.86.74-3.11,7.87,2.07.82,3.11-7.88,1.86.74-3.11,7.87,2.07.82L257.53,30l1.86.73-3.11,7.88,2.07.81,3.11-7.87,1.86.74-3.11,7.87,2.07.82,3.11-7.88,1.86.74-3.11,7.87,2.06.82-1.69,4.29,7.82,3.09-.74,1.86-7.82-3.09L263,50.78l7.81,3.09L270,55.73l-7.82-3.09-.82,2.07,7.82,3.09-.73,1.86-7.82-3.09-.82,2.07,7.82,3.09-.74,1.86-7.82-3.09-.81,2.07,7.82,3.09-.74,1.86-7.82-3.09-.82,2.07,7.82,3.09-.73,1.86L256,68.36l-.82,2.07L263,73.52l-.74,1.86-7.81-3.09-.82,2.07,7.82,3.08-.74,1.87ZM271,101.35a5.16,5.16,0,0,0-5.85-8.28l-3.73-5.26,4.6-3.25,7.23,10.22a1.17,1.17,0,0,0,1.52.17l7.74-5.47a2.55,2.55,0,0,0,3.85-2.72l5.6-4a.92.92,0,0,0,.11-1.33l-7.23-10.21,10.61-7.51,3.33,4.7-3.53,2.5a1.12,1.12,0,0,0-.42,1.43l3.91,5.52a1.18,1.18,0,0,0,1.54.16l3.53-2.5,12.54,17.73-5.67,4a1,1,0,0,0-.4,1.32l2.1,3a3,3,0,0,0,.27,3.21,3.18,3.18,0,0,0,4.41.71,3.12,3.12,0,0,0,.74-4.36,3.17,3.17,0,0,0-4-1l-1.33-1.88,4.93-3.48,6,8.42-4.15,2.94a1,1,0,0,0-.4,1.31l3.91,5.52a1.07,1.07,0,0,0,1.44.18l4.15-2.94L331,114l-6.94,4.9a2.8,2.8,0,0,0-3.46,0,2.92,2.92,0,0,0-.73,4.1,3,3,0,0,0,4.13.71,3.05,3.05,0,0,0,1.14-3.22l6.94-4.91,2.63,3.72-34,24.07-1.85-2.6A5.16,5.16,0,0,0,293,132.4Zm43.37.82,0,0a.93.93,0,0,1,.18-.16,1.18,1.18,0,1,1-.21.19ZM322.83,122a1,1,0,1,1,.14-1.54.64.64,0,0,0,.08.14.69.69,0,0,0,.11.13A1,1,0,0,1,322.83,122Zm-39.2,63.2,5.81,6L283.39,195l-6.32-6.52ZM276.05,189l6.39,6.6-7.95,5-7.05-7.28Zm16.35,54.2a.54.54,0,0,1-.58-.14l-31-32a.55.55,0,0,1,.63-.88l9.31,3.54h0a.54.54,0,0,1,.21.13l18.42,19a.47.47,0,0,1,.13.24l3.24,9.43-.52.18.52-.18A.54.54,0,0,1,292.4,243.23Zm-3.82-28-4.64-4.79,7.1-5.88,8.29,8.56-6.11,6.9Zm5.4,5.58,6.12-6.9,7.06,7.29-5.27,7.78ZM309.72,237l-7.05-7.29,5.26-7.78,6.39,6.61Zm5.15-9.47L308.56,221l4-5.93,5.81,6Zm-1.67-13.37L317,208.6l5.25,5.43-3.3,6.08Zm11.38,4.22-.69,2.45a1,1,0,1,1-2-.56l.7-2.45a1,1,0,0,1,1.26-.69A1,1,0,0,1,324.58,218.41Zm5.65,3.27a1,1,0,0,1-1.23-.74l-.62-2.47a1,1,0,1,1,2-.49l.62,2.47A1,1,0,0,1,330.23,221.68Zm-2.6-5.62a8.68,8.68,0,0,1-4.86-.73l4.14-7.6a.56.56,0,0,0-.07-.67l-6-6.23a8.7,8.7,0,0,1,11.89.56,8.7,8.7,0,0,1-5.06,14.67Z"/>
        <path class="cls-1" d="M90.21,143.61a1,1,0,1,0-1.91,0v5.71h1.91Z"/>
        <path class="cls-1" d="M66.1,143.61a1,1,0,1,0-1.91,0v5.71H66.1Z"/>
        <path class="cls-1" d="M80.27,199.47a1,1,0,1,0,1.91,0v-5.71H80.27Z"/>
        <path class="cls-1" d="M88.3,199.47a1,1,0,1,0,1.91,0v-5.71H88.3Z"/>
        <path class="cls-1" d="M82.17,143.61a1,1,0,1,0-1.91,0v5.71h1.91Z"/>
        <path class="cls-1" d="M74.14,143.61a1,1,0,0,0-1.92,0v5.71h1.92Z"/>
        <path class="cls-1" d="M180.43,263.43c-.51-.09-1.2-.22-2-.39v67.71c1.19.12,2.37.21,3.53.3V263.68Z"/>
        <path class="cls-1" d="M354.28,131.33a155.83,155.83,0,0,0-26.81-59A165.14,165.14,0,0,0,292.8,38.87c-9.17-6.65-24.53-17.79-47-23.81-14.42-3.88-28.62-4.81-36.25-5.32-6.28-.41-12.72-.56-19.14-.46-8.59.15-21.56.36-36.48,3.47a151.44,151.44,0,0,0-42.31,16C87.78,42,73.8,58.3,67.07,66.13A157.44,157.44,0,0,0,41,106.33,168.58,168.58,0,0,0,28,157.86a170.6,170.6,0,0,0,4.4,58,157.26,157.26,0,0,0,25.89,54.08c15.1,20.13,31.57,31.39,40.42,37.44,8.59,5.86,26.45,18.07,53.13,25.17A160.92,160.92,0,0,0,193.34,338a164.45,164.45,0,0,0,18.37-1l.89-.1v-80l-1.23.3a72.44,72.44,0,0,1-28.89,1.19,70.62,70.62,0,0,1-22.24-7.47,83.25,83.25,0,0,1-13.46-9.54,131.16,131.16,0,0,1-13.33-12.83,61.29,61.29,0,0,1-6.79-8.31,68.91,68.91,0,0,1-6.1-12.89c-2.12-5.72-4.13-11.12-5.29-18.75-1.26-8.26-.79-14.63-.33-20.79A99.52,99.52,0,0,1,118,147.94a81.52,81.52,0,0,1,11.92-26.39,77.29,77.29,0,0,1,28.91-25,83.58,83.58,0,0,1,20.08-6.8,90.36,90.36,0,0,1,31.7-.68,60.88,60.88,0,0,1,14.76,3.39c6.08,2.32,10.16,5.13,15.81,9a82.12,82.12,0,0,1,13.46,10.9,59.81,59.81,0,0,1,9,11.36,56.51,56.51,0,0,1,5.92,13.36,61.57,61.57,0,0,1,2,12.74c.72,7.79,1.07,11.71-.15,16.9a28.39,28.39,0,0,1-4.82,11,26.89,26.89,0,0,1-8.47,7.47,29.84,29.84,0,0,1-11,3.33,44.29,44.29,0,0,1-11.79.17l-.24,2a45.42,45.42,0,0,0,12.33-.18,31.63,31.63,0,0,0,11.7-3.56,28.81,28.81,0,0,0,9.11-8,30.15,30.15,0,0,0,5.16-11.73c1.3-5.51.91-9.79.2-17.54a63.89,63.89,0,0,0-2.11-13.11,58.37,58.37,0,0,0-6.13-13.85A62.15,62.15,0,0,0,256.07,111a84.18,84.18,0,0,0-13.76-11.15c-5.76-4-9.92-6.83-16.23-9.24a62.42,62.42,0,0,0-15.2-3.5,92.34,92.34,0,0,0-32.38.7,85.69,85.69,0,0,0-20.57,7,79,79,0,0,0-29.65,25.64,83.27,83.27,0,0,0-12.21,27,101.65,101.65,0,0,0-3.13,20.17c-.46,6.26-.94,12.74.35,21.23a89.82,89.82,0,0,0,5.4,19.15,67.75,67.75,0,0,0,6.3,13.29,64.12,64.12,0,0,0,7,8.56,131.35,131.35,0,0,0,13.55,13,84.38,84.38,0,0,0,13.76,9.74,72.17,72.17,0,0,0,22.88,7.69,74.27,74.27,0,0,0,28.44-.93v3.9c-.63.15-1.31.3-2,.45v67l2-.22v4.53a159.63,159.63,0,0,1-58.22-4.43c-26.35-7-44-19.09-52.52-24.9-9.37-6.4-25-17.11-39.95-37a155.44,155.44,0,0,1-25.56-53.39A168.58,168.58,0,0,1,30,158.05a166.39,166.39,0,0,1,12.77-50.9,155.81,155.81,0,0,1,25.8-39.72c6.65-7.74,20.48-23.84,44.06-37a149.08,149.08,0,0,1,41.74-15.74c14.73-3.07,27.59-3.29,36.1-3.43,6.36-.11,12.75.05,19,.46,7.56.5,21.63,1.42,35.86,5.25,22.06,5.93,37.23,16.93,46.3,23.5a162.37,162.37,0,0,1,34.23,33.09,151.14,151.14,0,0,1,10.73,16.65,154.18,154.18,0,0,1,18.94,86.48,149.72,149.72,0,0,1-42,92.63l1.43,1.39a151.7,151.7,0,0,0,42.54-93.86A155.8,155.8,0,0,0,354.28,131.33Z"/>
      </g>
      <g>
        <path class="cls-1" d="M349.87,323.19,232.88,199l-6-6.61-2.74-3-4.65-5.51,14-.76-1.27,4.36,34.28-8.41-24.42-25.48-3.68,12.64v-.39l-11.56.62,20.08-17.89,6.78,7.06,9.85-33.89-34.28,8.41,5.88,6.13L214.5,154.67l8.86-30.26,8.91,3.52L227.09,93,199.45,115l8,3.17-10.11,34.54-11.64-33.95,9.23-3.15L168.39,92.34,161.56,127l8.09-2.76,10.94,31.94-24.35-19.25,5.78-7.8-35.07-4L141,157.45l5.11-6.89,22.57,17.85-23.16-2.65,1-8.38-32.51,13.75,28.16,21.28,1.22-9.78,33.7,3.85a21.64,21.64,0,1,1,7.18,11l.72.69,9.48,9.89,115,125.2,37.54.22a8.22,8.22,0,0,1,2.86-10.32ZM240.51,165.5h6.35a7.5,7.5,0,0,1,3.06.56,4,4,0,0,1,1.89,1.63,5,5,0,0,1,.64,2.63v0a4.77,4.77,0,0,1-.62,2.42,3.8,3.8,0,0,1-1.64,1.59l2.67,5.24h-4.63L246,175h-1.36v4.63h-4.14Zm2.79-36.63h9.94v3.28h-5.8v2.24h5.44v3.05h-5.44v2.24h5.8V143H243.3ZM151,135.48a5.3,5.3,0,0,1-.66,2.7,4.5,4.5,0,0,1-1.87,1.77,6.19,6.19,0,0,1-2.86.62h-2.15v3.84h-4.14V130.32h6.29a6,6,0,0,1,2.86.64,4.59,4.59,0,0,1,1.87,1.78,5.4,5.4,0,0,1,.66,2.72Zm-9.17,37.39a8.17,8.17,0,0,1-.87,3.88,6.16,6.16,0,0,1-1.2,1.59l1.81,2.62H137.9l-.79-1.14a8.44,8.44,0,0,1-2.43.34,7.64,7.64,0,0,1-3.77-.88,6.06,6.06,0,0,1-2.46-2.53,8.29,8.29,0,0,1-.86-3.88v0a8.14,8.14,0,0,1,.87-3.88,6.1,6.1,0,0,1,2.46-2.52,8.43,8.43,0,0,1,7.54,0,6,6,0,0,1,2.46,2.52,8.14,8.14,0,0,1,.87,3.88Zm37.55-53.31-.74-2.8h-4.21l-.74,2.8H169.3l4.6-14.09h5.19l4.6,14.09Zm34-5a8.51,8.51,0,0,1-.85-4h0a8.51,8.51,0,0,1,.85-4,5.85,5.85,0,0,1,2.42-2.48,7.66,7.66,0,0,1,3.72-.86,7.2,7.2,0,0,1,3.43.78,5.79,5.79,0,0,1,2.29,2.09,5.52,5.52,0,0,1,.82,3v.09h-4v-.12a3,3,0,0,0-.38-1.25,2.27,2.27,0,0,0-.87-.87,2.63,2.63,0,0,0-1.32-.32,2.43,2.43,0,0,0-1.47.46,2.93,2.93,0,0,0-1,1.33,5.94,5.94,0,0,0-.34,2.11h0a6.1,6.1,0,0,0,.34,2.13,3,3,0,0,0,1,1.35,2.47,2.47,0,0,0,1.48.45,2.65,2.65,0,0,0,1.27-.3,2.44,2.44,0,0,0,.9-.85,3.11,3.11,0,0,0,.41-1.3V112h4v.1a5.41,5.41,0,0,1-.84,3,5.82,5.82,0,0,1-2.3,2.09,7.24,7.24,0,0,1-3.42.77,7.59,7.59,0,0,1-3.73-.86A5.8,5.8,0,0,1,213.37,114.58ZM315.58,327.81a15.36,15.36,0,0,1-13.85-22.09l-88.88-94.48,8-7.53,88.87,94.46a15.4,15.4,0,1,1,5.85,29.64Z"/>
        <path class="cls-1" d="M178,189h0v0Z"/>
        <polygon class="cls-1" points="181.92 195.23 181.93 195.24 181.93 195.23 181.92 195.23"/>
        <circle class="cls-1" cx="198" cy="180.75" r="13.4"/>
        <circle class="cls-1" cx="315.58" cy="312.41" r="7.48"/>
        <path class="cls-1" d="M136.21,169.41a2.59,2.59,0,0,0-1.53-.47,2.53,2.53,0,0,0-1.51.47,3,3,0,0,0-1,1.34,5.73,5.73,0,0,0-.35,2.1v0a5.75,5.75,0,0,0,.35,2.09,3.13,3.13,0,0,0,1,1.35,2.43,2.43,0,0,0,1.51.47l.31,0-1.72-2.48h3.64l.35.51a5.6,5.6,0,0,0,.31-1.92v0a5.47,5.47,0,0,0-.36-2.09A3,3,0,0,0,136.21,169.41Z"/>
        <path class="cls-1" d="M144.59,133.44h-1.17v4.07h1.17a2.33,2.33,0,0,0,1.6-.51,1.92,1.92,0,0,0,.59-1.52v0a1.9,1.9,0,0,0-.59-1.52A2.38,2.38,0,0,0,144.59,133.44Z"/>
        <polygon class="cls-1" points="176.46 108.83 175.15 113.84 177.84 113.84 176.53 108.83 176.46 108.83"/>
        <path class="cls-1" d="M247.73,171.56a1.64,1.64,0,0,0,.5-1.25v0a1.64,1.64,0,0,0-.51-1.25,1.91,1.91,0,0,0-1.34-.48h-1.73V172h1.73A1.89,1.89,0,0,0,247.73,171.56Z"/>
      </g>
      <polygon class="cls-1" points="220.87 173.5 220.87 173.94 218.51 173.94 379.87 341.36 307.25 341.36 157.9 182.34 156.44 183.71 306.08 343.04 306.38 343.36 384.57 343.36 220.87 173.5"/>
    </g>
  </g>
  <g id="Active">
    <circle class="cls-3" cx="197.96" cy="180.79" r="21.64"/>
    <circle class="cls-1" cx="197.96" cy="180.79" r="13.4"/>
  </g>
</svg>
