<svg xmlns="http://www.w3.org/2000/svg" viewBox="0 0 386.53 356.56"><polygon points="161.96 52.63 158.09 32.36 140.78 43.59 161.96 52.63" fill="#4f5368"/><path d="M139,71,143,61.45A45.5,45.5,0,0,1,132.16,54Z" fill="#4f5368"/><path d="M148,66.3l1-2.42c-1-.32-2-.68-2.93-1.07l1.35,3.37A4.71,4.71,0,0,1,148,66.3Z" fill="#4f5368"/><circle cx="96.22" cy="272.86" r="7.48" transform="translate(-164.76 147.96) rotate(-45)" fill="#4f5368"/><path d="M140.91,70.22l-.84,2a1.83,1.83,0,0,1,.13.24,1.34,1.34,0,0,1-.74,1.74,1.38,1.38,0,0,1-.27.08h0a1.36,1.36,0,0,1-1.31-.56l0,0v0a1.39,1.39,0,0,1-.11-.21,1.34,1.34,0,0,1,.14-1.25L137.39,71a2.47,2.47,0,1,0,3.17,0Z" fill="#4f5368"/><path d="M292.82,101.21a1,1,0,0,0,1.38.22,1,1,0,0,0,.26-1.38l-4.4-6.21A1,1,0,0,0,288.42,95Z" fill="#4f5368"/><path d="M279,121.34a3,3,0,0,0-3.22-4.56l-5-7.08a3,3,0,0,0-3.23-4.56l-.92-1.3a.94.94,0,1,0-1.53,1.08l.91,1.3a3,3,0,0,0,3.24,4.57l5,7.07a3,3,0,0,0,3.24,4.57l.91,1.29a.94.94,0,1,0,1.53-1.08Zm-9.86-12.67a1,1,0,1,1,.24-1.41A1,1,0,0,1,269.12,108.67Zm8.23,11.64a1,1,0,0,1-1.17-1.65,1,1,0,1,1,1.17,1.65Z" fill="#4f5368"/><path d="M291,116.06a.94.94,0,1,0-1.53,1.08l2.52,3.57-.54.39-2.53-3.57a1,1,0,0,0-1.38-.22,1,1,0,0,0-.26,1.38l2.53,3.57-.55.39-2.53-3.57a1,1,0,0,0-1.64,1.16l2.53,3.57-.8.57a1.1,1.1,0,0,0-.41,1.43l.7,1-3.39,2.4a.94.94,0,1,0,1.08,1.53l3.39-2.4.46.66-3.39,2.4a.94.94,0,1,0,1.09,1.53l3.39-2.4.31.44-3.39,2.4a1,1,0,0,0,1.16,1.64l3.39-2.4.71,1a1.11,1.11,0,0,0,1.48.08l.8-.57,2.53,3.59a1,1,0,0,0,1.39.21,1,1,0,0,0,.26-1.37L295.85,132l.55-.39,2.53,3.59a1,1,0,0,0,1.39.21,1,1,0,0,0,.25-1.37L298,130.4l.54-.39,2.54,3.59a.94.94,0,1,0,1.53-1.08l-2.53-3.59,1.08-.76a.91.91,0,0,0,.25-1.3l-.71-1,3.55-2.51a1,1,0,0,0,.21-1.38,1,1,0,0,0-1.38-.26l-3.54,2.51-.31-.44,3.54-2.51a.94.94,0,1,0-1.08-1.53l-3.55,2.51-.46-.65,3.55-2.51a.94.94,0,1,0-1.09-1.54l-3.55,2.51-.7-1a.91.91,0,0,0-1.31-.21l-1.08.76Zm3.91,5.06.57.81,0,0,0,0,1.46,2.06,0,0,0,.05,1.46,2.06,0,.05s0,0,0,0l.64.91L293,131.66l-4.33-6.13Z" fill="#4f5368"/><path d="M281.33,109.34l-4.4-6.21a.94.94,0,1,0-1.53,1.08l4.4,6.21a.94.94,0,0,0,1.32.26A1,1,0,0,0,281.33,109.34Z" fill="#4f5368"/><path d="M283.08,108.1a.94.94,0,1,0,1.53-1.08l-4.4-6.21a.94.94,0,0,0-1.32-.26,1,1,0,0,0-.21,1.34Z" fill="#4f5368"/><path d="M286.25,105.86a1,1,0,0,0,1.64-1.17l-4.39-6.21a1,1,0,0,0-1.39-.21,1,1,0,0,0-.25,1.37Z" fill="#4f5368"/><path d="M289.53,103.53a1,1,0,0,0,1.39.22,1,1,0,0,0,.25-1.38l-4.39-6.21a1,1,0,0,0-1.64,1.16Z" fill="#4f5368"/><path d="M200.46,270.92a59.43,59.43,0,0,1-9.81,1.72,68.55,68.55,0,0,1-11,0,94,94,0,0,1-10.68-1.21,85.27,85.27,0,0,1-21.36-6.89A93.21,93.21,0,0,1,125,249.21,84,84,0,0,1,97.63,201c-2-10.88-1.44-19.3-.86-26.7.55-7.08,1.25-15.36,4.82-25.66A88.06,88.06,0,0,1,113,126.57a89,89,0,0,1,25.5-23.94,87.8,87.8,0,0,1,31.17-12.06,86,86,0,0,1,32.38.86c7.38,1.48,22.71,4.73,37.9,16.71,2.8,2.21,16.47,13.29,22.74,28.77a78.23,78.23,0,0,1,3.79,12.91,73.86,73.86,0,0,1,1.2,13.78,54,54,0,0,1-.86,12.41,29.67,29.67,0,0,1-2.93,9,30.72,30.72,0,0,1-6.37,7.93,39.8,39.8,0,0,1-6.89,5.34,31.15,31.15,0,0,1-9.65,4,36.42,36.42,0,0,1-9.13.69c-1.13,0-2.08-.11-2.75-.17" fill="none"/><path d="M200.46,270.92a59.43,59.43,0,0,1-9.81,1.72,68.55,68.55,0,0,1-11,0,94,94,0,0,1-10.68-1.21,85.27,85.27,0,0,1-21.36-6.89A93.21,93.21,0,0,1,125,249.21,84,84,0,0,1,97.63,201c-2-10.88-1.44-19.3-.86-26.7.55-7.08,1.25-15.36,4.82-25.66A88.06,88.06,0,0,1,113,126.57a89,89,0,0,1,25.5-23.94,87.8,87.8,0,0,1,31.17-12.06,86,86,0,0,1,32.38.86c7.38,1.48,22.71,4.73,37.9,16.71,2.8,2.21,16.47,13.29,22.74,28.77a78.23,78.23,0,0,1,3.79,12.91,73.86,73.86,0,0,1,1.2,13.78,54,54,0,0,1-.86,12.41,29.67,29.67,0,0,1-2.93,9,30.72,30.72,0,0,1-6.37,7.93,39.8,39.8,0,0,1-6.89,5.34,31.15,31.15,0,0,1-9.65,4,36.42,36.42,0,0,1-9.13.69c-1.13,0-2.08-.11-2.75-.17" fill="none"/><circle cx="186.52" cy="188.75" r="13.4" fill="#4f5368"/><circle cx="343.02" cy="338.04" r="4.02" fill="#4f5368"/><path d="M121,319.2a4,4,0,1,0-1.8-5.39A4,4,0,0,0,121,319.2Z" fill="#4f5368"/><circle cx="312.88" cy="172.95" r="7.48" fill="#4f5368"/><path d="M130.22,300.8a4,4,0,1,0-1.79-5.4A4,4,0,0,0,130.22,300.8Z" fill="#4f5368"/><path d="M142.5,282.61a4,4,0,1,0-5.08-2.54A4,4,0,0,0,142.5,282.61Z" fill="#4f5368"/><path d="M174.46,272.21v67.08c1.2.06,2.38.1,3.54.13V272.53C177,272.46,175.83,272.36,174.46,272.21Z" fill="#4f5368"/><path d="M182,272.77v66.7c1.2,0,2.38,0,3.53-.05V272.86C184.31,272.86,183.14,272.82,182,272.77Z" fill="#4f5368"/><path d="M190.65,272.64l-1.12.08v66.56q1.82-.09,3.54-.21v-66.7C192.29,272.47,191.49,272.56,190.65,272.64Z" fill="#4f5368"/><path d="M73.05,235.05A4,4,0,1,0,76,239.92,4,4,0,0,0,73.05,235.05Z" fill="#4f5368"/><path d="M32.81,195.61a1,1,0,0,0,1,1h5.71v-1.91H33.77A1,1,0,0,0,32.81,195.61Z" fill="#4f5368"/><path d="M32.81,187.58a1,1,0,0,0,1,.95h5.71v-1.91H33.77A1,1,0,0,0,32.81,187.58Z" fill="#4f5368"/><path d="M32.81,171.51a1,1,0,0,0,1,1h5.71v-1.92H33.77A1,1,0,0,0,32.81,171.51Z" fill="#4f5368"/><path d="M32.81,179.54a1,1,0,0,0,1,1h5.71v-1.91H33.77A1,1,0,0,0,32.81,179.54Z" fill="#4f5368"/><path d="M90.59,195.61a1,1,0,0,0-1-1H83.92v1.91h5.71A1,1,0,0,0,90.59,195.61Z" fill="#4f5368"/><path d="M90.59,171.5a1,1,0,0,0-1-.95H83.92v1.91h5.71A1,1,0,0,0,90.59,171.5Z" fill="#4f5368"/><path d="M90.59,187.57a1,1,0,0,0-1-1H83.92v1.92h5.71A1,1,0,0,0,90.59,187.57Z" fill="#4f5368"/><path d="M32.81,163.48a1,1,0,0,0,1,1h5.71v-1.91H33.77A1,1,0,0,0,32.81,163.48Z" fill="#4f5368"/><path d="M90.59,163.47a1,1,0,0,0-1-1H83.92v1.92h5.71A1,1,0,0,0,90.59,163.47Z" fill="#4f5368"/><path d="M90.59,179.54a1,1,0,0,0-1-1H83.92v1.92h5.71A1,1,0,0,0,90.59,179.54Z" fill="#4f5368"/><path d="M46.59,151.61a1,1,0,1,0-1.92,0v5.71h1.92Z" fill="#4f5368"/><path d="M52.71,207.48a1,1,0,0,0,1.92,0v-5.72H52.71Z" fill="#4f5368"/><path d="M60.75,207.48a1,1,0,0,0,1.91,0v-5.72H60.75Z" fill="#4f5368"/><path d="M44.68,207.48a1,1,0,0,0,1.91,0v-5.72H44.68Z" fill="#4f5368"/><path d="M57.63,189c1.1,2,2.53,3.21,4.07,3.21s3-1.24,4.08-3.23a21.16,21.16,0,0,1-4.08-1.09A21,21,0,0,1,57.63,189Z" fill="#4f5368"/><path d="M65.5,173c.62.36,1.21.75,1.78,1.14a18.09,18.09,0,0,0-.86-2.72,18.41,18.41,0,0,0-2.81.6C64.24,172.28,64.87,172.6,65.5,173Z" fill="#4f5368"/><path d="M72,178.32c1.17-1.94,1.52-3.8.75-5.13s-2.43-1.93-4.6-1.93h-.22A20.4,20.4,0,0,1,69,175.35,20.41,20.41,0,0,1,72,178.32Z" fill="#4f5368"/><path d="M71.12,179.54a18.33,18.33,0,0,0-1.91-2.1c.05.68.09,1.38.09,2.1s0,1.42-.09,2.11A18.4,18.4,0,0,0,71.12,179.54Z" fill="#4f5368"/><path d="M69,183.74a21.09,21.09,0,0,1-1.09,4.08c2.37,0,4.08-.63,4.82-1.92s.42-3.19-.75-5.14A20.45,20.45,0,0,1,69,183.74Z" fill="#4f5368"/><path d="M59.78,172a17.14,17.14,0,0,0-2.79-.61,18.89,18.89,0,0,0-.87,2.72c.57-.39,1.16-.77,1.78-1.14S59.15,172.29,59.78,172Z" fill="#4f5368"/><path d="M65.77,170.06c-1.1-2-2.53-3.23-4.07-3.23s-3,1.23-4.07,3.22a21.37,21.37,0,0,1,4.07,1.1A20.59,20.59,0,0,1,65.77,170.06Z" fill="#4f5368"/><circle cx="61.7" cy="179.54" r="1.97" fill="#4f5368"/><path d="M55.74,183a25.77,25.77,0,0,0,2.85,1.92,25.23,25.23,0,0,0,3.1,1.51,26.07,26.07,0,0,0,3.11-1.51A24.25,24.25,0,0,0,67.66,183a23.79,23.79,0,0,0,0-6.88,24.2,24.2,0,0,0-2.86-1.93,23.23,23.23,0,0,0-3.1-1.51,24.54,24.54,0,0,0-3.11,1.5,25,25,0,0,0-2.85,1.94,23.9,23.9,0,0,0-.25,3.44A24.29,24.29,0,0,0,55.74,183Zm6-6.81a3.36,3.36,0,1,1-3.35,3.35A3.36,3.36,0,0,1,61.7,176.19Z" fill="#4f5368"/><path d="M54.43,175.35a21.09,21.09,0,0,1,1.09-4.08c-2.27,0-4.06.58-4.83,1.92s-.47,3.11.75,5.14A21.06,21.06,0,0,1,54.43,175.35Z" fill="#4f5368"/><path d="M63.61,187.11a19.08,19.08,0,0,0,2.8.61,18.21,18.21,0,0,0,.87-2.73c-.57.39-1.16.77-1.78,1.13S64.24,186.81,63.61,187.11Z" fill="#4f5368"/><path d="M51.45,180.75c-1.17,1.95-1.53,3.81-.76,5.14s2.56,2,4.83,1.92a20.4,20.4,0,0,1-1.09-4.08A21,21,0,0,1,51.45,180.75Z" fill="#4f5368"/><path d="M52.27,179.55a16.45,16.45,0,0,0,1.93,2.12c-.06-.69-.1-1.4-.1-2.13s0-1.42.09-2.11A18.49,18.49,0,0,0,52.27,179.55Z" fill="#4f5368"/><path d="M57.9,186.12c-.61-.35-1.2-.74-1.78-1.13A18.74,18.74,0,0,0,57,187.7a18.07,18.07,0,0,0,2.78-.6C59.14,186.8,58.52,186.48,57.9,186.12Z" fill="#4f5368"/><path d="M45.16,196.09H78.24V163H45.16Zm4.33-23.6c1.11-1.92,3.57-2.78,6.64-2.6,1.38-2.74,3.34-4.44,5.57-4.44s4.2,1.7,5.57,4.44c3.07-.17,5.52.68,6.64,2.61s.62,4.48-1.07,7c1.69,2.57,2.18,5.12,1.06,7.05-1,1.7-3,2.63-5.82,2.63l-.64,0h-.17c-1.37,2.74-3.34,4.45-5.57,4.45s-4.19-1.7-5.57-4.45c-.26,0-.53,0-.78,0-2.7,0-4.84-.88-5.86-2.64-1.11-1.93-.62-4.49,1.07-7.05l-.09-.13C48.78,176.78,48.43,174.33,49.49,172.49Z" fill="#4f5368"/><path d="M68.09,200.38H79.43a3.13,3.13,0,0,0,3.11-3.11h0V194h0v-4.73h0v-3.28h0V181.2h0V177.9h0v-4.72h0v-3.31h0v-4.71h0v-3.28h0a3.13,3.13,0,0,0-3.12-3.1H44a3.13,3.13,0,0,0-3.12,3.11h0v3.31h0v4.71h0v3.28h0v4.71h0v3.31h0v4.7h0v3.31h0V194h0v3.28h0A3.13,3.13,0,0,0,44,200.38H68.09Zm-23.63-2.91a.69.69,0,0,1-.69-.69V162.3a.69.69,0,0,1,.69-.69H78.94a.69.69,0,0,1,.69.69v34.48a.69.69,0,0,1-.69.69Z" fill="#4f5368"/><rect x="216.4" y="48.96" width="24.4" height="25.06" transform="translate(87.4 251.5) rotate(-68.44)" fill="#4f5368"/><rect x="235.11" y="26.72" width="0.04" height="36.54" transform="translate(106.87 247.12) rotate(-68.44)" fill="#4f5368"/><path d="M339.53,184.68a149.9,149.9,0,0,0-18.42-84.11,146.51,146.51,0,0,0-10.44-16.2,157,157,0,0,0-33.29-32.18c-9.56-6.94-24-17.21-45-22.86-13.85-3.73-27.47-4.62-34.85-5.11-3.72-.24-10.26-.58-18.42-.44s-20.74.34-35.06,3.33a145.23,145.23,0,0,0-40.62,15.31C80.9,55,67.62,70.14,60.55,78.37A152.07,152.07,0,0,0,35.47,117,160.86,160.86,0,0,0,23,166.49a163.55,163.55,0,0,0,4.22,55.7,151.91,151.91,0,0,0,24.85,51.94c14.21,18.94,29.3,29.43,38.84,35.95,9.1,6.22,25.94,17.51,51.05,24.19a153.21,153.21,0,0,0,20.92,4.05V270.11a87.73,87.73,0,0,1-15.34-5.57A93.21,93.21,0,0,1,125,249.21,84,84,0,0,1,97.63,201c-2-10.88-1.43-19.3-.86-26.7.55-7.08,1.25-15.36,4.82-25.66A88.06,88.06,0,0,1,113,126.57a89,89,0,0,1,25.5-23.94,87.8,87.8,0,0,1,31.17-12.06,86.08,86.08,0,0,1,32.39.86c7.37,1.48,22.7,4.73,37.89,16.71,2.8,2.21,16.47,13.29,22.74,28.77a78.23,78.23,0,0,1,3.79,12.91,73.86,73.86,0,0,1,1.2,13.78,54,54,0,0,1-.86,12.41,29.67,29.67,0,0,1-2.93,9,30.72,30.72,0,0,1-6.37,7.93,39.8,39.8,0,0,1-6.89,5.34,31.15,31.15,0,0,1-9.65,4,36.42,36.42,0,0,1-9.13.69c-1.13,0-2.08-.11-2.75-.17l69.63,72.08a145.58,145.58,0,0,0,40.84-90.11ZM100.1,86.08A3.54,3.54,0,1,1,102,90.7,3.54,3.54,0,0,1,100.1,86.08ZM64.87,106.83a19.05,19.05,0,0,1,6.07-13.94,6.87,6.87,0,0,0,2,2.84,15.65,15.65,0,1,0,11.25-4.55c0-.2,0-.4,0-.6a6.73,6.73,0,0,0-.6-2.8h.36a19,19,0,1,1-19,19Zm2.42,21.78a3.54,3.54,0,1,1,0-5A3.54,3.54,0,0,1,67.29,128.61Zm19-26.54L88.8,99.6l2.4,2.4-2.49,2.49a5.72,5.72,0,0,1,.28.68h3.52v3.4H89a4.84,4.84,0,0,1-.28.66l2.52,2.52-2.4,2.4-2.54-2.53a6.11,6.11,0,0,1-.64.26v3.58h-3.4v-3.58a5.93,5.93,0,0,1-.63-.26l-2.54,2.53-2.4-2.4,2.52-2.52a4.84,4.84,0,0,1-.28-.66H75.33v-3.4h3.52c.08-.23.18-.46.28-.68L76.65,102l2.4-2.4,2.47,2.47a4.76,4.76,0,0,1,.7-.3V98.28h3.4v3.49A4.45,4.45,0,0,1,86.33,102.07ZM78.16,94a3.54,3.54,0,1,1,2.63-4.25A3.54,3.54,0,0,1,78.16,94ZM63.44,86.35a29,29,0,0,1,35.63-4.21,6.75,6.75,0,0,0-2,2.74,25.57,25.57,0,0,0-35.08,35,6.87,6.87,0,0,0-2.66,2.17,29,29,0,0,1,4.14-35.73ZM61.7,209.82a2.34,2.34,0,0,1-2.34-2.34v-5.72H56v5.72a2.35,2.35,0,0,1-4.69,0v-5.72H48v5.72a2.35,2.35,0,0,1-4.69,0v-5.79A4.48,4.48,0,0,1,39.55,198H33.77a2.34,2.34,0,1,1,0-4.68h5.71v-3.35H33.77a2.35,2.35,0,1,1,0-4.69h5.71v-3.35H33.77a2.34,2.34,0,1,1,0-4.68h5.71v-3.35H33.77a2.35,2.35,0,1,1,0-4.69h5.71v-3.34H33.77a2.35,2.35,0,1,1,0-4.69h5.78a4.49,4.49,0,0,1,3.73-3.74v-5.78a2.35,2.35,0,1,1,4.69,0v5.71h3.35v-5.71a2.34,2.34,0,1,1,4.68,0v5.71h3.35v-5.71a2.35,2.35,0,1,1,4.69,0v5.71h3.35v-5.71a2.34,2.34,0,1,1,4.68,0v5.71h3.35v-5.71a2.35,2.35,0,1,1,4.69,0v5.78a4.49,4.49,0,0,1,3.74,3.73h5.78a2.35,2.35,0,1,1,0,4.7H83.92v3.34h5.71a2.35,2.35,0,1,1,0,4.69H83.92v3.34h5.71a2.35,2.35,0,1,1,0,4.69H83.92v3.34h5.71a2.35,2.35,0,1,1,0,4.7H83.92v3.34h5.71a2.35,2.35,0,1,1,0,4.69H83.85a4.48,4.48,0,0,1-3.73,3.74v5.79a2.35,2.35,0,0,1-4.69,0v-5.72H72.09v5.72a2.35,2.35,0,0,1-4.7,0v-5.72H64.05v5.72A2.36,2.36,0,0,1,61.7,209.82Zm10.39,37.4A8.27,8.27,0,1,1,80.35,239,8.26,8.26,0,0,1,72.09,247.22Zm61.75,27.88a8.27,8.27,0,1,1,3.69,11.09A8.27,8.27,0,0,1,133.84,275.1Zm-9.21,18.4a8.27,8.27,0,1,1,3.69,11.1A8.27,8.27,0,0,1,124.63,293.5Zm-9.22,18.41A8.27,8.27,0,1,1,119.1,323,8.27,8.27,0,0,1,115.41,311.91Zm-3.79-39.05a15.4,15.4,0,1,1-15.4-15.39A15.4,15.4,0,0,1,111.62,272.86ZM104.4,127.31a29,29,0,0,1-35.53,4.26A6.9,6.9,0,0,0,71,128.9,25.57,25.57,0,0,0,105.9,93.76a6.84,6.84,0,0,0,2.74-2,29,29,0,0,1-4.24,35.58Zm46-63L149.28,67a3.61,3.61,0,0,1-.48,5.81l.74,1.85,7.5,7-10.36-3.45L157,82.66a4.31,4.31,0,0,0,3.27,0l3.7-1.48,1.2,3,.52,1.3L135.1,97.79l-.53-1.31-.72-1.8,18.38-7.38-.82-2-14.66,5.89,2.4-13a5.2,5.2,0,0,0,3.13-9.2l.71-.29.31-.12.25-.1a3.58,3.58,0,0,1,2.14-2.08l.19-.06-1.6-4L141,70a3.62,3.62,0,0,1-.71,6.33A3.61,3.61,0,0,1,137,69.94l-7.52-18.71c-4-4.52-5.75-8.93-4.7-11.39l13.67,5.83.67-.27.27.67,36.41,15.54C174,65.75,162.69,67.91,150.43,64.32Zm25.8-3.81-51-21.77.65-1.52,32.23-4.86L176.88,59ZM325.38,226a1,1,0,0,1-1.44,0l-1.77-1.83a1,1,0,0,1,0-1.44,1,1,0,0,1,1.43,0l1.77,1.82A1,1,0,0,1,325.38,226Zm3.9-6.51a1,1,0,0,1-1.25.69l-2.45-.7a1,1,0,0,1-.7-1.25,1,1,0,0,1,1.26-.7l2.45.7A1,1,0,0,1,329.28,219.48Zm-5.42-11a1,1,0,0,1-1.43,0,1,1,0,0,1,0-1.44l1.83-1.77a1,1,0,1,1,1.41,1.46Zm5.54,3.43a1,1,0,0,1-.73,1.23l-2.47.62a1,1,0,0,1-.5-2l2.47-.62A1,1,0,0,1,329.4,211.88ZM328.28,173a15.4,15.4,0,1,1-15.4-15.4A15.39,15.39,0,0,1,328.28,173Zm-8.38,29.64-.7,2.45a1,1,0,1,1-1.95-.55L318,202a1,1,0,1,1,1.95.55Zm-7.18,3.06a1,1,0,0,1-1.23-.73l-.62-2.47a1,1,0,0,1,2-.5l.62,2.47A1,1,0,0,1,312.72,205.65Zm-7.37,9.23-5.51-5.69,4-4.47,4.33,4.46.62.65Zm4.19-4.25,4.75,4.91-3,5.49-5.18-5.35Zm-45.75-1.18,7.94-5,7.06,7.29-7.09,5.89Zm11.4,13.35,2.24,2.31-6.86,6.64-2.23-2.31Zm-2.51-19,6.05-3.82,6.32,6.52L279.64,211Zm19.07-1.44,6.6,6.83-4.39,5-7.31-7.55Zm-5.86,3.44-6.21-6.42,5.7-3.59,5.6,5.79Zm6.7-4.14,4.6-3.82,5.86,6.05-4,4.48Zm-.76-.78-5.51-5.69,5.16-3.25,4.95,5.12Zm-6.28-6.49-5.18-5.35,5.58-2.81,4.75,4.91Zm-.95.6-5.7,3.59-5.73-5.92,6.18-3.1Zm1.21,12.3,7.43,7.67-4.66,5.26-8.18-8.44Zm8.19,8.46,6.31,6.52-4,5.93-7-7.19Zm.73-.82,4.38-4.95,5.61,5.78-3.78,5.59ZM262.07,87.22l4.63,6.55a1,1,0,0,0,1.38.21,1,1,0,0,0,.26-1.38l-4.63-6.54.43-.31L267,89.84a1,1,0,0,0,1.39.21,1,1,0,0,0,.25-1.38l-2.88-4.08,1.09-.77,4.63,6.54a.94.94,0,0,0,1.33.25.93.93,0,0,0,.2-1.33l-4.63-6.55,3.39-2.4,6.66,9.41-4.77,3.38a2.55,2.55,0,0,0-3.85,2.72l-7,5-6.66-9.41,3.28-2.32,2.89,4.08A1,1,0,0,0,264,92l-2.89-4.08Zm10.61,8.56a.6.6,0,1,1,.15-.84A.6.6,0,0,1,272.68,95.78ZM241.42,84.22l-1.23,3.1-2.07-.81-2.93,7.43-1.86-.73,2.93-7.44L234.2,85l-2.94,7.44-1.86-.74,2.93-7.43-2.06-.82-2.94,7.44-1.86-.74,2.93-7.43-2.06-.82-2.94,7.43-1.86-.73,2.93-7.44-2.06-.82-2.94,7.44L217.61,87l2.93-7.44-2.06-.82-2.94,7.44-1.86-.74L216.62,78l-2.07-.82-2.94,7.43-1.86-.73,2.94-7.44-2.07-.81-2.94,7.43-1.86-.73,2.94-7.44-2.07-.82-2.94,7.44-1.86-.74,2.94-7.43-2.34-.93,1.22-3.1-6.91-2.73.74-1.86,6.91,2.73.82-2.07-6.91-2.73.73-1.86L206,63.53l.82-2.07-6.91-2.73.73-1.86,6.91,2.73.82-2.07-6.91-2.73.74-1.86,6.91,2.73.82-2.07L203,50.87l.73-1.86,6.91,2.73.82-2.07-6.91-2.73.73-1.86,6.91,2.73.82-2.07L206.12,43l.74-1.86,6.91,2.73.81-2.07-6.91-2.73.74-1.86L215.32,40,217,35.66l2.34.92,3.11-7.87,1.86.74-3.11,7.87,2.07.82,3.11-7.88,1.86.74-3.11,7.87,2.07.82,3.11-7.87,1.86.73-3.11,7.88,2.07.81,3.11-7.87,1.86.74L233,42l2.07.82,3.11-7.88,1.86.74-3.11,7.87,2.07.82,3.11-7.87,1.86.73-3.11,7.88,2.07.81L246,38l1.86.74-3.11,7.87,2.07.82L250,39.58l1.86.74-3.11,7.87,2.07.82,3.11-7.87,1.86.73-3.11,7.87,2.07.82L253,54.85l7.81,3.09-.73,1.86-7.82-3.09-.82,2.07,7.82,3.09-.73,1.86-7.82-3.09-.82,2.07,7.82,3.09L257,67.66l-7.82-3.09-.81,2.07,7.82,3.09-.74,1.86-7.82-3.09-.82,2.07,7.82,3.09-.73,1.86-7.82-3.09-.82,2.07,7.82,3.09-.74,1.86-7.81-3.09-.82,2.07,7.82,3.09-.74,1.86L243,80.29l-.82,2.07L250,85.45l-.73,1.86Zm18.08,25.13a5.16,5.16,0,0,0-5.86-8.27l-3.72-5.26,4.6-3.26,7.22,10.22a1.17,1.17,0,0,0,1.53.17L271,97.48a2.55,2.55,0,0,0,3.85-2.72l5.61-4a.92.92,0,0,0,.1-1.33l-7.23-10.21L284,71.74l3.33,4.7-3.54,2.5a1.11,1.11,0,0,0-.41,1.43l3.9,5.53a1.19,1.19,0,0,0,1.54.16l3.54-2.5,12.54,17.72-5.67,4a1,1,0,0,0-.41,1.31l2.11,3a3,3,0,0,0,.26,3.21,3.2,3.2,0,0,0,4.42.72,3.14,3.14,0,0,0,.74-4.37,3.17,3.17,0,0,0-4-1L301,106.3l4.92-3.49,6,8.43-4.16,2.94a1,1,0,0,0-.39,1.3l3.9,5.52a1.08,1.08,0,0,0,1.45.18l4.15-2.94,2.63,3.72-6.93,4.91a2.78,2.78,0,0,0-3.46-.06,2.94,2.94,0,0,0-.74,4.1,3,3,0,0,0,4.14.72,3.07,3.07,0,0,0,1.14-3.23l6.94-4.91,2.63,3.72-34,24.08-1.84-2.61a5.16,5.16,0,0,0-5.86-8.28Zm43.36.83,0,0a.93.93,0,0,1,.18-.16,1.19,1.19,0,1,1-.22.2ZM311.35,130a1,1,0,0,1-1.17-1.65,1,1,0,0,1,1.3.11l.09.14a.69.69,0,0,0,.11.13A1,1,0,0,1,311.35,130Zm-39.2,63.2,5.8,6L271.9,203l-6.31-6.52ZM264.57,197l6.39,6.6-7.95,5-7-7.29Zm16.35,54.21a.56.56,0,0,1-.58-.15l-31-32a.55.55,0,0,1,0-.78.57.57,0,0,1,.62-.1l9.31,3.54h0a.6.6,0,0,1,.21.14l18.41,19a.52.52,0,0,1,.14.25l3.23,9.42-.51.18.52-.18A.56.56,0,0,1,280.92,251.24Zm-3.82-28-4.64-4.79,7.1-5.89,8.29,8.56L281.73,228Zm5.4,5.57,6.11-6.9,7.06,7.29L290.41,237ZM298.24,245l-7.06-7.28,5.27-7.78,6.39,6.6Zm5.15-9.47L297.08,229l4-5.93,5.81,6Zm-1.67-13.37,3.77-5.58,5.26,5.42-3.3,6.08Zm11.38,4.22-.7,2.45a1,1,0,0,1-1.25.7,1,1,0,0,1-.7-1.26l.7-2.44a1,1,0,1,1,2,.55Zm5.64,3.27a1,1,0,0,1-1.23-.74l-.62-2.47a1,1,0,0,1,2-.49l.62,2.47A1,1,0,0,1,318.74,229.68Zm-2.6-5.62a8.64,8.64,0,0,1-4.85-.73l4.13-7.59a.54.54,0,0,0-.07-.67l-6-6.24a8.7,8.7,0,1,1,6.83,15.23Z" fill="#4f5368"/><path d="M78.73,151.61a1,1,0,0,0-1.92,0v5.71h1.92Z" fill="#4f5368"/><path d="M54.62,151.61a1,1,0,1,0-1.91,0v5.71h1.91Z" fill="#4f5368"/><path d="M68.78,207.48a1,1,0,0,0,1.92,0v-5.72H68.78Z" fill="#4f5368"/><path d="M76.82,207.48a1,1,0,0,0,1.91,0v-5.72H76.82Z" fill="#4f5368"/><path d="M70.69,151.61a1,1,0,1,0-1.91,0v5.71h1.91Z" fill="#4f5368"/><path d="M62.65,151.61a1,1,0,1,0-1.91,0v5.71h1.91Z" fill="#4f5368"/><path d="M168.94,271.43c-.51-.09-1.19-.21-2-.38v67.7q1.8.18,3.54.3V271.68Z" fill="#4f5368"/><path d="M342.8,139.33a156.08,156.08,0,0,0-15.95-42.07A153.65,153.65,0,0,0,316,80.39a165,165,0,0,0-34.66-33.52c-9.18-6.65-24.54-17.79-46.95-23.81-14.42-3.88-28.62-4.81-36.25-5.31-6.28-.42-12.73-.57-19.15-.47-8.58.15-21.56.36-36.47,3.47a151.22,151.22,0,0,0-42.31,16C76.3,50,62.31,66.3,55.59,74.13a157.59,157.59,0,0,0-26.11,40.21,168.57,168.57,0,0,0-12.94,51.53,170.63,170.63,0,0,0,4.39,58A157.79,157.79,0,0,0,46.82,278c15.11,20.13,31.58,31.38,40.43,37.43,8.59,5.86,26.45,18.07,53.13,25.17A160.8,160.8,0,0,0,181.86,346a164.45,164.45,0,0,0,18.37-1l.89-.1v-80l-1.24.3A72.38,72.38,0,0,1,171,266.31a70.28,70.28,0,0,1-22.25-7.47,82.53,82.53,0,0,1-13.45-9.54A130.39,130.39,0,0,1,122,236.48a63.18,63.18,0,0,1-6.78-8.31,69.21,69.21,0,0,1-6.1-12.89,87.24,87.24,0,0,1-5.29-18.75c-1.26-8.27-.79-14.64-.34-20.79a100.39,100.39,0,0,1,3.07-19.8,81.43,81.43,0,0,1,11.91-26.39A78.21,78.21,0,0,1,130.51,116a77.39,77.39,0,0,1,16.83-11.39,83.2,83.2,0,0,1,20.08-6.81,90.61,90.61,0,0,1,31.7-.68,61.05,61.05,0,0,1,14.77,3.39c6.08,2.32,10.16,5.13,15.81,9a82.09,82.09,0,0,1,13.45,10.9,60.09,60.09,0,0,1,9,11.36,56.69,56.69,0,0,1,5.92,13.36,63.05,63.05,0,0,1,2,12.74c.71,7.8,1.07,11.71-.15,16.9a28.38,28.38,0,0,1-4.83,11,26.88,26.88,0,0,1-8.46,7.47,29.9,29.9,0,0,1-11,3.33,44.3,44.3,0,0,1-11.79.17l-.24,2a45.83,45.83,0,0,0,12.33-.17,32.07,32.07,0,0,0,11.7-3.56,29,29,0,0,0,9.1-8,30.3,30.3,0,0,0,5.17-11.74c1.29-5.51.9-9.78.19-17.54a63.22,63.22,0,0,0-2.1-13.11,58.55,58.55,0,0,0-6.13-13.85A62.15,62.15,0,0,0,244.59,119a84.72,84.72,0,0,0-13.76-11.15c-5.76-4-9.92-6.83-16.23-9.24a62.85,62.85,0,0,0-15.21-3.5,92.28,92.28,0,0,0-32.37.7,85.52,85.52,0,0,0-20.57,7,79.39,79.39,0,0,0-29.66,25.64,83.4,83.4,0,0,0-12.2,27,101.65,101.65,0,0,0-3.13,20.17c-.46,6.27-.94,12.75.35,21.24A90.51,90.51,0,0,0,107.2,216a68.92,68.92,0,0,0,6.3,13.29,64.94,64.94,0,0,0,7,8.57,132,132,0,0,0,13.55,13,84.29,84.29,0,0,0,13.75,9.75,72.87,72.87,0,0,0,22.89,7.69,74.67,74.67,0,0,0,28.44-.93v3.89c-.64.15-1.32.31-2.05.45v67l2.05-.21v4.52a159.7,159.7,0,0,1-58.23-4.43c-26.34-7-44-19.09-52.51-24.89-9.37-6.41-25-17.12-40-37a155.51,155.51,0,0,1-25.55-53.4,168.48,168.48,0,0,1-4.34-57.3,166.7,166.7,0,0,1,12.78-50.9,155.27,155.27,0,0,1,25.8-39.72c6.65-7.73,20.48-23.84,44.05-37a149.24,149.24,0,0,1,41.75-15.74c14.73-3.07,27.59-3.28,36.1-3.43,6.36-.1,12.75,0,19,.46,7.56.5,21.63,1.43,35.86,5.25,22.06,5.93,37.23,16.93,46.3,23.5a162.89,162.89,0,0,1,34.23,33.09A152,152,0,0,1,325.1,98.23,154,154,0,0,1,344,184.71a149.58,149.58,0,0,1-42,92.63l1.44,1.39A151.62,151.62,0,0,0,346,184.87,156.51,156.51,0,0,0,342.8,139.33Z" fill="#4f5368"/><path d="M338.39,331.19,221.4,207l-6-6.61-2.74-3L208,191.9l14-.76-1.27,4.36L255,187.09l-24.43-25.48-3.67,12.64v-.39l-11.57.62,20.09-17.89,6.77,7.06L252,129.76l-34.28,8.41,5.88,6.14L203,162.68l8.86-30.27,8.92,3.52L215.61,101,188,123l8,3.18-10.12,34.53-11.63-33.95,9.23-3.15-26.57-23.23L150.07,135l8.09-2.75,10.94,31.93-24.34-19.25,5.78-7.8-35.07-4,14.06,32.37,5.11-6.89,22.57,17.85-23.16-2.65,1-8.38-32.5,13.76,28.16,21.27,1.21-9.78,33.7,3.85a21.67,21.67,0,1,1,7.19,11l.72.69,9.47,9.9L298,341.29l37.53.23a8.26,8.26,0,0,1,2.87-10.33ZM229,173.5h6.34a7.5,7.5,0,0,1,3.06.56,4,4,0,0,1,1.89,1.63,5,5,0,0,1,.65,2.64v0a4.86,4.86,0,0,1-.62,2.41,3.72,3.72,0,0,1-1.65,1.59l2.68,5.24h-4.63L234.52,183h-1.35v4.63H229Zm2.79-36.63h9.94v3.28H236v2.25h5.44v3H236v2.24h5.8V151h-9.94Zm-92.35,6.61a5.36,5.36,0,0,1-.66,2.71A4.51,4.51,0,0,1,137,148a6.25,6.25,0,0,1-2.86.62h-2.16v3.85h-4.14v-14.1h6.3A6.13,6.13,0,0,1,137,139a4.52,4.52,0,0,1,1.86,1.79,5.33,5.33,0,0,1,.66,2.71Zm-9.17,37.39a8.14,8.14,0,0,1-.86,3.88,6,6,0,0,1-1.21,1.59l1.82,2.62h-3.63l-.79-1.14a8.49,8.49,0,0,1-2.43.34,7.61,7.61,0,0,1-3.77-.88,6,6,0,0,1-2.46-2.52,8.21,8.21,0,0,1-.86-3.89v0A8.26,8.26,0,0,1,117,177a6.06,6.06,0,0,1,2.47-2.52,7.6,7.6,0,0,1,3.76-.89,7.68,7.68,0,0,1,3.78.89,6.16,6.16,0,0,1,2.46,2.52,8.14,8.14,0,0,1,.86,3.88Zm37.55-53.31-.73-2.8H162.9l-.73,2.8h-4.36l4.6-14.09h5.2l4.6,14.09Zm34-5a8.46,8.46,0,0,1-.85-4h0a8.38,8.38,0,0,1,.85-4,5.85,5.85,0,0,1,2.42-2.48,7.62,7.62,0,0,1,3.71-.85,7.24,7.24,0,0,1,3.44.77,5.79,5.79,0,0,1,2.29,2.09,5.62,5.62,0,0,1,.82,3v.08h-4v-.11a3,3,0,0,0-.37-1.26,2.34,2.34,0,0,0-.87-.87,2.64,2.64,0,0,0-1.33-.32,2.47,2.47,0,0,0-1.47.46,2.91,2.91,0,0,0-1,1.33,5.73,5.73,0,0,0-.34,2.11h0a5.84,5.84,0,0,0,.34,2.13,2.87,2.87,0,0,0,1,1.35,2.47,2.47,0,0,0,1.47.46,2.52,2.52,0,0,0,1.27-.31,2.37,2.37,0,0,0,.9-.85,2.85,2.85,0,0,0,.41-1.29V120h4v.11a5.36,5.36,0,0,1-.84,3,5.85,5.85,0,0,1-2.31,2.09,7.19,7.19,0,0,1-3.42.78,7.66,7.66,0,0,1-3.72-.86A5.85,5.85,0,0,1,201.89,122.59Zm102.2,213.22a15.38,15.38,0,0,1-13.85-22.09l-88.88-94.48,8-7.53,88.87,94.46a15.4,15.4,0,1,1,5.84,29.64Z" fill="#4f5368"/><path d="M166.52,197h0v0Z" fill="#4f5368"/><polygon points="170.44 203.23 170.45 203.24 170.44 203.23 170.44 203.23" fill="#4f5368"/><circle cx="186.52" cy="188.75" r="13.4" fill="#4f5368"/><circle cx="304.09" cy="320.41" r="7.48" fill="#4f5368"/><path d="M124.72,177.42a2.48,2.48,0,0,0-1.52-.48,2.51,2.51,0,0,0-1.51.47,3,3,0,0,0-1,1.34,5.56,5.56,0,0,0-.36,2.1v0a5.5,5.5,0,0,0,.36,2.09,3.05,3.05,0,0,0,1,1.35,2.47,2.47,0,0,0,1.52.47l.31,0-1.72-2.48h3.63l.36.52a5.66,5.66,0,0,0,.31-1.93v0a5.5,5.5,0,0,0-.36-2.09A3,3,0,0,0,124.72,177.42Z" fill="#4f5368"/><path d="M133.11,141.44h-1.18v4.07h1.18a2.35,2.35,0,0,0,1.6-.51,1.91,1.91,0,0,0,.58-1.52v0a1.9,1.9,0,0,0-.58-1.52A2.39,2.39,0,0,0,133.11,141.44Z" fill="#4f5368"/><polygon points="164.97 116.83 163.66 121.84 166.36 121.84 165.05 116.83 164.97 116.83" fill="#4f5368"/><path d="M236.24,179.57a1.64,1.64,0,0,0,.51-1.25v0a1.62,1.62,0,0,0-.52-1.26,1.88,1.88,0,0,0-1.34-.48h-1.72V180h1.72A1.93,1.93,0,0,0,236.24,179.57Z" fill="#4f5368"/><polygon points="209.38 181.5 209.38 181.94 207.03 181.94 368.38 349.36 295.76 349.36 146.42 190.34 144.96 191.71 294.6 351.05 294.9 351.36 373.09 351.36 209.38 181.5" fill="#4f5368"/></svg>