<svg id="Layer_1" data-name="Layer 1" xmlns="http://www.w3.org/2000/svg" viewBox="0 0 380.33 394.42"><defs><style>.cls-1{fill:#fff;}</style></defs><path class="cls-1" d="M196.09,192.6h-11.9v11.72h11.9Z"/><path class="cls-1" d="M198.09,204.3h11.79V192.52H198.09Z"/><path class="cls-1" d="M184.1,218.22h12v-11.7h-12Z"/><path class="cls-1" d="M351.28,192.51V204.3h11.85V192.51Z"/><path class="cls-1" d="M170.41,178.69v11.8h11.8v-11.8Z"/><path class="cls-1" d="M198.1,190.43h11.79V178.66H198.1Z"/><path class="cls-1" d="M17.17,206.3v11.78H28.89V206.3Z"/><path class="cls-1" d="M363.15,359.69H351.33v11.76h11.82Z"/><path class="cls-1" d="M210,359.75H198.19v11.64H210Z"/><path class="cls-1" d="M17.31,192.44v11.82H28.92V192.44Z"/><path class="cls-1" d="M170.28,204.34h11.91V192.67H170.28Z"/><path class="cls-1" d="M351.43,206.42v11.73h11.65V206.42Z"/><path class="cls-1" d="M184.19,371.38H195.9V359.67H184.19Z"/><path class="cls-1" d="M142.78,25.45V37.17h11.41V25.45Z"/><path class="cls-1" d="M223.77,37.3V25.58h-11.7V37.3Z"/><path class="cls-1" d="M225.87,37h11.69V25.55H225.87Z"/><path class="cls-1" d="M239.82,37h11.65V25.56H239.82Z"/><path class="cls-1" d="M212,204.28h11.7V192.54H212Z"/><path class="cls-1" d="M225.86,204.3h11.7V192.61h-11.7Z"/><path class="cls-1" d="M182.13,51.22V39.35H170.51V51.22Z"/><path class="cls-1" d="M184.14,51.12h11.93V39.46H184.14Z"/><path class="cls-1" d="M198.24,39.27V51h11.61V39.27Z"/><path class="cls-1" d="M267.76,204.3h11.61V192.61H267.76Z"/><path class="cls-1" d="M293.47,192.69H282v11.54h11.52Z"/><path class="cls-1" d="M307.48,192.64H295.85v11.64h11.63Z"/><path class="cls-1" d="M321.32,192.52H309.85V204.4h11.47Z"/><path class="cls-1" d="M349.07,204.42V192.67H337.54v11.75Z"/><path class="cls-1" d="M182.24,53.39H170.46V64.9h11.78Z"/><path class="cls-1" d="M45,206.41v11.81H56.65V206.41Z"/><path class="cls-1" d="M70.64,206.56H59.05v11.53H70.64Z"/><path class="cls-1" d="M73,206.39V218.1H84.38V206.39Z"/><path class="cls-1" d="M182.16,67.24h-11.8V78.9h11.8Z"/><path class="cls-1" d="M86.89,206.41v11.8H98.43v-11.8Z"/><path class="cls-1" d="M114.78,206.43v11.8h11.6v-11.8Z"/><path class="cls-1" d="M154.18,218.21V206.4h-11.5v11.81Z"/><path class="cls-1" d="M196.09,81.27H184.28V92.78h11.81Z"/><path class="cls-1" d="M168.15,218.24V206.5h-11.6v11.74Z"/><path class="cls-1" d="M237.64,206.44H226v11.79h11.69Z"/><path class="cls-1" d="M209.8,106.87V95.3H198.23v11.57Z"/><path class="cls-1" d="M239.85,218.19H251.5V206.48H239.85Z"/><path class="cls-1" d="M254,206.37v11.75h11.39V206.37Z"/><path class="cls-1" d="M293.32,218.3V206.51H281.89V218.3Z"/><path class="cls-1" d="M307.38,206.45H295.75v11.78h11.63Z"/><path class="cls-1" d="M184.3,109.06v11.61H196V109.06Z"/><path class="cls-1" d="M17.26,150.87v11.67H28.87V150.87Z"/><path class="cls-1" d="M29,220.43H17.22v11.62H29Z"/><path class="cls-1" d="M184.21,134.69H196V123.13h-11.8Z"/><path class="cls-1" d="M184.25,220.21v11.88h11.69V220.21Z"/><path class="cls-1" d="M198.11,220.22v11.85h11.72V220.22Z"/><path class="cls-1" d="M28.85,148.77v-11.6H17.29v11.6Z"/><path class="cls-1" d="M29,234.29H17.19v11.65H29Z"/><path class="cls-1" d="M195.93,246.05V234.39H184.36v11.66Z"/><path class="cls-1" d="M363,246v-11.6H351.44V246Z"/><path class="cls-1" d="M28.86,260V248.35H17.3V260Z"/><path class="cls-1" d="M184.35,248.15v11.59h11.58V248.15Z"/><path class="cls-1" d="M351.25,259.74H363V248.35H351.25Z"/><path class="cls-1" d="M363.05,273.89V262.25H351.34v11.64Z"/><path class="cls-1" d="M196.08,287.73V276.31H184.2v11.42Z"/><path class="cls-1" d="M198.16,276.22v11.51h11.72V276.22Z"/><path class="cls-1" d="M184.34,137v11.63h11.59V137Z"/><path class="cls-1" d="M363.11,287.76V276.18h-11.8v11.58Z"/><path class="cls-1" d="M170.39,290.08v11.6h11.73v-11.6Z"/><path class="cls-1" d="M184.18,315.65H196V304.14H184.18Z"/><path class="cls-1" d="M209.61,315.78V304.15H198.18v11.63Z"/><path class="cls-1" d="M170.51,318.05v11.48h11.68V318.05Z"/><path class="cls-1" d="M196.05,329.67V318H184.24v11.66Z"/><path class="cls-1" d="M351.44,318.05v11.48h11.69V318.05Z"/><path class="cls-1" d="M45,204.34H56.65V192.58H45Z"/><path class="cls-1" d="M196.06,331.93H184.24v11.53h11.82Z"/><path class="cls-1" d="M198.25,331.94v11.74h11.64V331.94Z"/><path class="cls-1" d="M351.24,343.5H363V332.05H351.24Z"/><path class="cls-1" d="M170.38,357.5h11.78V345.76H170.38Z"/><path class="cls-1" d="M209.93,345.93H198.18v11.59h11.75Z"/><path class="cls-1" d="M140.45,359.68H128.8v11.68h11.65Z"/><path class="cls-1" d="M168.29,359.71h-11.7v11.72h11.7Z"/><path class="cls-1" d="M211.89,371.41h11.89V359.72H211.89Z"/><path class="cls-1" d="M237.63,359.62H226.12v11.81h11.51Z"/><path class="cls-1" d="M363.07,162.61V151H351.33v11.61Z"/><path class="cls-1" d="M251.44,371.48V359.72H240v11.76Z"/><path class="cls-1" d="M335.26,371.46V359.64H323.64v11.82Z"/><path class="cls-1" d="M337.44,359.61v11.74h11.75V359.61Z"/><path class="cls-1" d="M170.28,176.57h11.9V165h-11.9Z"/><path class="cls-1" d="M184.24,176.53H196V164.82H184.24Z"/><path class="cls-1" d="M210,164.82H198.21v11.71H210Z"/><path class="cls-1" d="M84.45,190.54v-11.8H73v11.8Z"/><path class="cls-1" d="M126.46,178.73H114.84v11.69h11.62Z"/><path class="cls-1" d="M154.33,190.49V178.68H142.65v11.81Z"/><path class="cls-1" d="M168.14,190.51V178.76H156.57v11.75Z"/><path class="cls-1" d="M253.79,190.42h11.64V178.73H253.79Z"/><path class="cls-1" d="M31.11,192.55v11.81H42.84V192.55Z"/><path class="cls-1" d="M58.83,204.29H70.5V192.62H58.83Z"/><path class="cls-1" d="M112.52,192.65H100.93v11.62h11.59Z"/><path class="cls-1" d="M114.88,192.48v11.8H126.3v-11.8Z"/><path class="cls-1" d="M128.75,204.34h11.59V192.58H128.75Z"/><path class="cls-1" d="M154.41,192.62H142.72V204.3h11.69Z"/><path class="cls-1" d="M140.33,51.18V39.43H128.77V51.18Z"/><path class="cls-1" d="M142.81,39.38V51.15h11.35V39.38Z"/><path class="cls-1" d="M212.06,51.08h11.63V39.41H212.06Z"/><path class="cls-1" d="M237.69,39.48H226V51.05h11.67Z"/><path class="cls-1" d="M240.09,39.24V51.15h11.27V39.24Z"/><path class="cls-1" d="M154.16,65V53.3H142.8V65Z"/><path class="cls-1" d="M156.59,53.25V64.94h11.63V53.25Z"/><path class="cls-1" d="M239.85,64.9h11.6V53.4h-11.6Z"/><path class="cls-1" d="M140.33,67.4H128.88V78.93h11.45Z"/><path class="cls-1" d="M154.31,78.9V67.26H142.65V78.9Z"/><path class="cls-1" d="M223.79,78.93V67.39H212.17V78.93Z"/><path class="cls-1" d="M226,78.73h11.68V67.42H226Z"/><path class="cls-1" d="M168.16,92.91V81.29H156.63V92.91Z"/><path class="cls-1" d="M140.37,95.35H128.71v11.26h11.66Z"/><path class="cls-1" d="M156.5,106.75h11.72V95.22H156.5Z"/><path class="cls-1" d="M212,106.64h11.77V95.35H212Z"/><path class="cls-1" d="M237.68,95.24H226v11.49h11.67Z"/><path class="cls-1" d="M128.85,109.11v11.51h11.39V109.11Z"/><path class="cls-1" d="M156.45,120.63h11.69V109.25H156.45Z"/><path class="cls-1" d="M223.6,120.77V109.29H212.16v11.48Z"/><path class="cls-1" d="M239.91,120.58h11.65V109.32H239.91Z"/><path class="cls-1" d="M223.78,123.26H212.17v11.31h11.61Z"/><path class="cls-1" d="M239.9,134.55h11.48V123.27H239.9Z"/><path class="cls-1" d="M31.12,137v11.63H42.76V137Z"/><path class="cls-1" d="M45,148.49H56.67V137.06H45Z"/><path class="cls-1" d="M59,137v11.58H70.46V137Z"/><path class="cls-1" d="M72.89,148.52H84.5V137.06H72.89Z"/><path class="cls-1" d="M112.49,137.12H100.9v11.49h11.59Z"/><path class="cls-1" d="M114.77,148.52h11.46V137.21H114.77Z"/><path class="cls-1" d="M128.81,137v11.64h11.48V137Z"/><path class="cls-1" d="M154.37,137.11H142.7v11.52h11.67Z"/><path class="cls-1" d="M168.25,148.67V137.06H156.54v11.61Z"/><path class="cls-1" d="M223.78,137.2H212.16v11.35h11.62Z"/><path class="cls-1" d="M237.69,137.18H226.08v11.39h11.61Z"/><path class="cls-1" d="M253.88,148.52h11.59V137.06H253.88Z"/><path class="cls-1" d="M293.43,137.19H282v11.35h11.47Z"/><path class="cls-1" d="M321.21,148.73V137.18H309.84v11.55Z"/><path class="cls-1" d="M337.55,137V148.6h11.58V137Z"/><path class="cls-1" d="M223.68,92.9V81.28H212.09V92.9Z"/><path class="cls-1" d="M56.69,151H45.14v11.52H56.69Z"/><path class="cls-1" d="M70.52,162.7V151H59V162.7Z"/><path class="cls-1" d="M84.44,162.7V151H73V162.7Z"/><path class="cls-1" d="M98.34,162.68V151.09H87v11.59Z"/><path class="cls-1" d="M126.27,162.67V151.1H114.93v11.57Z"/><path class="cls-1" d="M154.22,162.72V151.07H142.76v11.65Z"/><path class="cls-1" d="M239.87,162.57h11.62V151H239.87Z"/><path class="cls-1" d="M254,150.87v11.68h11.44V150.87Z"/><path class="cls-1" d="M281.89,150.88v11.68h11.45V150.88Z"/><path class="cls-1" d="M307.34,162.67V151H295.81v11.67Z"/><path class="cls-1" d="M70.65,165H59v11.53H70.65Z"/><path class="cls-1" d="M112.32,176.63V165H101v11.66Z"/><path class="cls-1" d="M114.74,176.44h11.53V165H114.74Z"/><path class="cls-1" d="M168.39,248.4H156.52v11.29h11.87Z"/><path class="cls-1" d="M70.49,232.16V220.42H59v11.74Z"/><path class="cls-1" d="M226,259.86h11.66V248.41H226Z"/><path class="cls-1" d="M251.39,259.89V248.38H240.06v11.51Z"/><path class="cls-1" d="M253.9,248.23v11.62h11.58V248.23Z"/><path class="cls-1" d="M279.31,259.91V248.37H268v11.54Z"/><path class="cls-1" d="M293.47,248.34H281.92v11.41h11.55Z"/><path class="cls-1" d="M307.46,248.33h-11.6v11.43h11.6Z"/><path class="cls-1" d="M321.19,259.89V248.38H309.85v11.51Z"/><path class="cls-1" d="M98.33,232.11V220.39H86.91v11.72Z"/><path class="cls-1" d="M128.87,262.17v11.5h11.35v-11.5Z"/><path class="cls-1" d="M168.09,273.78V262.35H156.5v11.43Z"/><path class="cls-1" d="M212,273.73h11.7V262.29H212Z"/><path class="cls-1" d="M239.92,273.63h11.63V262.38H239.92Z"/><path class="cls-1" d="M307.44,262.27H295.83v11.47h11.61Z"/><path class="cls-1" d="M212.08,220.29V232h11.58v-11.7Z"/><path class="cls-1" d="M323.76,164.82v11.63h11.39V164.82Z"/><path class="cls-1" d="M140.38,276.33H128.89V287.6h11.49Z"/><path class="cls-1" d="M154.19,287.82V276.29H142.77v11.53Z"/><path class="cls-1" d="M226,232h11.63V220.36H226Z"/><path class="cls-1" d="M253.82,232h11.57V220.44H253.82Z"/><path class="cls-1" d="M223.79,276.21H212.07v11.51h11.72Z"/><path class="cls-1" d="M226,276.19v11.55h11.64V276.19Z"/><path class="cls-1" d="M251.59,276.31H240.05v11.32h11.54Z"/><path class="cls-1" d="M267.8,287.64h11.52V276.3H267.8Z"/><path class="cls-1" d="M307.44,276.24H295.83V287.7h11.61Z"/><path class="cls-1" d="M335.31,276.31H323.56v11.3h11.75Z"/><path class="cls-1" d="M349.25,276.29H337.4v11.34h11.85Z"/><path class="cls-1" d="M279.37,232.14V220.42H267.92v11.72Z"/><path class="cls-1" d="M307.37,176.57V164.86h-11.6v11.71Z"/><path class="cls-1" d="M142.59,301.59h11.59V290.26H142.59Z"/><path class="cls-1" d="M295.84,220.27V232h11.45V220.27Z"/><path class="cls-1" d="M225.92,301.6H237.5V290.27H225.92Z"/><path class="cls-1" d="M251.62,290.21H240v11.44h11.63Z"/><path class="cls-1" d="M307.3,301.79V290.21H295.84v11.58Z"/><path class="cls-1" d="M309.78,290.06v11.58h11.47V290.06Z"/><path class="cls-1" d="M279.31,176.6V164.81H268V176.6Z"/><path class="cls-1" d="M128.71,315.54h11.66V304.25H128.71Z"/><path class="cls-1" d="M154.32,315.68V304.25h-11.7v11.43Z"/><path class="cls-1" d="M156.63,304v11.6h11.53V304Z"/><path class="cls-1" d="M335.15,232.09V220.33h-11.4v11.76Z"/><path class="cls-1" d="M112.24,232.07V220.35H101v11.72Z"/><path class="cls-1" d="M239.92,304.08v11.61h11.62V304.08Z"/><path class="cls-1" d="M254,304v11.62h11.48V304Z"/><path class="cls-1" d="M279.32,315.74V304.21H268v11.53Z"/><path class="cls-1" d="M293.45,304.13H281.86v11.52h11.59Z"/><path class="cls-1" d="M295.86,304v11.61h11.43V304Z"/><path class="cls-1" d="M309.7,315.53h11.64V304.09H309.7Z"/><path class="cls-1" d="M128.74,329.65h11.62V318H128.74Z"/><path class="cls-1" d="M142.77,318v11.59H154.2V318Z"/><path class="cls-1" d="M168.11,329.68V318.05H156.56v11.63Z"/><path class="cls-1" d="M45,245.92h11.7V234.3H45Z"/><path class="cls-1" d="M84.59,234.37H73v11.49H84.59Z"/><path class="cls-1" d="M223.84,318.1H212.1v11.49h11.74Z"/><path class="cls-1" d="M237.62,318h-11.5v11.64h11.5Z"/><path class="cls-1" d="M251.62,318.08H240V329.6h11.65Z"/><path class="cls-1" d="M268,318v11.58h11.34V318Z"/><path class="cls-1" d="M307.28,329.73V318.12H295.87v11.61Z"/><path class="cls-1" d="M337.39,329.57h11.75V318.08H337.39Z"/><path class="cls-1" d="M128.65,245.88h11.64V234.35H128.65Z"/><path class="cls-1" d="M154.32,234.44H142.65v11.5h11.67Z"/><path class="cls-1" d="M156.65,331.85v11.67h11.52V331.85Z"/><path class="cls-1" d="M168.24,245.93V234.3H156.55v11.63Z"/><path class="cls-1" d="M126.45,220.46H114.89v11.48h11.56Z"/><path class="cls-1" d="M253.81,343.52H265.4V332H253.81Z"/><path class="cls-1" d="M279.29,343.62V331.89H268v11.73Z"/><path class="cls-1" d="M295.78,331.89v11.69h11.58V331.89Z"/><path class="cls-1" d="M323.54,343.5h11.69V332H323.54Z"/><path class="cls-1" d="M251.4,246V234.41H240V246Z"/><path class="cls-1" d="M128.69,357.48h11.63V345.84H128.69Z"/><path class="cls-1" d="M154.24,357.61V345.89H142.75v11.72Z"/><path class="cls-1" d="M156.67,345.73v11.7h11.47v-11.7Z"/><path class="cls-1" d="M349.17,246V234.32H337.51V246Z"/><path class="cls-1" d="M140.35,220.35H128.73v11.71h11.62Z"/><path class="cls-1" d="M237.6,357.51V345.8H226v11.71Z"/><path class="cls-1" d="M239.87,357.47h11.62V345.84H239.87Z"/><path class="cls-1" d="M265.55,345.88H254v11.56h11.57Z"/><path class="cls-1" d="M279.3,357.55V345.74H268v11.81Z"/><path class="cls-1" d="M281.82,357.52H293.4V345.78H281.82Z"/><path class="cls-1" d="M295.89,345.72v11.69h11.38V345.72Z"/><path class="cls-1" d="M309.71,357.52h11.62V345.8H309.71Z"/><path class="cls-1" d="M349.22,357.52V346H337.45v11.56Z"/><path class="cls-1" d="M168.34,220.68H156.65v11.25h11.69Z"/><path class="cls-1" d="M56.76,248.34H45.09v11.42H56.76Z"/><path class="cls-1" d="M253.82,176.46h11.56V165H253.82Z"/><path class="cls-1" d="M142.66,164.84v11.73H154.3V164.84Z"/><path class="cls-1" d="M70.46,259.92V248.34H59v11.58Z"/><path class="cls-1" d="M84.42,260V248.32H73V260Z"/><path class="cls-1" d="M112.41,259.88V248.25H100.85v11.63Z"/><path class="cls-1" d="M128.68,259.73h11.56V248.35H128.68Z"/><path class="cls-1" d="M142.57,259.8h11.69V248.29H142.57Z"/><path class="cls-1" d="M128.88,331.89v11.7h11.46v-11.7Z"/><path d="M17,25h96.37v96.66H17Zm82.36,82.69V38.89H30.47v68.82Z"/><path d="M16.78,371.71V275.27H113.2v96.44Zm82.7-82.34H30.6v68.75H99.48Z"/><path d="M363.58,121.67H267.07V25.22h96.51Zm-82.68-14h69.28V38.79H280.9Z"/><path d="M196.09,192.6v11.72h-11.9V192.6Z"/><path d="M198.09,204.3V192.52h11.79V204.3Z"/><path d="M184.1,218.22v-11.7h12v11.7Z"/><path d="M351.28,192.51h11.85V204.3H351.28Z"/><path d="M170.41,178.69h11.8v11.8h-11.8Z"/><path d="M198.1,190.43V178.66h11.79v11.77Z"/><path d="M17.17,206.3H28.89v11.78H17.17Z"/><path d="M363.15,359.69v11.76H351.33V359.69Z"/><path d="M210,359.75v11.64H198.19V359.75Z"/><path d="M17.31,192.44H28.92v11.82H17.31Z"/><path d="M170.28,204.34V192.67h11.91v11.67Z"/><path d="M351.43,206.42h11.65v11.73H351.43Z"/><path d="M184.19,371.38V359.67H195.9v11.71Z"/><path d="M142.78,25.45h11.41V37.17H142.78Z"/><path d="M223.77,37.3h-11.7V25.58h11.7Z"/><path d="M225.87,37V25.55h11.69V37Z"/><path d="M239.82,37V25.56h11.65V37Z"/><path d="M212,204.28V192.54h11.7v11.74Z"/><path d="M225.86,204.3V192.61h11.7V204.3Z"/><path d="M182.13,51.22H170.51V39.35h11.62Z"/><path d="M184.14,51.12V39.46h11.93V51.12Z"/><path d="M198.24,39.27h11.61V51H198.24Z"/><path d="M267.76,204.3V192.61h11.61V204.3Z"/><path d="M293.47,192.69v11.54H282V192.69Z"/><path d="M307.48,192.64v11.64H295.85V192.64Z"/><path d="M321.32,192.52V204.4H309.85V192.52Z"/><path d="M349.07,204.42H337.54V192.67h11.53Z"/><path d="M182.24,53.39V64.9H170.46V53.39Z"/><path d="M45,206.41H56.65v11.81H45Z"/><path d="M70.64,206.56v11.53H59.05V206.56Z"/><path d="M73,206.39H84.38V218.1H73Z"/><path d="M182.16,67.24V78.9h-11.8V67.24Z"/><path d="M86.89,206.41H98.43v11.8H86.89Z"/><path d="M114.78,206.43h11.6v11.8h-11.6Z"/><path d="M154.18,218.21h-11.5V206.4h11.5Z"/><path d="M196.09,81.27V92.78H184.28V81.27Z"/><path d="M168.15,218.24h-11.6V206.5h11.6Z"/><path d="M237.64,206.44v11.79H226V206.44Z"/><path d="M209.8,106.87H198.23V95.3H209.8Z"/><path d="M239.85,218.19V206.48H251.5v11.71Z"/><path d="M254,206.37h11.39v11.75H254Z"/><path d="M293.32,218.3H281.89V206.51h11.43Z"/><path d="M307.38,206.45v11.78H295.75V206.45Z"/><path d="M184.3,109.06H196v11.61H184.3Z"/><path d="M17.26,150.87H28.87v11.67H17.26Z"/><path d="M29,220.43v11.62H17.22V220.43Z"/><path d="M184.21,134.69V123.13H196v11.56Z"/><path d="M184.25,220.21h11.69v11.88H184.25Z"/><path d="M198.11,220.22h11.72v11.85H198.11Z"/><path d="M28.85,148.77H17.29v-11.6H28.85Z"/><path d="M29,234.29v11.65H17.19V234.29Z"/><path d="M195.93,246.05H184.36V234.39h11.57Z"/><path d="M363,246H351.44v-11.6H363Z"/><path d="M28.86,260H17.3V248.35H28.86Z"/><path d="M184.35,248.15h11.58v11.59H184.35Z"/><path d="M351.25,259.74V248.35H363v11.39Z"/><path d="M363.05,273.89H351.34V262.25h11.71Z"/><path d="M196.08,287.73H184.2V276.31h11.88Z"/><path d="M198.16,276.22h11.72v11.51H198.16Z"/><path d="M184.34,137h11.59v11.63H184.34Z"/><path d="M363.11,287.76h-11.8V276.18h11.8Z"/><path d="M170.39,290.08h11.73v11.6H170.39Z"/><path d="M184.18,315.65V304.14H196v11.51Z"/><path d="M209.61,315.78H198.18V304.15h11.43Z"/><path d="M170.51,318.05h11.68v11.48H170.51Z"/><path d="M196.05,329.67H184.24V318h11.81Z"/><path d="M351.44,318.05h11.69v11.48H351.44Z"/><path d="M45,204.34V192.58H56.65v11.76Z"/><path d="M196.06,331.93v11.53H184.24V331.93Z"/><path d="M198.25,331.94h11.64v11.74H198.25Z"/><path d="M351.24,343.5V332.05H363V343.5Z"/><path d="M170.38,357.5V345.76h11.78V357.5Z"/><path d="M209.93,345.93v11.59H198.18V345.93Z"/><path d="M140.45,359.68v11.68H128.8V359.68Z"/><path d="M168.29,359.71v11.72h-11.7V359.71Z"/><path d="M211.89,371.41V359.72h11.89v11.69Z"/><path d="M237.63,359.62v11.81H226.12V359.62Z"/><path d="M363.07,162.61H351.33V151h11.74Z"/><path d="M251.44,371.48H240V359.72h11.42Z"/><path d="M335.26,371.46H323.64V359.64h11.62Z"/><path d="M337.44,359.61h11.75v11.74H337.44Z"/><path d="M170.28,176.57V165h11.9v11.59Z"/><path d="M184.24,176.53V164.82H196v11.71Z"/><path d="M210,164.82v11.71H198.21V164.82Z"/><path d="M84.45,190.54H73v-11.8H84.45Z"/><path d="M126.46,178.73v11.69H114.84V178.73Z"/><path d="M154.33,190.49H142.65V178.68h11.68Z"/><path d="M168.14,190.51H156.57V178.76h11.57Z"/><path d="M253.79,190.42V178.73h11.64v11.69Z"/><path d="M31.11,192.55H42.84v11.81H31.11Z"/><path d="M58.83,204.29V192.62H70.5v11.67Z"/><path d="M112.52,192.65v11.62H100.93V192.65Z"/><path d="M114.88,192.48H126.3v11.8H114.88Z"/><path d="M128.75,204.34V192.58h11.59v11.76Z"/><path d="M154.41,192.62V204.3H142.72V192.62Z"/><path d="M140.33,51.18H128.77V39.43h11.56Z"/><path d="M142.81,39.38h11.35V51.15H142.81Z"/><path d="M212.06,51.08V39.41h11.63V51.08Z"/><path d="M237.69,39.48V51.05H226V39.48Z"/><path d="M240.09,39.24h11.27V51.15H240.09Z"/><path d="M154.16,65H142.8V53.3h11.36Z"/><path d="M156.59,53.25h11.63V64.94H156.59Z"/><path d="M239.85,64.9V53.4h11.6V64.9Z"/><path d="M140.33,67.4V78.93H128.88V67.4Z"/><path d="M154.31,78.9H142.65V67.26h11.66Z"/><path d="M223.79,78.93H212.17V67.39h11.62Z"/><path d="M226,78.73V67.42h11.68V78.73Z"/><path d="M168.16,92.91H156.63V81.29h11.53Z"/><path d="M140.37,95.35v11.26H128.71V95.35Z"/><path d="M156.5,106.75V95.22h11.72v11.53Z"/><path d="M212,106.64V95.35h11.77v11.29Z"/><path d="M237.68,95.24v11.49H226V95.24Z"/><path d="M128.85,109.11h11.39v11.51H128.85Z"/><path d="M156.45,120.63V109.25h11.69v11.38Z"/><path d="M223.6,120.77H212.16V109.29H223.6Z"/><path d="M239.91,120.58V109.32h11.65v11.26Z"/><path d="M223.78,123.26v11.31H212.17V123.26Z"/><path d="M239.9,134.55V123.27h11.48v11.28Z"/><path d="M31.12,137H42.76v11.63H31.12Z"/><path d="M45,148.49V137.06H56.67v11.43Z"/><path d="M59,137H70.46v11.58H59Z"/><path d="M72.89,148.52V137.06H84.5v11.46Z"/><path d="M112.49,137.12v11.49H100.9V137.12Z"/><path d="M114.77,148.52V137.21h11.46v11.31Z"/><path d="M128.81,137h11.48v11.64H128.81Z"/><path d="M154.37,137.11v11.52H142.7V137.11Z"/><path d="M168.25,148.67H156.54V137.06h11.71Z"/><path d="M223.78,137.2v11.35H212.16V137.2Z"/><path d="M237.69,137.18v11.39H226.08V137.18Z"/><path d="M253.88,148.52V137.06h11.59v11.46Z"/><path d="M293.43,137.19v11.35H282V137.19Z"/><path d="M321.21,148.73H309.84V137.18h11.37Z"/><path d="M337.55,137h11.58V148.6H337.55Z"/><path d="M223.68,92.9H212.09V81.28h11.59Z"/><path d="M56.69,151v11.52H45.14V151Z"/><path d="M70.52,162.7H59V151H70.52Z"/><path d="M84.44,162.7H73V151H84.44Z"/><path d="M98.34,162.68H87V151.09H98.34Z"/><path d="M126.27,162.67H114.93V151.1h11.34Z"/><path d="M154.22,162.72H142.76V151.07h11.46Z"/><path d="M239.87,162.57V151h11.62v11.55Z"/><path d="M254,150.87h11.44v11.68H254Z"/><path d="M281.89,150.88h11.45v11.68H281.89Z"/><path d="M307.34,162.67H295.81V151h11.53Z"/><path d="M70.65,165v11.53H59V165Z"/><path d="M112.32,176.63H101V165h11.37Z"/><path d="M114.74,176.44V165h11.53v11.45Z"/><path d="M168.39,248.4v11.29H156.52V248.4Z"/><path d="M70.49,232.16H59V220.42H70.49Z"/><path d="M226,259.86V248.41h11.66v11.45Z"/><path d="M251.39,259.89H240.06V248.38h11.33Z"/><path d="M253.9,248.23h11.58v11.62H253.9Z"/><path d="M279.31,259.91H268V248.37h11.33Z"/><path d="M293.47,248.34v11.41H281.92V248.34Z"/><path d="M307.46,248.33v11.43h-11.6V248.33Z"/><path d="M321.19,259.89H309.85V248.38h11.34Z"/><path d="M98.33,232.11H86.91V220.39H98.33Z"/><path d="M128.87,262.17h11.35v11.5H128.87Z"/><path d="M168.09,273.78H156.5V262.35h11.59Z"/><path d="M212,273.73V262.29h11.7v11.44Z"/><path d="M239.92,273.63V262.38h11.63v11.25Z"/><path d="M307.44,262.27v11.47H295.83V262.27Z"/><path d="M212.08,220.29h11.58V232H212.08Z"/><path d="M323.76,164.82h11.39v11.63H323.76Z"/><path d="M140.38,276.33V287.6H128.89V276.33Z"/><path d="M154.19,287.82H142.77V276.29h11.42Z"/><path d="M226,232V220.36h11.63V232Z"/><path d="M253.82,232V220.44h11.57V232Z"/><path d="M223.79,276.21v11.51H212.07V276.21Z"/><path d="M226,276.19h11.64v11.55H226Z"/><path d="M251.59,276.31v11.32H240.05V276.31Z"/><path d="M267.8,287.64V276.3h11.52v11.34Z"/><path d="M307.44,276.24V287.7H295.83V276.24Z"/><path d="M335.31,276.31v11.3H323.56v-11.3Z"/><path d="M349.25,276.29v11.34H337.4V276.29Z"/><path d="M279.37,232.14H267.92V220.42h11.45Z"/><path d="M307.37,176.57h-11.6V164.86h11.6Z"/><path d="M142.59,301.59V290.26h11.59v11.33Z"/><path d="M295.84,220.27h11.45V232H295.84Z"/><path d="M225.92,301.6V290.27H237.5V301.6Z"/><path d="M251.62,290.21v11.44H240V290.21Z"/><path d="M307.3,301.79H295.84V290.21H307.3Z"/><path d="M309.78,290.06h11.47v11.58H309.78Z"/><path d="M279.31,176.6H268V164.81h11.31Z"/><path d="M128.71,315.54V304.25h11.66v11.29Z"/><path d="M154.32,315.68h-11.7V304.25h11.7Z"/><path d="M156.63,304h11.53v11.6H156.63Z"/><path d="M335.15,232.09h-11.4V220.33h11.4Z"/><path d="M112.24,232.07H101V220.35h11.23Z"/><path d="M239.92,304.08h11.62v11.61H239.92Z"/><path d="M254,304h11.48v11.62H254Z"/><path d="M279.32,315.74H268V304.21h11.34Z"/><path d="M293.45,304.13v11.52H281.86V304.13Z"/><path d="M295.86,304h11.43v11.61H295.86Z"/><path d="M309.7,315.53V304.09h11.64v11.44Z"/><path d="M128.74,329.65V318h11.62v11.63Z"/><path d="M142.77,318H154.2v11.59H142.77Z"/><path d="M168.11,329.68H156.56V318.05h11.55Z"/><path d="M45,245.92V234.3h11.7v11.62Z"/><path d="M84.59,234.37v11.49H73V234.37Z"/><path d="M223.84,318.1v11.49H212.1V318.1Z"/><path d="M237.62,318v11.64h-11.5V318Z"/><path d="M251.62,318.08V329.6H240V318.08Z"/><path d="M268,318h11.34v11.58H268Z"/><path d="M307.28,329.73H295.87V318.12h11.41Z"/><path d="M337.39,329.57V318.08h11.75v11.49Z"/><path d="M128.65,245.88V234.35h11.64v11.53Z"/><path d="M154.32,234.44v11.5H142.65v-11.5Z"/><path d="M156.65,331.85h11.52v11.67H156.65Z"/><path d="M168.24,245.93H156.55V234.3h11.69Z"/><path d="M126.45,220.46v11.48H114.89V220.46Z"/><path d="M253.81,343.52V332H265.4v11.51Z"/><path d="M279.29,343.62H268V331.89h11.27Z"/><path d="M295.78,331.89h11.58v11.69H295.78Z"/><path d="M323.54,343.5V332h11.69V343.5Z"/><path d="M251.4,246H240V234.41H251.4Z"/><path d="M128.69,357.48V345.84h11.63v11.64Z"/><path d="M154.24,357.61H142.75V345.89h11.49Z"/><path d="M156.67,345.73h11.47v11.7H156.67Z"/><path d="M349.17,246H337.51V234.32h11.66Z"/><path d="M140.35,220.35v11.71H128.73V220.35Z"/><path d="M237.6,357.51H226V345.8H237.6Z"/><path d="M239.87,357.47V345.84h11.62v11.63Z"/><path d="M265.55,345.88v11.56H254V345.88Z"/><path d="M279.3,357.55H268V345.74H279.3Z"/><path d="M281.82,357.52V345.78H293.4v11.74Z"/><path d="M295.89,345.72h11.38v11.69H295.89Z"/><path d="M309.71,357.52V345.8h11.62v11.72Z"/><path d="M349.22,357.52H337.45V346h11.77Z"/><path d="M168.34,220.68v11.25H156.65V220.68Z"/><path d="M56.76,248.34v11.42H45.09V248.34Z"/><path d="M253.82,176.46V165h11.56v11.49Z"/><path d="M142.66,164.84H154.3v11.73H142.66Z"/><path d="M70.46,259.92H59V248.34H70.46Z"/><path d="M84.42,260H73V248.32H84.42Z"/><path d="M112.41,259.88H100.85V248.25h11.56Z"/><path d="M128.68,259.73V248.35h11.56v11.38Z"/><path d="M142.57,259.8V248.29h11.69V259.8Z"/><path d="M128.88,331.89h11.46v11.7H128.88Z"/><path d="M44.22,52.42H85.39V93.68H44.22Z"/><path d="M85.33,344.5H44.11V303.24H85.33Z"/><path d="M336.16,93.86H295V52.59h41.21Z"/></svg>