<svg xmlns="http://www.w3.org/2000/svg" viewBox="0 0 316.23 316.23"><defs><style>.a{fill:#ac1f24;}</style></defs><path class="a" d="M264,166.62H217.56v-1.2a1.5,1.5,0,0,0-1.5-1.5H180.33a1.5,1.5,0,0,0-1.5,1.5v1.2H51a1.5,1.5,0,0,0-1.5,1.5v9.29a1.5,1.5,0,0,0-.4,1,1.47,1.47,0,0,0,.4,1V188a1.49,1.49,0,0,0,0,2v10a1.51,1.51,0,0,0,1.5,1.51H178.63v1.2a1.5,1.5,0,0,0,1.5,1.5h35.73a1.5,1.5,0,0,0,1.5-1.5v-1.2H264a1.51,1.51,0,0,0,1.5-1.51V168.12A1.5,1.5,0,0,0,264,166.62ZM52.54,179.93H64.15a1.52,1.52,0,0,0,1.31-.77l.69-1.24,2.56,4.9a1.51,1.51,0,0,0,2.68,0l1.87-3.66.66-1.18,2.62,4.87a1.53,1.53,0,0,0,1.35.78,1.52,1.52,0,0,0,1.32-.84L81,179.16l.69-1.25.65,1.17,1.8,3.71a1.52,1.52,0,0,0,1.32.84h0a1.5,1.5,0,0,0,1.32-.78l1.58-2.92h36a1.51,1.51,0,0,0,1.33-.8l.57-1.09,2.58,4.81a1.53,1.53,0,0,0,1.34.78,1.5,1.5,0,0,0,1.32-.81l1.88-3.66L134,178l2.55,4.81a1.51,1.51,0,0,0,2.64,0l2-3.75.53-1.06,2.61,4.81a1.51,1.51,0,0,0,1.34.78,1.49,1.49,0,0,0,1.32-.81l1.48-2.89h30.31v7.61h-6a1.5,1.5,0,0,0-1.31.77l-.62,1.11-.56-1.11-2-3.6a1.49,1.49,0,0,0-1.31-.78,1.51,1.51,0,0,0-1.31.77l-2,3.64-.57,1.08-2.59-4.71a1.44,1.44,0,0,0-1.33-.78,1.51,1.51,0,0,0-1.31.8l-2.51,4.76-2.54-4.76a1.53,1.53,0,0,0-1.31-.8h0a1.5,1.5,0,0,0-1.31.77l-1.58,2.84H112.78a1.49,1.49,0,0,0-1.31.77l-.69,1.24-2.58-4.82a1.5,1.5,0,0,0-2.65,0l-1.89,3.58-.65,1.18-2.51-4.76a1.53,1.53,0,0,0-1.31-.8,1.61,1.61,0,0,0-1.33.77l-2,3.64-.61,1.15-2.54-4.76a1.5,1.5,0,0,0-2.65,0l-1.48,2.81h-36Zm129.29,0h14.91v7.61H181.83Zm32.72-10.31v7.31H199.74v-7.31Zm-32.72,0h14.91v7.31H181.83Zm14.91,20.92v8H181.83v-8Zm17.81,8H199.74v-8h14.81Zm-14.81-11v-7.61h14.81v7.61Zm17.82-7.61h15.31a1.51,1.51,0,0,0,1.31-.77l.69-1.24,2.57,4.9a1.48,1.48,0,0,0,1.33.81,1.5,1.5,0,0,0,1.34-.81l1.88-3.66.65-1.18,2.62,4.87a1.59,1.59,0,0,0,1.33.78,1.49,1.49,0,0,0,1.32-.81l2.5-4.84,2.54,4.84a1.51,1.51,0,0,0,2.67,0l1.48-2.89h5.39v7.61H246.58a1.51,1.51,0,0,0-1.32.77l-.65,1.18L242,184.7a1.53,1.53,0,0,0-1.32-.77h0a1.54,1.54,0,0,0-1.32.8l-2.5,4.76-2.66-4.78a1.54,1.54,0,0,0-1.34-.78,1.5,1.5,0,0,0-1.31.83l-1.78,3.55-.69,1.24-.65-1.18-1.8-3.61a1.52,1.52,0,0,0-1.31-.83,1.5,1.5,0,0,0-1.35.77l-1.57,2.84h-4.82Zm44.93-3h-6.31a1.5,1.5,0,0,0-1.33.81l-.57,1.11-2.59-4.75a1.5,1.5,0,0,0-1.31-.78h0a1.52,1.52,0,0,0-1.31.81l-2.51,4.78L244,174.13a1.5,1.5,0,0,0-1.31-.81h0a1.51,1.51,0,0,0-1.31.78l-2,3.64-.57,1.11-2.59-4.75a1.49,1.49,0,0,0-2.62,0L232,176.93H217.56v-7.31h44.93Zm-83.66-7.31v7.31H147.61a1.5,1.5,0,0,0-1.34.81l-.6,1.17L143,174.1a1.5,1.5,0,0,0-1.34-.78,1.53,1.53,0,0,0-1.31.83l-1.78,3.56L137.9,179l-2.46-4.82a1.53,1.53,0,0,0-1.31-.83,1.5,1.5,0,0,0-1.35.78l-2,3.64-.6,1.17-2.54-4.78a1.5,1.5,0,0,0-2.66,0l-1.48,2.8h-36a1.5,1.5,0,0,0-1.32.78l-.61,1.14L85,177.7l-2-3.6a1.49,1.49,0,0,0-2.62,0l-2,3.67-.52,1.07-2.51-4.71a1.52,1.52,0,0,0-1.31-.81,1.62,1.62,0,0,0-1.33.78l-2,3.64-.57,1.11-2.59-4.75a1.51,1.51,0,0,0-1.31-.78,1.49,1.49,0,0,0-1.31.78l-1.58,2.83H52.54v-7.31ZM52.54,190.54H89.46a1.51,1.51,0,0,0,1.33-.8l.58-1.09L94,193.37a1.44,1.44,0,0,0,1.32.77,1.51,1.51,0,0,0,1.32-.8l1.88-3.58.66-1.17,2.51,4.75a1.49,1.49,0,0,0,1.31.8,1.41,1.41,0,0,0,1.33-.77l2-3.63.58-1.09,2.59,4.72a1.5,1.5,0,0,0,2.62,0l1.57-2.83h35.85a1.5,1.5,0,0,0,1.31-.78l.66-1.17,2.62,4.78a1.5,1.5,0,0,0,2.64,0l2.51-4.75,2.54,4.75a1.5,1.5,0,0,0,2.65,0l1.89-3.57.69-1.25.66,1.19,1.8,3.6a1.49,1.49,0,0,0,1.31.83h0a1.51,1.51,0,0,0,1.32-.77l1.57-2.83h5.12v8H52.54Zm165,8v-8h5.7a1.5,1.5,0,0,0,1.31-.77l.62-1.12.56,1.12,2,3.6a1.51,1.51,0,0,0,1.32.77,1.52,1.52,0,0,0,1.31-.77l2-3.66.53-1.06,2.62,4.72a1.49,1.49,0,0,0,1.31.77h0a1.51,1.51,0,0,0,1.31-.8l2.51-4.75,2.54,4.75a1.51,1.51,0,0,0,1.31.8,1.57,1.57,0,0,0,1.33-.77l1.57-2.83h15v8Z"/><path class="a" d="M312.92,154.68l0-.36-15.41-3.91c-.2-3-.49-5.95-.83-8.61L311,135l-.06-.38c-.15-.85-.3-1.68-.45-2.5s-.3-1.65-.45-2.5-.33-1.69-.51-2.52-.35-1.64-.49-2.49l-.07-.39-15.85-.8c-.52-1.89-1.11-3.81-1.69-5.66-.27-.89-.55-1.78-.82-2.68l12.73-9.52-.13-.35c-.65-1.73-1.26-3.23-1.9-4.7-.47-1.24-1-2.4-1.52-3.62l-.65-1.46L283.5,97.53c-1.25-2.65-2.74-5.26-4.18-7.7L290,78l-2.91-4.53c-.86-1.34-1.85-2.73-2.93-4.13l-.22-.29-15,5.3-.88-1.11c-1.57-2-3.05-3.84-4.67-5.57L271.51,54l-.25-.27c-1.12-1.23-2.34-2.44-3.53-3.63s-2.4-2.4-3.6-3.51l-.28-.25-13.71,8.11c-1.52-1.31-3-2.57-4.54-3.78l-2.14-1.77,5.32-15-.32-.22-2.05-1.45-2.06-1.46-1.4-.92c-.92-.61-1.88-1.25-2.83-1.79l-.31-.18L228,38.51c-2.35-1.38-4.94-2.78-7.69-4.17l2.3-15.73-.35-.16c-.8-.35-1.58-.67-2.36-1l-2.34-1c-.81-.35-1.59-.65-2.37-.95s-1.54-.6-2.34-.95l-.36-.16L203,27.13c-2.73-.91-5.54-1.84-8.34-2.51l-.8-15.81-.37-.09c-1.77-.42-3.46-.73-5-1l-2.5-.45-2.5-.45L183,6.75l-6.81,14.32c-2.86-.36-5.75-.64-8.61-.83l-3.9-15.38-.32-.05a30.25,30.25,0,0,0-5.29-.31c-1.68,0-3.41,0-5.13.1l-.36,0-3.91,15.31c-3,.2-6,.49-8.62.83L133.18,6.45l-.37.06L130.27,7l-2.46.44c-.86.15-1.69.33-2.52.51s-1.64.34-2.49.49l-.39.07-.8,16c-1.9.52-3.82,1.11-5.68,1.69l-2.66.82-9.52-12.73-.35.13c-1.72.65-3.22,1.25-4.7,1.9-1.24.47-2.39,1-3.61,1.52l-1.47.65,2.3,15.72c-2.66,1.26-5.26,2.74-7.69,4.18L76.51,27.59,72,30.5c-1.35.87-2.74,1.85-4.14,2.93l-.28.22,5.3,14.92-1.11.88c-2,1.56-3.84,3-5.57,4.67L52.47,46l-.27.25c-1.2,1.1-2.41,2.32-3.62,3.52s-2.4,2.41-3.52,3.62l-.25.28L53,67.39c-1.32,1.52-2.58,3.06-3.8,4.55l-1.75,2.13-15-5.32-.22.32c-.45.64-.94,1.34-1.44,2s-1,1.41-1.47,2.08c-.3.47-.61.93-.92,1.4-.62.92-1.25,1.88-1.8,2.83l-.18.31L37.11,89.53c-1.38,2.34-2.78,4.93-4.17,7.69l-15.73-2.3-.16.35c-.35.8-.67,1.58-1,2.36s-.65,1.54-1,2.37c-.58,1.56-2,4.53-2,4.56l-.18.37,12.75,9.54c-.91,2.73-1.84,5.55-2.51,8.34l-15.82.8-.08.36c-.42,1.78-.73,3.47-1,5s-1,5-1,5l-.08.39,14.44,6.82c-.36,2.86-.64,5.76-.83,8.62L3.32,154l0,.36c-.1,1.72-.1,3.3-.1,5.13V165l15.44,3.91c.2,3,.48,6,.83,8.61L5.15,184.35l.06.37c.15.85.3,1.68.45,2.5s.3,1.65.45,2.5.33,1.7.51,2.53.34,1.63.49,2.48l.07.39,15.85.8c.51,1.89,1.11,3.81,1.68,5.66.28.89.56,1.79.83,2.68l-12.73,9.52.13.35c.65,1.72,1.25,3.22,1.9,4.7s1.9,4.69,1.91,4.72l.15.36,15.83-2.3c1.25,2.65,2.74,5.26,4.18,7.69L26.19,241.12l2.91,4.53c.9,1.39,2.8,4.09,2.81,4.12l.22.31,15-5.31.89,1.1c1.56,2,3,3.85,4.67,5.58l-8.11,13.71.25.27c1.12,1.21,2.34,2.44,3.52,3.62s2.4,2.4,3.62,3.51l.27.26L66,264.61c1.52,1.31,3.05,2.56,4.53,3.78l2.15,1.77-5.32,15,.31.22,2.06,1.45,2.06,1.46,1.4.92c.93.62,1.88,1.25,2.83,1.79l.31.18,11.8-10.4c2.35,1.38,4.94,2.78,7.71,4.17l-2.11,15.73.35.15c.8.36,1.58.68,2.36,1l2.37,1c1.69.63,3.18,1.23,4.67,1.89l.37.16,9.43-12.64c2.73.91,5.54,1.84,8.34,2.51l.8,15.81.36.09c1.79.42,3.48.73,5,1l2.43.43,2.57.47.37.06L140,298.36c2.85.36,5.75.64,8.61.83l3.82,15.06.48-.12h10.31l.48.12,3.82-15.06c3-.2,5.95-.49,8.61-.83l6.81,14.32.38-.06,2.57-.47,2.43-.43c.86-.16,1.7-.33,2.53-.51s1.64-.35,2.48-.49l.39-.07.8-15.85c1.9-.51,3.81-1.11,5.66-1.69l2.67-.82L212.38,305l.35-.13c1.71-.64,3.21-1.25,4.73-1.91.79-.35,1.56-.67,2.33-1s1.56-.65,2.37-1l.35-.15-2.3-15.72c2.65-1.25,5.25-2.74,7.69-4.18l11.82,10.72,4.53-2.91c1.34-.87,2.74-1.85,4.13-2.93l.29-.22-5.3-15,1.12-.89c2-1.56,3.83-3,5.56-4.66l13.7,8.11.28-.25c1.21-1.11,2.43-2.34,3.62-3.52s2.41-2.41,3.51-3.62l.25-.27-8.11-13.72c1.33-1.53,2.59-3.07,3.82-4.57l1.74-2.11,15,5.32.22-.32c.44-.64.94-1.34,1.44-2s1-1.41,1.47-2.07c.3-.47.61-.94.92-1.4.62-.93,1.25-1.88,1.79-2.83l.18-.31-10.7-11.81c1.38-2.34,2.78-4.93,4.17-7.69l15.73,2.3.15-.35c.35-.8.68-1.58,1-2.36s.65-1.54,1-2.34.66-1.6,1-2.38.59-1.53.94-2.33l.15-.36-12.73-9.53c.91-2.73,1.84-5.55,2.51-8.34l15.81-.8.09-.36c.39-1.67.69-3.22,1-5,.15-.85.3-1.67.45-2.5s.3-1.65.45-2.5l.06-.38-14.32-6.81c.36-2.86.64-5.75.83-8.61l15.41-3.91,0-.36c.11-1.72.11-3.3.11-5.14C313,158.13,313,156.4,312.92,154.68Zm-51.83-50.85c1.42,2.62,2.75,5.31,4,8h-4Zm0,11h5.26c1.17,2.82,2.22,5.69,3.17,8.61h-8.43Zm0,11.61h9.36q1.24,4.24,2.18,8.61H261.09Zm0,11.61h12.14c.52,2.83.95,5.7,1.26,8.61h-13.4ZM249.48,86.39q.95,1.17,1.86,2.37h-1.86Zm0,5.38h4.08c1.63,2.28,3.17,4.63,4.64,7a1.47,1.47,0,0,0-.11.56v.9h-8.61Zm0,11.5h8.61v8.61h-8.61Zm0,11.61h8.61v8.61h-8.61Zm0,11.61h8.61v8.61h-8.61Zm0,11.61h8.61v8.61h-8.61Zm0,11.61h8.61v8.6h-8.61ZM237.87,73.88q1.77,1.65,3.48,3.38h-3.48Zm0,6.38h6.34c.77.83,1.53,1.67,2.27,2.53v6h-8.61Zm0,11.51h8.61v8.5h-8.61Zm0,11.5h8.61v8.61h-8.61Zm0,11.61h8.61v8.61h-8.61Zm0,11.61h8.61v8.61h-8.61Zm0,11.61h8.61v8.61h-8.61Zm0,11.61h8.61v8.6h-8.61ZM226.36,64.44,228,65.65h-1.66Zm0,4.21h5.5c1,.82,2,1.66,3,2.52v6.09h-8.51Zm0,11.61h8.51v8.5h-8.51Zm0,11.51h8.51v8.5h-8.51Zm0,11.5h8.51v8.61h-8.51Zm0,11.61h8.51v8.61h-8.51Zm0,11.61h8.51v8.61h-8.51Zm0,11.61h8.51v8.61h-8.51Zm0,11.61h8.51v8.6h-8.51ZM214.75,57.07c2.95,1.64,5.83,3.4,8.61,5.27v3.31h-8.61Zm0,11.58h8.61v8.61h-8.61Zm0,11.61h8.61v8.5h-8.61Zm0,11.51h8.61v8.5h-8.61Zm0,11.5h8.61v8.61h-8.61Zm0,11.61h8.61v8.61h-8.61Zm0,11.61h8.61v8.61h-8.61Zm0,11.61h8.61v8.61h-8.61Zm0,11.61h8.61v8.6h-8.61Zm-11.6-98.27c1.95.82,3.87,1.68,5.77,2.6h-5.77Zm0,5.6h8.6v8.61h-8.6Zm0,11.61h8.6v8.61h-8.6Zm0,11.61h8.6v8.5h-8.6Zm0,11.51h8.6v8.5h-8.6Zm0,11.5h8.6v8.61h-8.6Zm0,11.61h8.6v8.61h-8.6Zm0,11.61h8.6v8.61h-8.6Zm0,11.61h8.6v8.61h-8.6Zm0,11.61h8.6v8.6h-8.6ZM191.54,47.3q4.38,1.31,8.6,2.94V54h-8.6Zm0,9.74h8.6v8.61h-8.6Zm0,11.61h8.6v8.61h-8.6Zm0,11.61h8.6v8.5h-8.6Zm0,11.51h8.6v8.5h-8.6Zm0,11.5h8.6v8.61h-8.6Zm0,11.61h8.6v8.61h-8.6Zm0,11.61h8.6v8.61h-8.6Zm0,11.61h8.6v8.61h-8.6Zm0,11.61h8.6v8.6h-8.6ZM179.93,44.48q4.37.83,8.61,2V54h-8.61Zm0,12.56h8.61v8.61h-8.61Zm0,11.61h8.61v8.61h-8.61Zm0,11.61h8.61v8.5h-8.61Zm0,11.51h8.61v8.5h-8.61Zm0,11.5h8.61v8.61h-8.61Zm0,11.61h8.61v8.61h-8.61Zm0,11.61h8.61v8.61h-8.61Zm0,11.61h8.61v8.61h-8.61Zm0,11.61h8.61v8.6h-8.61ZM168.32,42.88q4.35.38,8.61,1.07V54h-8.61Zm0,14.16h8.61v8.61h-8.61Zm0,11.61h8.61v8.61h-8.61Zm0,11.61h8.61v8.5h-8.61Zm0,11.51h8.61v8.5h-8.61Zm0,11.5h8.61v8.61h-8.61Zm0,11.61h8.61v8.61h-8.61Zm0,11.61h8.61v8.61h-8.61Zm0,11.61h8.61v8.61h-8.61Zm0,11.61h8.61v8.6h-8.61ZM156.71,42.45l1.4,0q3.63,0,7.21.23V54h-8.61Zm0,14.59h8.61v8.61h-8.61Zm0,11.61h8.61v8.61h-8.61Zm0,11.61h8.61v8.5h-8.61Zm0,11.51h8.61v8.5h-8.61Zm0,11.5h8.61v8.61h-8.61Zm0,11.61h8.61v8.61h-8.61Zm0,11.61h8.61v8.61h-8.61Zm0,11.61h8.61v8.61h-8.61Zm0,11.61h8.61v8.6h-8.61ZM145.1,43.15q4.28-.46,8.61-.63V54H145.1Zm0,13.89h8.61v8.61H145.1Zm0,11.61h8.61v8.61H145.1ZM133.5,45q4.26-.9,8.6-1.5V54h-8.6Zm0,12h8.6v8.61h-8.6Zm0,11.61h8.6v8.61h-8.6Zm0,11.61h8.6v8.5h-8.6Zm0,11.51h8.6v8.5h-8.6ZM121.89,48.14q4.24-1.38,8.6-2.43V54h-8.6Zm0,8.9h8.6v8.61h-8.6Zm-11.61-4.43q4.23-1.9,8.61-3.45V54h-8.61Zm0,4.43h8.61v8.61h-8.61Zm0,11.61h8.61v8.61h-8.61Zm0,11.61h8.61v8.5h-8.61Zm0,11.51h8.61v8.5h-8.61Zm0,11.5h8.61v8.61h-8.61Zm0,11.61h8.61v8.61h-8.61Zm0,11.61h8.61v8.61h-8.61Zm0,11.61h8.61v8.61h-8.61Zm0,11.61h8.61v8.6h-8.61Zm-3-95.7v0h-.06Zm-8.61,4.63c.92-.55,1.85-1.08,2.78-1.6h5.83v8.61H98.67Zm0,10h8.61v8.61H98.67Zm0,11.61h8.61v8.5H98.67Zm0,11.51h8.61v8.5H98.67Zm0,11.5h8.61v8.61H98.67Zm0,11.61h8.61v8.61H98.67Zm0,11.61h8.61v8.61H98.67Zm-3-66v5.17h-7.5Q91.83,62.91,95.67,60.48Zm-8.61,8.17h8.61v8.61H87.06Zm0,11.61h8.61v8.5H87.06Zm0,11.51h8.61v8.5H87.06Zm0,11.5h8.61v8.61H87.06Zm0,11.61h8.61v8.61H87.06ZM75.55,76.57q4.11-4.08,8.51-7.69v8.38H75.55Zm0,3.69h8.51v8.5H75.55Zm0,11.51h8.51v8.5H75.55Zm0,11.5h8.51v8.61H75.55Zm0,11.61h8.51v8.61H75.55Zm0,11.61h8.51v8.61H75.55Zm0,11.61h8.51v8.61H75.55Zm0,11.61h8.51v8.6H75.55ZM60.94,94.05v6.22H57C58.25,98.16,59.57,96.09,60.94,94.05Zm-5.61,9.22h5.61v8.61H51.06Q53,107.5,55.33,103.27Zm-6,12.7v7.52h-2.7C47.46,121,48.35,118.45,49.34,116Zm-3.61,10.52h3.61v8.61H43.57Q44.49,130.75,45.73,126.49ZM43,138.1h6.37v8.61H41.72Q42.19,142.36,43,138.1Zm-1.53,11.61h7.9v8.6H41.05C41.08,155.43,41.2,152.56,41.44,149.71Zm46.42,80.86H77.26V219.86h10.6Zm0-13.71H77.26v-8.61h10.6Zm34.83,13.81H112.08V219.86h10.61Zm0-13.81H112.08v-8.61h10.61Zm35.92,59.74V266.29h9.51v9a1.55,1.55,0,0,0,.26.85C165.16,276.43,161.91,276.59,158.61,276.6Zm9.51-56.74v8.6h-9.51v-8.6Zm-9.51-3v-8.61h9.51v8.61Zm9.51,14.61v8.6h-9.51v-8.6Zm0,11.6v8.61h-9.51v-8.61Zm0,11.61v8.61h-9.51v-8.61ZM171,275.89a1.45,1.45,0,0,0,.12-.59v-9h8.61v7.41a1.52,1.52,0,0,0,.26.84Q175.55,275.4,171,275.89Zm8.73-56v8.6h-8.61v-8.6Zm-8.61-3v-8.61h8.61v8.61Zm8.61,14.61v8.6h-8.61v-8.6Zm0,11.6v8.61h-8.61v-8.61Zm0,11.61v8.61h-8.61v-8.61Zm3,19.32a1.53,1.53,0,0,0,0-.3v-7.41h8.61v4.4a1.49,1.49,0,0,0,.37,1C188.76,272.57,185.75,273.34,182.7,274Zm8.64-54.14v8.6h-8.61v-8.6Zm-8.61-3v-8.61h8.61v8.61Zm8.61,14.61v8.6h-8.61v-8.6Zm0,11.6v8.61h-8.61v-8.61Zm0,11.61v8.61h-8.61v-8.61Zm3,16.18a.88.88,0,0,0,0-.17v-4.4H203v.1a1.53,1.53,0,0,0,.46,1.09Q199,269.36,194.32,270.86Zm8.63-51v8.6h-8.61v-8.6Zm-8.61-3v-8.61H203v8.61ZM203,231.47v8.6h-8.61v-8.6Zm0,11.6v8.61h-8.61v-8.61Zm0,11.61v8.61h-8.61v-8.61Zm3,11.69v-.08h.18Zm3.78-1.78a1.5,1.5,0,0,0-1.48-1.3H206v-8.61h8.6v6a1.48,1.48,0,0,0,.5,1.1Q212.43,263.26,209.73,264.59Zm4.82-44.73v8.6H206v-8.6Zm-8.6-3v-8.61h8.6v8.61Zm8.6,14.61v8.6H206v-8.6Zm0,11.6v8.61H206v-8.61Zm3,17.28v-5.67h8.69Q222,257.71,217.56,260.35Zm8.6-40.49v8.6h-8.6v-8.6Zm-8.6-3v-8.61h8.6v8.61Zm8.6,14.61v8.6h-8.6v-8.6Zm0,11.6v8.61h-8.6v-8.61Zm3,9.44v-9.44h8.5v.31a1.5,1.5,0,0,0,.73,1.28A119.13,119.13,0,0,1,229.17,252.51Zm8.5-32.65v8.6h-8.5v-8.6Zm-8.5-3v-8.61h8.5v8.61Zm8.5,14.61v8.6h-8.5v-8.6Zm4.72,9.23a1.49,1.49,0,0,0-1.22-.63h-.5v-8.6h8.92a1.46,1.46,0,0,0,.5.42A115.3,115.3,0,0,1,242.39,240.7Zm6.89-20.84v8.6h-8.61v-8.6Zm-8.61-3v-8.61h8.61v8.61Zm11.72,12-.11-.1v-8.91h6.14C256.55,223,254.53,226,252.39,228.87ZM260,217.11a1.48,1.48,0,0,0-.83-.25h-6.91v-8.61h12.28Q262.48,212.78,260,217.11Zm5.81-11.71a1.4,1.4,0,0,0-.64-.15H51a1.45,1.45,0,0,0-.59.12,118.58,118.58,0,0,1-9.39-44.05H275.18A116.57,116.57,0,0,1,265.83,205.4Zm-4.74-47.09v-8.6h13.69q.36,4.26.4,8.6Z"/></svg>